<ttFont>
    <TTGlyph name="A" xMin="70" yMin="0" xMax="428" yMax="704">
      <contour>
        <pt x="428" y="648" on="1"/>
        <pt x="428" y="0" on="1"/>
        <pt x="391" y="0" on="1"/>
        <pt x="391" y="330" on="1"/>
        <pt x="107" y="330" on="1"/>
        <pt x="107" y="0" on="1"/>
        <pt x="70" y="0" on="1"/>
        <pt x="70" y="458" on="1"/>
        <pt x="70" y="566" on="0"/>
        <pt x="208" y="704" on="0"/>
        <pt x="312" y="704" on="1"/>
        <pt x="388" y="704" on="0"/>
      </contour>
      <contour>
        <pt x="391" y="367" on="1"/>
        <pt x="391" y="634" on="1"/>
        <pt x="359" y="667" on="0"/>
        <pt x="310" y="667" on="1"/>
        <pt x="222" y="667" on="0"/>
        <pt x="107" y="539" on="0"/>
        <pt x="107" y="457" on="1"/>
        <pt x="107" y="367" on="1"/>
      </contour>
    </TTGlyph>
    <TTGlyph name="AE" xMin="71" yMin="0" xMax="601" yMax="700">
      <contour>
        <pt x="276" y="700" on="1"/>
        <pt x="601" y="700" on="1"/>
        <pt x="601" y="663" on="1"/>
        <pt x="360" y="663" on="1"/>
        <pt x="360" y="407" on="1"/>
        <pt x="601" y="407" on="1"/>
        <pt x="601" y="370" on="1"/>
        <pt x="360" y="370" on="1"/>
        <pt x="360" y="37" on="1"/>
        <pt x="601" y="37" on="1"/>
        <pt x="601" y="0" on="1"/>
        <pt x="322" y="0" on="1"/>
        <pt x="322" y="330" on="1"/>
        <pt x="108" y="330" on="1"/>
        <pt x="108" y="0" on="1"/>
        <pt x="71" y="0" on="1"/>
        <pt x="71" y="458" on="1"/>
        <pt x="71" y="562" on="0"/>
        <pt x="199" y="700" on="0"/>
      </contour>
      <contour>
        <pt x="322" y="367" on="1"/>
        <pt x="322" y="662" on="1"/>
        <pt x="300" y="663" on="0"/>
        <pt x="274" y="663" on="1"/>
        <pt x="213" y="663" on="0"/>
        <pt x="108" y="535" on="0"/>
        <pt x="108" y="457" on="1"/>
        <pt x="108" y="367" on="1"/>
      </contour>
    </TTGlyph>
    <TTGlyph name="Aacute" xMin="70" yMin="0" xMax="428" yMax="900">
      <contour>
        <pt x="428" y="648" on="1"/>
        <pt x="428" y="0" on="1"/>
        <pt x="391" y="0" on="1"/>
        <pt x="391" y="330" on="1"/>
        <pt x="107" y="330" on="1"/>
        <pt x="107" y="0" on="1"/>
        <pt x="70" y="0" on="1"/>
        <pt x="70" y="458" on="1"/>
        <pt x="70" y="566" on="0"/>
        <pt x="208" y="704" on="0"/>
        <pt x="312" y="704" on="1"/>
        <pt x="388" y="704" on="0"/>
      </contour>
      <contour>
        <pt x="391" y="367" on="1"/>
        <pt x="391" y="634" on="1"/>
        <pt x="359" y="667" on="0"/>
        <pt x="310" y="667" on="1"/>
        <pt x="222" y="667" on="0"/>
        <pt x="107" y="539" on="0"/>
        <pt x="107" y="457" on="1"/>
        <pt x="107" y="367" on="1"/>
      </contour>
      <contour>
        <pt x="380" y="885" on="1"/>
        <pt x="266" y="764" on="1"/>
        <pt x="237" y="764" on="1"/>
        <pt x="343" y="900" on="1"/>
      </contour>
    </TTGlyph>
    <TTGlyph name="Acircumflex" xMin="70" yMin="0" xMax="428" yMax="892">
      <contour>
        <pt x="428" y="648" on="1"/>
        <pt x="428" y="0" on="1"/>
        <pt x="391" y="0" on="1"/>
        <pt x="391" y="330" on="1"/>
        <pt x="107" y="330" on="1"/>
        <pt x="107" y="0" on="1"/>
        <pt x="70" y="0" on="1"/>
        <pt x="70" y="458" on="1"/>
        <pt x="70" y="566" on="0"/>
        <pt x="208" y="704" on="0"/>
        <pt x="312" y="704" on="1"/>
        <pt x="388" y="704" on="0"/>
      </contour>
      <contour>
        <pt x="391" y="367" on="1"/>
        <pt x="391" y="634" on="1"/>
        <pt x="359" y="667" on="0"/>
        <pt x="310" y="667" on="1"/>
        <pt x="222" y="667" on="0"/>
        <pt x="107" y="539" on="0"/>
        <pt x="107" y="457" on="1"/>
        <pt x="107" y="367" on="1"/>
      </contour>
      <contour>
        <pt x="333" y="756" on="1"/>
        <pt x="256" y="837" on="1"/>
        <pt x="179" y="756" on="1"/>
        <pt x="150" y="756" on="1"/>
        <pt x="256" y="892" on="1"/>
        <pt x="362" y="756" on="1"/>
      </contour>
    </TTGlyph>
    <TTGlyph name="Adieresis" xMin="70" yMin="0" xMax="428" yMax="830">
      <contour>
        <pt x="428" y="648" on="1"/>
        <pt x="428" y="0" on="1"/>
        <pt x="391" y="0" on="1"/>
        <pt x="391" y="330" on="1"/>
        <pt x="107" y="330" on="1"/>
        <pt x="107" y="0" on="1"/>
        <pt x="70" y="0" on="1"/>
        <pt x="70" y="458" on="1"/>
        <pt x="70" y="566" on="0"/>
        <pt x="208" y="704" on="0"/>
        <pt x="312" y="704" on="1"/>
        <pt x="388" y="704" on="0"/>
      </contour>
      <contour>
        <pt x="391" y="367" on="1"/>
        <pt x="391" y="634" on="1"/>
        <pt x="359" y="667" on="0"/>
        <pt x="310" y="667" on="1"/>
        <pt x="222" y="667" on="0"/>
        <pt x="107" y="539" on="0"/>
        <pt x="107" y="457" on="1"/>
        <pt x="107" y="367" on="1"/>
      </contour>
      <contour>
        <pt x="150" y="830" on="1"/>
        <pt x="188" y="830" on="1"/>
        <pt x="188" y="764" on="1"/>
        <pt x="150" y="764" on="1"/>
      </contour>
      <contour>
        <pt x="320" y="830" on="1"/>
        <pt x="358" y="830" on="1"/>
        <pt x="358" y="764" on="1"/>
        <pt x="320" y="764" on="1"/>
      </contour>
    </TTGlyph>
    <TTGlyph name="Agrave" xMin="70" yMin="0" xMax="428" yMax="900">
      <contour>
        <pt x="428" y="648" on="1"/>
        <pt x="428" y="0" on="1"/>
        <pt x="391" y="0" on="1"/>
        <pt x="391" y="330" on="1"/>
        <pt x="107" y="330" on="1"/>
        <pt x="107" y="0" on="1"/>
        <pt x="70" y="0" on="1"/>
        <pt x="70" y="458" on="1"/>
        <pt x="70" y="566" on="0"/>
        <pt x="208" y="704" on="0"/>
        <pt x="312" y="704" on="1"/>
        <pt x="388" y="704" on="0"/>
      </contour>
      <contour>
        <pt x="391" y="367" on="1"/>
        <pt x="391" y="634" on="1"/>
        <pt x="359" y="667" on="0"/>
        <pt x="310" y="667" on="1"/>
        <pt x="222" y="667" on="0"/>
        <pt x="107" y="539" on="0"/>
        <pt x="107" y="457" on="1"/>
        <pt x="107" y="367" on="1"/>
      </contour>
      <contour>
        <pt x="291" y="764" on="1"/>
        <pt x="177" y="885" on="1"/>
        <pt x="214" y="900" on="1"/>
        <pt x="320" y="764" on="1"/>
      </contour>
    </TTGlyph>
    <TTGlyph name="Aring" xMin="70" yMin="0" xMax="428" yMax="879">
      <contour>
        <pt x="291" y="721" on="0"/>
        <pt x="225" y="721" on="0"/>
        <pt x="179" y="767" on="0"/>
        <pt x="179" y="834" on="0"/>
        <pt x="225" y="879" on="0"/>
        <pt x="291" y="879" on="0"/>
        <pt x="337" y="834" on="0"/>
        <pt x="337" y="767" on="0"/>
      </contour>
      <contour>
        <pt x="309" y="823" on="0"/>
        <pt x="280" y="851" on="0"/>
        <pt x="236" y="851" on="0"/>
        <pt x="207" y="823" on="0"/>
        <pt x="207" y="780" on="0"/>
        <pt x="236" y="749" on="0"/>
        <pt x="282" y="749" on="0"/>
        <pt x="309" y="779" on="0"/>
      </contour>
      <contour>
        <pt x="428" y="648" on="1"/>
        <pt x="428" y="0" on="1"/>
        <pt x="391" y="0" on="1"/>
        <pt x="391" y="330" on="1"/>
        <pt x="107" y="330" on="1"/>
        <pt x="107" y="0" on="1"/>
        <pt x="70" y="0" on="1"/>
        <pt x="70" y="458" on="1"/>
        <pt x="70" y="566" on="0"/>
        <pt x="208" y="704" on="0"/>
        <pt x="312" y="704" on="1"/>
        <pt x="388" y="704" on="0"/>
      </contour>
      <contour>
        <pt x="391" y="367" on="1"/>
        <pt x="391" y="634" on="1"/>
        <pt x="359" y="667" on="0"/>
        <pt x="310" y="667" on="1"/>
        <pt x="222" y="667" on="0"/>
        <pt x="107" y="539" on="0"/>
        <pt x="107" y="457" on="1"/>
        <pt x="107" y="367" on="1"/>
      </contour>
    </TTGlyph>
    <TTGlyph name="Atilde" xMin="70" yMin="0" xMax="428" yMax="834">
      <contour>
        <pt x="428" y="648" on="1"/>
        <pt x="428" y="0" on="1"/>
        <pt x="391" y="0" on="1"/>
        <pt x="391" y="330" on="1"/>
        <pt x="107" y="330" on="1"/>
        <pt x="107" y="0" on="1"/>
        <pt x="70" y="0" on="1"/>
        <pt x="70" y="458" on="1"/>
        <pt x="70" y="566" on="0"/>
        <pt x="208" y="704" on="0"/>
        <pt x="312" y="704" on="1"/>
        <pt x="388" y="704" on="0"/>
      </contour>
      <contour>
        <pt x="391" y="367" on="1"/>
        <pt x="391" y="634" on="1"/>
        <pt x="359" y="667" on="0"/>
        <pt x="310" y="667" on="1"/>
        <pt x="222" y="667" on="0"/>
        <pt x="107" y="539" on="0"/>
        <pt x="107" y="457" on="1"/>
        <pt x="107" y="367" on="1"/>
      </contour>
      <contour>
        <pt x="378" y="826" on="1"/>
        <pt x="378" y="789" on="1"/>
        <pt x="356" y="757" on="0"/>
        <pt x="291" y="757" on="0"/>
        <pt x="210" y="800" on="0"/>
        <pt x="184" y="800" on="1"/>
        <pt x="142" y="800" on="0"/>
        <pt x="118" y="768" on="1"/>
        <pt x="118" y="804" on="1"/>
        <pt x="124" y="817" on="0"/>
        <pt x="163" y="834" on="0"/>
        <pt x="211" y="834" on="0"/>
        <pt x="294" y="791" on="0"/>
        <pt x="318" y="791" on="1"/>
        <pt x="358" y="791" on="0"/>
      </contour>
    </TTGlyph>
    <TTGlyph name="B" xMin="75" yMin="-3" xMax="434" yMax="700">
      <contour>
        <pt x="76" y="-3" on="1"/>
        <pt x="75" y="700" on="1"/>
        <pt x="230" y="695" on="0"/>
        <pt x="388" y="620" on="0"/>
        <pt x="388" y="471" on="0"/>
        <pt x="304" y="399" on="0"/>
        <pt x="244" y="391" on="1"/>
        <pt x="323" y="384" on="0"/>
        <pt x="434" y="288" on="0"/>
        <pt x="434" y="103" on="0"/>
        <pt x="251" y="-2" on="0"/>
      </contour>
      <contour>
        <pt x="397" y="253" on="0"/>
        <pt x="339" y="323" on="0"/>
        <pt x="290" y="338" on="1"/>
        <pt x="208" y="365" on="0"/>
        <pt x="113" y="365" on="1"/>
        <pt x="113" y="35" on="1"/>
        <pt x="194" y="36" on="0"/>
        <pt x="312" y="71" on="0"/>
        <pt x="342" y="98" on="1"/>
        <pt x="397" y="149" on="0"/>
      </contour>
      <contour>
        <pt x="351" y="546" on="1"/>
        <pt x="351" y="602" on="0"/>
        <pt x="223" y="662" on="0"/>
        <pt x="112" y="662" on="1"/>
        <pt x="112" y="408" on="1"/>
        <pt x="351" y="411" on="0"/>
      </contour>
    </TTGlyph>
    <TTGlyph name="C" xMin="49" yMin="-1" xMax="407" yMax="700">
      <contour>
        <pt x="407" y="545" on="1"/>
        <pt x="370" y="546" on="1"/>
        <pt x="361" y="600" on="0"/>
        <pt x="290" y="663" on="0"/>
        <pt x="246" y="663" on="1"/>
        <pt x="172" y="663" on="0"/>
        <pt x="86" y="512" on="0"/>
        <pt x="86" y="414" on="1"/>
        <pt x="86" y="139" on="0"/>
        <pt x="228" y="70" on="1"/>
        <pt x="296" y="36" on="0"/>
        <pt x="407" y="36" on="1"/>
        <pt x="407" y="-1" on="1"/>
        <pt x="262" y="-1" on="0"/>
        <pt x="191" y="42" on="1"/>
        <pt x="163" y="59" on="0"/>
        <pt x="106" y="121" on="0"/>
        <pt x="88" y="164" on="1"/>
        <pt x="49" y="261" on="0"/>
        <pt x="49" y="415" on="1"/>
        <pt x="49" y="488" on="0"/>
        <pt x="89" y="604" on="0"/>
        <pt x="119" y="636" on="1"/>
        <pt x="180" y="700" on="0"/>
        <pt x="304" y="700" on="0"/>
        <pt x="407" y="600" on="0"/>
      </contour>
    </TTGlyph>
    <TTGlyph name="Ccedilla" xMin="49" yMin="-203" xMax="407" yMax="700">
      <contour>
        <pt x="407" y="545" on="1"/>
        <pt x="370" y="546" on="1"/>
        <pt x="361" y="600" on="0"/>
        <pt x="290" y="663" on="0"/>
        <pt x="246" y="663" on="1"/>
        <pt x="172" y="663" on="0"/>
        <pt x="86" y="512" on="0"/>
        <pt x="86" y="414" on="1"/>
        <pt x="86" y="139" on="0"/>
        <pt x="228" y="70" on="1"/>
        <pt x="296" y="36" on="0"/>
        <pt x="407" y="36" on="1"/>
        <pt x="407" y="-1" on="1"/>
        <pt x="341" y="-1" on="0"/>
        <pt x="290" y="7" on="1"/>
        <pt x="295" y="-17" on="0"/>
        <pt x="334" y="-40" on="0"/>
        <pt x="374" y="-45" on="0"/>
        <pt x="406" y="-79" on="0"/>
        <pt x="406" y="-115" on="1"/>
        <pt x="406" y="-203" on="0"/>
        <pt x="268" y="-203" on="1"/>
        <pt x="245" y="-203" on="0"/>
        <pt x="234" y="-202" on="1"/>
        <pt x="232" y="-169" on="1"/>
        <pt x="242" y="-170" on="0"/>
        <pt x="263" y="-170" on="1"/>
        <pt x="373" y="-170" on="0"/>
        <pt x="373" y="-115" on="1"/>
        <pt x="373" y="-75" on="0"/>
        <pt x="311" y="-66" on="1"/>
        <pt x="288" y="-62" on="0"/>
        <pt x="248" y="-22" on="0"/>
        <pt x="248" y="17" on="1"/>
        <pt x="154" y="46" on="0"/>
        <pt x="49" y="228" on="0"/>
        <pt x="49" y="415" on="1"/>
        <pt x="49" y="488" on="0"/>
        <pt x="89" y="604" on="0"/>
        <pt x="119" y="636" on="1"/>
        <pt x="180" y="700" on="0"/>
        <pt x="304" y="700" on="0"/>
        <pt x="407" y="600" on="0"/>
      </contour>
    </TTGlyph>
    <TTGlyph name="D" xMin="76" yMin="-3" xMax="434" yMax="701">
      <contour>
        <pt x="434" y="336" on="1"/>
        <pt x="434" y="262" on="0"/>
        <pt x="398" y="139" on="0"/>
        <pt x="337" y="63" on="0"/>
        <pt x="290" y="40" on="1"/>
        <pt x="205" y="-3" on="0"/>
        <pt x="76" y="-3" on="1"/>
        <pt x="76" y="701" on="1"/>
        <pt x="213" y="701" on="0"/>
        <pt x="292" y="660" on="1"/>
        <pt x="360" y="624" on="0"/>
        <pt x="394" y="553" on="1"/>
        <pt x="434" y="471" on="0"/>
      </contour>
      <contour>
        <pt x="397" y="347" on="1"/>
        <pt x="397" y="662" on="0"/>
        <pt x="113" y="662" on="1"/>
        <pt x="113" y="35" on="1"/>
        <pt x="275" y="37" on="0"/>
        <pt x="339" y="128" on="1"/>
        <pt x="397" y="210" on="0"/>
      </contour>
    </TTGlyph>
    <TTGlyph name="E" xMin="76" yMin="0" xMax="434" yMax="700">
      <contour>
        <pt x="76" y="0" on="1"/>
        <pt x="76" y="700" on="1"/>
        <pt x="434" y="700" on="1"/>
        <pt x="434" y="663" on="1"/>
        <pt x="113" y="663" on="1"/>
        <pt x="113" y="407" on="1"/>
        <pt x="434" y="407" on="1"/>
        <pt x="434" y="370" on="1"/>
        <pt x="113" y="370" on="1"/>
        <pt x="113" y="37" on="1"/>
        <pt x="434" y="37" on="1"/>
        <pt x="434" y="0" on="1"/>
      </contour>
    </TTGlyph>
    <TTGlyph name="Eacute" xMin="76" yMin="0" xMax="434" yMax="900">
      <contour>
        <pt x="76" y="0" on="1"/>
        <pt x="76" y="700" on="1"/>
        <pt x="434" y="700" on="1"/>
        <pt x="434" y="663" on="1"/>
        <pt x="113" y="663" on="1"/>
        <pt x="113" y="407" on="1"/>
        <pt x="434" y="407" on="1"/>
        <pt x="434" y="370" on="1"/>
        <pt x="113" y="370" on="1"/>
        <pt x="113" y="37" on="1"/>
        <pt x="434" y="37" on="1"/>
        <pt x="434" y="0" on="1"/>
      </contour>
      <contour>
        <pt x="375" y="885" on="1"/>
        <pt x="261" y="764" on="1"/>
        <pt x="232" y="764" on="1"/>
        <pt x="338" y="900" on="1"/>
      </contour>
    </TTGlyph>
    <TTGlyph name="Ecircumflex" xMin="76" yMin="0" xMax="434" yMax="892">
      <contour>
        <pt x="76" y="0" on="1"/>
        <pt x="76" y="700" on="1"/>
        <pt x="434" y="700" on="1"/>
        <pt x="434" y="663" on="1"/>
        <pt x="113" y="663" on="1"/>
        <pt x="113" y="407" on="1"/>
        <pt x="434" y="407" on="1"/>
        <pt x="434" y="370" on="1"/>
        <pt x="113" y="370" on="1"/>
        <pt x="113" y="37" on="1"/>
        <pt x="434" y="37" on="1"/>
        <pt x="434" y="0" on="1"/>
      </contour>
      <contour>
        <pt x="335" y="756" on="1"/>
        <pt x="258" y="837" on="1"/>
        <pt x="181" y="756" on="1"/>
        <pt x="152" y="756" on="1"/>
        <pt x="258" y="892" on="1"/>
        <pt x="364" y="756" on="1"/>
      </contour>
    </TTGlyph>
    <TTGlyph name="Edieresis" xMin="76" yMin="0" xMax="434" yMax="830">
      <contour>
        <pt x="76" y="0" on="1"/>
        <pt x="76" y="700" on="1"/>
        <pt x="434" y="700" on="1"/>
        <pt x="434" y="663" on="1"/>
        <pt x="113" y="663" on="1"/>
        <pt x="113" y="407" on="1"/>
        <pt x="434" y="407" on="1"/>
        <pt x="434" y="370" on="1"/>
        <pt x="113" y="370" on="1"/>
        <pt x="113" y="37" on="1"/>
        <pt x="434" y="37" on="1"/>
        <pt x="434" y="0" on="1"/>
      </contour>
      <contour>
        <pt x="162" y="830" on="1"/>
        <pt x="200" y="830" on="1"/>
        <pt x="200" y="764" on="1"/>
        <pt x="162" y="764" on="1"/>
      </contour>
      <contour>
        <pt x="332" y="830" on="1"/>
        <pt x="370" y="830" on="1"/>
        <pt x="370" y="764" on="1"/>
        <pt x="332" y="764" on="1"/>
      </contour>
    </TTGlyph>
    <TTGlyph name="Egrave" xMin="76" yMin="0" xMax="434" yMax="900">
      <contour>
        <pt x="76" y="0" on="1"/>
        <pt x="76" y="700" on="1"/>
        <pt x="434" y="700" on="1"/>
        <pt x="434" y="663" on="1"/>
        <pt x="113" y="663" on="1"/>
        <pt x="113" y="407" on="1"/>
        <pt x="434" y="407" on="1"/>
        <pt x="434" y="370" on="1"/>
        <pt x="113" y="370" on="1"/>
        <pt x="113" y="37" on="1"/>
        <pt x="434" y="37" on="1"/>
        <pt x="434" y="0" on="1"/>
      </contour>
      <contour>
        <pt x="264" y="764" on="1"/>
        <pt x="150" y="885" on="1"/>
        <pt x="187" y="900" on="1"/>
        <pt x="293" y="764" on="1"/>
      </contour>
    </TTGlyph>
    <TTGlyph name="Eth" xMin="0" yMin="-3" xMax="446" yMax="701">
      <contour>
        <pt x="88" y="327" on="1"/>
        <pt x="0" y="327" on="1"/>
        <pt x="0" y="364" on="1"/>
        <pt x="88" y="364" on="1"/>
        <pt x="88" y="701" on="1"/>
        <pt x="225" y="701" on="0"/>
        <pt x="304" y="660" on="1"/>
        <pt x="372" y="624" on="0"/>
        <pt x="406" y="553" on="1"/>
        <pt x="446" y="471" on="0"/>
        <pt x="446" y="344" on="1"/>
        <pt x="446" y="112" on="0"/>
        <pt x="302" y="40" on="1"/>
        <pt x="217" y="-3" on="0"/>
        <pt x="88" y="-3" on="1"/>
      </contour>
      <contour>
        <pt x="409" y="347" on="1"/>
        <pt x="409" y="662" on="0"/>
        <pt x="125" y="662" on="1"/>
        <pt x="125" y="364" on="1"/>
        <pt x="240" y="364" on="1"/>
        <pt x="240" y="327" on="1"/>
        <pt x="125" y="327" on="1"/>
        <pt x="125" y="35" on="1"/>
        <pt x="287" y="37" on="0"/>
        <pt x="351" y="128" on="1"/>
        <pt x="409" y="210" on="0"/>
      </contour>
    </TTGlyph>
    <TTGlyph name="Euro" xMin="35" yMin="2" xMax="492" yMax="690">
      <contour>
        <pt x="82" y="277" on="1"/>
        <pt x="35" y="277" on="1"/>
        <pt x="35" y="314" on="1"/>
        <pt x="79" y="314" on="1"/>
        <pt x="79" y="360" on="1"/>
        <pt x="35" y="360" on="1"/>
        <pt x="35" y="397" on="1"/>
        <pt x="80" y="397" on="1"/>
        <pt x="90" y="540" on="0"/>
        <pt x="209" y="690" on="0"/>
        <pt x="310" y="690" on="1"/>
        <pt x="438" y="690" on="0"/>
        <pt x="492" y="564" on="1"/>
        <pt x="449" y="564" on="1"/>
        <pt x="402" y="651" on="0"/>
        <pt x="227" y="651" on="0"/>
        <pt x="126" y="524" on="0"/>
        <pt x="117" y="397" on="1"/>
        <pt x="490" y="397" on="1"/>
        <pt x="490" y="360" on="1"/>
        <pt x="116" y="360" on="1"/>
        <pt x="116" y="347" on="1"/>
        <pt x="116" y="325" on="0"/>
        <pt x="117" y="314" on="1"/>
        <pt x="490" y="314" on="1"/>
        <pt x="490" y="277" on="1"/>
        <pt x="119" y="277" on="1"/>
        <pt x="131" y="173" on="0"/>
        <pt x="224" y="40" on="0"/>
        <pt x="308" y="40" on="1"/>
        <pt x="351" y="40" on="0"/>
        <pt x="434" y="80" on="0"/>
        <pt x="449" y="118" on="1"/>
        <pt x="492" y="118" on="1"/>
        <pt x="473" y="59" on="0"/>
        <pt x="366" y="2" on="0"/>
        <pt x="307" y="2" on="1"/>
        <pt x="214" y="2" on="0"/>
        <pt x="95" y="145" on="0"/>
      </contour>
    </TTGlyph>
    <TTGlyph name="F" xMin="76" yMin="0" xMax="434" yMax="700">
      <contour>
        <pt x="113" y="0" on="1"/>
        <pt x="76" y="0" on="1"/>
        <pt x="76" y="700" on="1"/>
        <pt x="434" y="700" on="1"/>
        <pt x="434" y="663" on="1"/>
        <pt x="113" y="663" on="1"/>
        <pt x="113" y="407" on="1"/>
        <pt x="434" y="407" on="1"/>
        <pt x="434" y="370" on="1"/>
        <pt x="113" y="370" on="1"/>
      </contour>
    </TTGlyph>
    <TTGlyph name="G" xMin="49" yMin="-1" xMax="407" yMax="700">
      <contour>
        <pt x="407" y="545" on="1"/>
        <pt x="370" y="546" on="1"/>
        <pt x="361" y="600" on="0"/>
        <pt x="290" y="663" on="0"/>
        <pt x="246" y="663" on="1"/>
        <pt x="172" y="663" on="0"/>
        <pt x="86" y="512" on="0"/>
        <pt x="86" y="414" on="1"/>
        <pt x="86" y="215" on="0"/>
        <pt x="223" y="45" on="0"/>
        <pt x="370" y="37" on="1"/>
        <pt x="370" y="312" on="1"/>
        <pt x="272" y="312" on="1"/>
        <pt x="272" y="349" on="1"/>
        <pt x="407" y="349" on="1"/>
        <pt x="407" y="-1" on="1"/>
        <pt x="262" y="-1" on="0"/>
        <pt x="191" y="42" on="1"/>
        <pt x="163" y="59" on="0"/>
        <pt x="106" y="121" on="0"/>
        <pt x="88" y="164" on="1"/>
        <pt x="49" y="261" on="0"/>
        <pt x="49" y="415" on="1"/>
        <pt x="49" y="488" on="0"/>
        <pt x="89" y="604" on="0"/>
        <pt x="119" y="636" on="1"/>
        <pt x="180" y="700" on="0"/>
        <pt x="304" y="700" on="0"/>
        <pt x="407" y="600" on="0"/>
      </contour>
    </TTGlyph>
    <TTGlyph name="H" xMin="76" yMin="0" xMax="434" yMax="700">
      <contour>
        <pt x="434" y="0" on="1"/>
        <pt x="397" y="0" on="1"/>
        <pt x="397" y="330" on="1"/>
        <pt x="113" y="330" on="1"/>
        <pt x="113" y="0" on="1"/>
        <pt x="76" y="0" on="1"/>
        <pt x="76" y="700" on="1"/>
        <pt x="113" y="700" on="1"/>
        <pt x="113" y="367" on="1"/>
        <pt x="397" y="367" on="1"/>
        <pt x="397" y="700" on="1"/>
        <pt x="434" y="700" on="1"/>
      </contour>
    </TTGlyph>
    <TTGlyph name="I" xMin="76" yMin="0" xMax="113" yMax="698">
      <contour>
        <pt x="113" y="0" on="1"/>
        <pt x="76" y="0" on="1"/>
        <pt x="76" y="698" on="1"/>
        <pt x="113" y="698" on="1"/>
      </contour>
    </TTGlyph>
    <TTGlyph name="Iacute" xMin="76" yMin="0" xMax="220" yMax="900">
      <contour>
        <pt x="113" y="0" on="1"/>
        <pt x="76" y="0" on="1"/>
        <pt x="76" y="698" on="1"/>
        <pt x="113" y="698" on="1"/>
      </contour>
      <contour>
        <pt x="220" y="885" on="1"/>
        <pt x="106" y="764" on="1"/>
        <pt x="77" y="764" on="1"/>
        <pt x="183" y="900" on="1"/>
      </contour>
    </TTGlyph>
    <TTGlyph name="Icircumflex" xMin="-17" yMin="0" xMax="195" yMax="892">
      <contour>
        <pt x="113" y="0" on="1"/>
        <pt x="76" y="0" on="1"/>
        <pt x="76" y="698" on="1"/>
        <pt x="113" y="698" on="1"/>
      </contour>
      <contour>
        <pt x="166" y="756" on="1"/>
        <pt x="89" y="837" on="1"/>
        <pt x="12" y="756" on="1"/>
        <pt x="-17" y="756" on="1"/>
        <pt x="89" y="892" on="1"/>
        <pt x="195" y="756" on="1"/>
      </contour>
    </TTGlyph>
    <TTGlyph name="Idieresis" xMin="-15" yMin="0" xMax="193" yMax="830">
      <contour>
        <pt x="113" y="0" on="1"/>
        <pt x="76" y="0" on="1"/>
        <pt x="76" y="698" on="1"/>
        <pt x="113" y="698" on="1"/>
      </contour>
      <contour>
        <pt x="-15" y="830" on="1"/>
        <pt x="23" y="830" on="1"/>
        <pt x="23" y="764" on="1"/>
        <pt x="-15" y="764" on="1"/>
      </contour>
      <contour>
        <pt x="155" y="830" on="1"/>
        <pt x="193" y="830" on="1"/>
        <pt x="193" y="764" on="1"/>
        <pt x="155" y="764" on="1"/>
      </contour>
    </TTGlyph>
    <TTGlyph name="Igrave" xMin="-24" yMin="0" xMax="119" yMax="900">
      <contour>
        <pt x="113" y="0" on="1"/>
        <pt x="76" y="0" on="1"/>
        <pt x="76" y="698" on="1"/>
        <pt x="113" y="698" on="1"/>
      </contour>
      <contour>
        <pt x="90" y="764" on="1"/>
        <pt x="-24" y="885" on="1"/>
        <pt x="13" y="900" on="1"/>
        <pt x="119" y="764" on="1"/>
      </contour>
    </TTGlyph>
    <TTGlyph name="J" xMin="18" yMin="-4" xMax="330" yMax="700">
      <contour>
        <pt x="18" y="150" on="1"/>
        <pt x="55" y="150" on="1"/>
        <pt x="57" y="74" on="0"/>
        <pt x="93" y="50" on="1"/>
        <pt x="120" y="33" on="0"/>
        <pt x="146" y="33" on="1"/>
        <pt x="217" y="33" on="0"/>
        <pt x="293" y="130" on="0"/>
        <pt x="293" y="243" on="1"/>
        <pt x="293" y="700" on="1"/>
        <pt x="330" y="700" on="1"/>
        <pt x="330" y="242" on="1"/>
        <pt x="330" y="-4" on="0"/>
        <pt x="144" y="-4" on="1"/>
        <pt x="106" y="-4" on="0"/>
        <pt x="66" y="22" on="1"/>
        <pt x="45" y="37" on="0"/>
        <pt x="18" y="103" on="0"/>
      </contour>
    </TTGlyph>
    <TTGlyph name="K" xMin="76" yMin="0" xMax="434" yMax="701">
      <contour>
        <pt x="433" y="0" on="1"/>
        <pt x="396" y="0" on="1"/>
        <pt x="396" y="68" on="1"/>
        <pt x="396" y="378" on="0"/>
        <pt x="244" y="378" on="1"/>
        <pt x="212" y="378" on="0"/>
        <pt x="154" y="345" on="0"/>
        <pt x="131" y="320" on="0"/>
        <pt x="113" y="296" on="1"/>
        <pt x="113" y="0" on="1"/>
        <pt x="76" y="0" on="1"/>
        <pt x="76" y="700" on="1"/>
        <pt x="113" y="700" on="1"/>
        <pt x="113" y="355" on="1"/>
        <pt x="383" y="701" on="1"/>
        <pt x="434" y="701" on="1"/>
        <pt x="202" y="409" on="1"/>
        <pt x="226" y="415" on="0"/>
        <pt x="249" y="415" on="1"/>
        <pt x="334" y="415" on="0"/>
        <pt x="433" y="251" on="0"/>
        <pt x="433" y="80" on="1"/>
      </contour>
    </TTGlyph>
    <TTGlyph name="L" xMin="76" yMin="0" xMax="424" yMax="700">
      <contour>
        <pt x="424" y="0" on="1"/>
        <pt x="76" y="0" on="1"/>
        <pt x="76" y="700" on="1"/>
        <pt x="113" y="700" on="1"/>
        <pt x="113" y="37" on="1"/>
        <pt x="424" y="37" on="1"/>
      </contour>
    </TTGlyph>
    <TTGlyph name="M" xMin="76" yMin="0" xMax="514" yMax="701">
      <contour>
        <pt x="477" y="0" on="1"/>
        <pt x="479" y="642" on="1"/>
        <pt x="312" y="259" on="1"/>
        <pt x="278" y="259" on="1"/>
        <pt x="111" y="642" on="1"/>
        <pt x="111" y="0" on="1"/>
        <pt x="76" y="0" on="1"/>
        <pt x="76" y="701" on="1"/>
        <pt x="124" y="701" on="1"/>
        <pt x="295" y="309" on="1"/>
        <pt x="465" y="701" on="1"/>
        <pt x="514" y="701" on="1"/>
        <pt x="514" y="0" on="1"/>
      </contour>
    </TTGlyph>
    <TTGlyph name="N" xMin="76" yMin="0" xMax="434" yMax="701">
      <contour>
        <pt x="113" y="637" on="1"/>
        <pt x="113" y="0" on="1"/>
        <pt x="76" y="0" on="1"/>
        <pt x="76" y="701" on="1"/>
        <pt x="129" y="701" on="1"/>
        <pt x="397" y="85" on="1"/>
        <pt x="397" y="700" on="1"/>
        <pt x="434" y="700" on="1"/>
        <pt x="434" y="0" on="1"/>
        <pt x="397" y="0" on="1"/>
      </contour>
    </TTGlyph>
    <TTGlyph name="Ntilde" xMin="76" yMin="0" xMax="434" yMax="834">
      <contour>
        <pt x="113" y="637" on="1"/>
        <pt x="113" y="0" on="1"/>
        <pt x="76" y="0" on="1"/>
        <pt x="76" y="701" on="1"/>
        <pt x="129" y="701" on="1"/>
        <pt x="397" y="85" on="1"/>
        <pt x="397" y="700" on="1"/>
        <pt x="434" y="700" on="1"/>
        <pt x="434" y="0" on="1"/>
        <pt x="397" y="0" on="1"/>
      </contour>
      <contour>
        <pt x="382" y="826" on="1"/>
        <pt x="382" y="789" on="1"/>
        <pt x="360" y="757" on="0"/>
        <pt x="295" y="757" on="0"/>
        <pt x="214" y="800" on="0"/>
        <pt x="188" y="800" on="1"/>
        <pt x="146" y="800" on="0"/>
        <pt x="122" y="768" on="1"/>
        <pt x="122" y="804" on="1"/>
        <pt x="128" y="817" on="0"/>
        <pt x="167" y="834" on="0"/>
        <pt x="215" y="834" on="0"/>
        <pt x="298" y="791" on="0"/>
        <pt x="322" y="791" on="1"/>
        <pt x="362" y="791" on="0"/>
      </contour>
    </TTGlyph>
    <TTGlyph name="O" xMin="49" yMin="0" xMax="497" yMax="705">
      <contour>
        <pt x="497" y="344" on="1"/>
        <pt x="497" y="179" on="0"/>
        <pt x="385" y="0" on="0"/>
        <pt x="173" y="0" on="0"/>
        <pt x="49" y="181" on="0"/>
        <pt x="49" y="514" on="0"/>
        <pt x="171" y="705" on="0"/>
        <pt x="280" y="705" on="1"/>
        <pt x="345" y="705" on="0"/>
        <pt x="436" y="638" on="0"/>
        <pt x="458" y="581" on="1"/>
        <pt x="497" y="476" on="0"/>
      </contour>
      <contour>
        <pt x="460" y="500" on="0"/>
        <pt x="366" y="666" on="0"/>
        <pt x="190" y="666" on="0"/>
        <pt x="86" y="501" on="0"/>
        <pt x="86" y="347" on="1"/>
        <pt x="86" y="168" on="0"/>
        <pt x="167" y="84" on="1"/>
        <pt x="212" y="38" on="0"/>
        <pt x="328" y="38" on="0"/>
        <pt x="402" y="90" on="0"/>
        <pt x="422" y="136" on="1"/>
        <pt x="460" y="222" on="0"/>
      </contour>
    </TTGlyph>
    <TTGlyph name="OE" xMin="48" yMin="0" xMax="483" yMax="700">
      <contour>
        <pt x="259" y="700" on="1"/>
        <pt x="483" y="700" on="1"/>
        <pt x="483" y="663" on="1"/>
        <pt x="296" y="663" on="1"/>
        <pt x="296" y="407" on="1"/>
        <pt x="483" y="407" on="1"/>
        <pt x="483" y="370" on="1"/>
        <pt x="296" y="370" on="1"/>
        <pt x="296" y="37" on="1"/>
        <pt x="483" y="37" on="1"/>
        <pt x="483" y="0" on="1"/>
        <pt x="264" y="0" on="1"/>
        <pt x="169" y="0" on="0"/>
        <pt x="48" y="189" on="0"/>
        <pt x="48" y="502" on="0"/>
        <pt x="161" y="689" on="0"/>
      </contour>
      <contour>
        <pt x="162" y="95" on="1"/>
        <pt x="202" y="47" on="0"/>
        <pt x="259" y="38" on="1"/>
        <pt x="259" y="661" on="1"/>
        <pt x="179" y="649" on="0"/>
        <pt x="85" y="487" on="0"/>
        <pt x="85" y="186" on="0"/>
      </contour>
    </TTGlyph>
    <TTGlyph name="Oacute" xMin="49" yMin="0" xMax="497" yMax="900">
      <contour>
        <pt x="497" y="344" on="1"/>
        <pt x="497" y="179" on="0"/>
        <pt x="385" y="0" on="0"/>
        <pt x="173" y="0" on="0"/>
        <pt x="49" y="181" on="0"/>
        <pt x="49" y="514" on="0"/>
        <pt x="171" y="705" on="0"/>
        <pt x="280" y="705" on="1"/>
        <pt x="345" y="705" on="0"/>
        <pt x="436" y="638" on="0"/>
        <pt x="458" y="581" on="1"/>
        <pt x="497" y="476" on="0"/>
      </contour>
      <contour>
        <pt x="460" y="500" on="0"/>
        <pt x="366" y="666" on="0"/>
        <pt x="190" y="666" on="0"/>
        <pt x="86" y="501" on="0"/>
        <pt x="86" y="347" on="1"/>
        <pt x="86" y="168" on="0"/>
        <pt x="167" y="84" on="1"/>
        <pt x="212" y="38" on="0"/>
        <pt x="328" y="38" on="0"/>
        <pt x="402" y="90" on="0"/>
        <pt x="422" y="136" on="1"/>
        <pt x="460" y="222" on="0"/>
      </contour>
      <contour>
        <pt x="399" y="885" on="1"/>
        <pt x="285" y="764" on="1"/>
        <pt x="256" y="764" on="1"/>
        <pt x="362" y="900" on="1"/>
      </contour>
    </TTGlyph>
    <TTGlyph name="Ocircumflex" xMin="49" yMin="0" xMax="497" yMax="892">
      <contour>
        <pt x="497" y="344" on="1"/>
        <pt x="497" y="179" on="0"/>
        <pt x="385" y="0" on="0"/>
        <pt x="173" y="0" on="0"/>
        <pt x="49" y="181" on="0"/>
        <pt x="49" y="514" on="0"/>
        <pt x="171" y="705" on="0"/>
        <pt x="280" y="705" on="1"/>
        <pt x="345" y="705" on="0"/>
        <pt x="436" y="638" on="0"/>
        <pt x="458" y="581" on="1"/>
        <pt x="497" y="476" on="0"/>
      </contour>
      <contour>
        <pt x="460" y="500" on="0"/>
        <pt x="366" y="666" on="0"/>
        <pt x="190" y="666" on="0"/>
        <pt x="86" y="501" on="0"/>
        <pt x="86" y="347" on="1"/>
        <pt x="86" y="168" on="0"/>
        <pt x="167" y="84" on="1"/>
        <pt x="212" y="38" on="0"/>
        <pt x="328" y="38" on="0"/>
        <pt x="402" y="90" on="0"/>
        <pt x="422" y="136" on="1"/>
        <pt x="460" y="222" on="0"/>
      </contour>
      <contour>
        <pt x="349" y="756" on="1"/>
        <pt x="272" y="837" on="1"/>
        <pt x="195" y="756" on="1"/>
        <pt x="166" y="756" on="1"/>
        <pt x="272" y="892" on="1"/>
        <pt x="378" y="756" on="1"/>
      </contour>
    </TTGlyph>
    <TTGlyph name="Odieresis" xMin="49" yMin="0" xMax="497" yMax="830">
      <contour>
        <pt x="497" y="344" on="1"/>
        <pt x="497" y="179" on="0"/>
        <pt x="385" y="0" on="0"/>
        <pt x="173" y="0" on="0"/>
        <pt x="49" y="181" on="0"/>
        <pt x="49" y="514" on="0"/>
        <pt x="171" y="705" on="0"/>
        <pt x="280" y="705" on="1"/>
        <pt x="345" y="705" on="0"/>
        <pt x="436" y="638" on="0"/>
        <pt x="458" y="581" on="1"/>
        <pt x="497" y="476" on="0"/>
      </contour>
      <contour>
        <pt x="460" y="500" on="0"/>
        <pt x="366" y="666" on="0"/>
        <pt x="190" y="666" on="0"/>
        <pt x="86" y="501" on="0"/>
        <pt x="86" y="347" on="1"/>
        <pt x="86" y="168" on="0"/>
        <pt x="167" y="84" on="1"/>
        <pt x="212" y="38" on="0"/>
        <pt x="328" y="38" on="0"/>
        <pt x="402" y="90" on="0"/>
        <pt x="422" y="136" on="1"/>
        <pt x="460" y="222" on="0"/>
      </contour>
      <contour>
        <pt x="168" y="830" on="1"/>
        <pt x="206" y="830" on="1"/>
        <pt x="206" y="764" on="1"/>
        <pt x="168" y="764" on="1"/>
      </contour>
      <contour>
        <pt x="338" y="830" on="1"/>
        <pt x="376" y="830" on="1"/>
        <pt x="376" y="764" on="1"/>
        <pt x="338" y="764" on="1"/>
      </contour>
    </TTGlyph>
    <TTGlyph name="Ograve" xMin="49" yMin="0" xMax="497" yMax="900">
      <contour>
        <pt x="497" y="344" on="1"/>
        <pt x="497" y="179" on="0"/>
        <pt x="385" y="0" on="0"/>
        <pt x="173" y="0" on="0"/>
        <pt x="49" y="181" on="0"/>
        <pt x="49" y="514" on="0"/>
        <pt x="171" y="705" on="0"/>
        <pt x="280" y="705" on="1"/>
        <pt x="345" y="705" on="0"/>
        <pt x="436" y="638" on="0"/>
        <pt x="458" y="581" on="1"/>
        <pt x="497" y="476" on="0"/>
      </contour>
      <contour>
        <pt x="460" y="500" on="0"/>
        <pt x="366" y="666" on="0"/>
        <pt x="190" y="666" on="0"/>
        <pt x="86" y="501" on="0"/>
        <pt x="86" y="347" on="1"/>
        <pt x="86" y="168" on="0"/>
        <pt x="167" y="84" on="1"/>
        <pt x="212" y="38" on="0"/>
        <pt x="328" y="38" on="0"/>
        <pt x="402" y="90" on="0"/>
        <pt x="422" y="136" on="1"/>
        <pt x="460" y="222" on="0"/>
      </contour>
      <contour>
        <pt x="274" y="764" on="1"/>
        <pt x="160" y="885" on="1"/>
        <pt x="197" y="900" on="1"/>
        <pt x="303" y="764" on="1"/>
      </contour>
    </TTGlyph>
    <TTGlyph name="Oslash" xMin="18" yMin="0" xMax="549" yMax="705">
      <contour>
        <pt x="468" y="584" on="1"/>
        <pt x="509" y="493" on="0"/>
        <pt x="509" y="179" on="0"/>
        <pt x="397" y="0" on="0"/>
        <pt x="184" y="0" on="0"/>
        <pt x="123" y="89" on="1"/>
        <pt x="61" y="0" on="1"/>
        <pt x="18" y="0" on="1"/>
        <pt x="104" y="123" on="1"/>
        <pt x="61" y="212" on="0"/>
        <pt x="61" y="344" on="1"/>
        <pt x="61" y="514" on="0"/>
        <pt x="183" y="705" on="0"/>
        <pt x="395" y="705" on="0"/>
        <pt x="451" y="617" on="1"/>
        <pt x="509" y="700" on="1"/>
        <pt x="549" y="700" on="1"/>
      </contour>
      <contour>
        <pt x="442" y="546" on="1"/>
        <pt x="147" y="124" on="1"/>
        <pt x="198" y="38" on="0"/>
        <pt x="290" y="38" on="1"/>
        <pt x="340" y="38" on="0"/>
        <pt x="414" y="90" on="0"/>
        <pt x="434" y="136" on="1"/>
        <pt x="472" y="222" on="0"/>
        <pt x="472" y="465" on="0"/>
      </contour>
      <contour>
        <pt x="426" y="581" on="1"/>
        <pt x="379" y="666" on="0"/>
        <pt x="202" y="666" on="0"/>
        <pt x="98" y="501" on="0"/>
        <pt x="98" y="347" on="1"/>
        <pt x="98" y="236" on="0"/>
        <pt x="130" y="159" on="1"/>
      </contour>
    </TTGlyph>
    <TTGlyph name="Otilde" xMin="49" yMin="0" xMax="497" yMax="834">
      <contour>
        <pt x="497" y="344" on="1"/>
        <pt x="497" y="179" on="0"/>
        <pt x="385" y="0" on="0"/>
        <pt x="173" y="0" on="0"/>
        <pt x="49" y="181" on="0"/>
        <pt x="49" y="514" on="0"/>
        <pt x="171" y="705" on="0"/>
        <pt x="280" y="705" on="1"/>
        <pt x="345" y="705" on="0"/>
        <pt x="436" y="638" on="0"/>
        <pt x="458" y="581" on="1"/>
        <pt x="497" y="476" on="0"/>
      </contour>
      <contour>
        <pt x="460" y="500" on="0"/>
        <pt x="366" y="666" on="0"/>
        <pt x="190" y="666" on="0"/>
        <pt x="86" y="501" on="0"/>
        <pt x="86" y="347" on="1"/>
        <pt x="86" y="168" on="0"/>
        <pt x="167" y="84" on="1"/>
        <pt x="212" y="38" on="0"/>
        <pt x="328" y="38" on="0"/>
        <pt x="402" y="90" on="0"/>
        <pt x="422" y="136" on="1"/>
        <pt x="460" y="222" on="0"/>
      </contour>
      <contour>
        <pt x="402" y="826" on="1"/>
        <pt x="402" y="789" on="1"/>
        <pt x="380" y="757" on="0"/>
        <pt x="315" y="757" on="0"/>
        <pt x="234" y="800" on="0"/>
        <pt x="208" y="800" on="1"/>
        <pt x="166" y="800" on="0"/>
        <pt x="142" y="768" on="1"/>
        <pt x="142" y="804" on="1"/>
        <pt x="148" y="817" on="0"/>
        <pt x="187" y="834" on="0"/>
        <pt x="235" y="834" on="0"/>
        <pt x="318" y="791" on="0"/>
        <pt x="342" y="791" on="1"/>
        <pt x="382" y="791" on="0"/>
      </contour>
    </TTGlyph>
    <TTGlyph name="P" xMin="76" yMin="0" xMax="434" yMax="701">
      <contour>
        <pt x="113" y="333" on="1"/>
        <pt x="123" y="332" on="1"/>
        <pt x="397" y="336" on="0"/>
        <pt x="397" y="497" on="1"/>
        <pt x="397" y="557" on="0"/>
        <pt x="342" y="604" on="1"/>
        <pt x="312" y="630" on="0"/>
        <pt x="195" y="662" on="0"/>
        <pt x="113" y="663" on="1"/>
      </contour>
      <contour>
        <pt x="113" y="296" on="1"/>
        <pt x="113" y="0" on="1"/>
        <pt x="76" y="0" on="1"/>
        <pt x="76" y="701" on="1"/>
        <pt x="251" y="700" on="0"/>
        <pt x="434" y="595" on="0"/>
        <pt x="434" y="500" on="1"/>
        <pt x="434" y="388" on="0"/>
        <pt x="346" y="344" on="1"/>
        <pt x="316" y="328" on="0"/>
        <pt x="270" y="312" on="0"/>
        <pt x="231" y="306" on="1"/>
        <pt x="182" y="300" on="0"/>
      </contour>
    </TTGlyph>
    <TTGlyph name="Q" xMin="49" yMin="-129" xMax="497" yMax="705">
      <contour>
        <pt x="495" y="-87" on="1"/>
        <pt x="495" y="-124" on="1"/>
        <pt x="475" y="-129" on="0"/>
        <pt x="457" y="-129" on="1"/>
        <pt x="420" y="-129" on="0"/>
        <pt x="337" y="-60" on="0"/>
        <pt x="315" y="9" on="1"/>
        <pt x="297" y="6" on="0"/>
        <pt x="277" y="6" on="1"/>
        <pt x="172" y="6" on="0"/>
        <pt x="49" y="182" on="0"/>
        <pt x="49" y="514" on="0"/>
        <pt x="171" y="705" on="0"/>
        <pt x="280" y="705" on="1"/>
        <pt x="345" y="705" on="0"/>
        <pt x="436" y="638" on="0"/>
        <pt x="458" y="581" on="1"/>
        <pt x="497" y="476" on="0"/>
        <pt x="497" y="344" on="1"/>
        <pt x="497" y="73" on="0"/>
        <pt x="350" y="18" on="1"/>
        <pt x="367" y="-30" on="0"/>
        <pt x="426" y="-92" on="0"/>
        <pt x="463" y="-92" on="1"/>
        <pt x="478" y="-92" on="0"/>
      </contour>
      <contour>
        <pt x="460" y="501" on="0"/>
        <pt x="366" y="668" on="0"/>
        <pt x="191" y="668" on="0"/>
        <pt x="86" y="501" on="0"/>
        <pt x="86" y="347" on="1"/>
        <pt x="86" y="171" on="0"/>
        <pt x="166" y="88" on="1"/>
        <pt x="211" y="43" on="0"/>
        <pt x="278" y="43" on="1"/>
        <pt x="328" y="43" on="0"/>
        <pt x="402" y="94" on="0"/>
        <pt x="422" y="138" on="1"/>
        <pt x="460" y="223" on="0"/>
      </contour>
    </TTGlyph>
    <TTGlyph name="R" xMin="76" yMin="0" xMax="434" yMax="701">
      <contour>
        <pt x="434" y="0" on="1"/>
        <pt x="389" y="0" on="1"/>
        <pt x="195" y="297" on="1"/>
        <pt x="158" y="292" on="0"/>
        <pt x="113" y="290" on="1"/>
        <pt x="113" y="0" on="1"/>
        <pt x="76" y="0" on="1"/>
        <pt x="76" y="701" on="1"/>
        <pt x="411" y="700" on="0"/>
        <pt x="411" y="500" on="1"/>
        <pt x="411" y="339" on="0"/>
        <pt x="235" y="303" on="1"/>
      </contour>
      <contour>
        <pt x="113" y="330" on="1"/>
        <pt x="123" y="329" on="1"/>
        <pt x="374" y="333" on="0"/>
        <pt x="374" y="497" on="1"/>
        <pt x="374" y="543" on="0"/>
        <pt x="331" y="604" on="0"/>
        <pt x="304" y="621" on="1"/>
        <pt x="240" y="661" on="0"/>
        <pt x="113" y="663" on="1"/>
      </contour>
    </TTGlyph>
    <TTGlyph name="S" xMin="37" yMin="-2" xMax="389" yMax="700">
      <contour>
        <pt x="307" y="106" on="1"/>
        <pt x="352" y="145" on="0"/>
        <pt x="352" y="257" on="0"/>
        <pt x="287" y="324" on="0"/>
        <pt x="195" y="357" on="0"/>
        <pt x="102" y="391" on="0"/>
        <pt x="37" y="460" on="0"/>
        <pt x="37" y="514" on="1"/>
        <pt x="37" y="608" on="0"/>
        <pt x="142" y="700" on="0"/>
        <pt x="288" y="700" on="0"/>
        <pt x="375" y="686" on="1"/>
        <pt x="375" y="649" on="1"/>
        <pt x="297" y="663" on="0"/>
        <pt x="161" y="663" on="0"/>
        <pt x="74" y="587" on="0"/>
        <pt x="74" y="518" on="1"/>
        <pt x="74" y="458" on="0"/>
        <pt x="136" y="428" on="1"/>
        <pt x="164" y="414" on="0"/>
        <pt x="231" y="390" on="0"/>
        <pt x="299" y="360" on="0"/>
        <pt x="354" y="319" on="0"/>
        <pt x="389" y="246" on="0"/>
        <pt x="389" y="149" on="0"/>
        <pt x="344" y="75" on="0"/>
        <pt x="278" y="33" on="0"/>
        <pt x="234" y="20" on="1"/>
        <pt x="163" y="-2" on="0"/>
        <pt x="74" y="-2" on="1"/>
        <pt x="49" y="-2" on="1"/>
        <pt x="49" y="35" on="1"/>
        <pt x="227" y="35" on="0"/>
      </contour>
    </TTGlyph>
    <TTGlyph name="Scaron" xMin="37" yMin="-2" xMax="389" yMax="887">
      <contour>
        <pt x="133" y="887" on="1"/>
        <pt x="210" y="805" on="1"/>
        <pt x="287" y="887" on="1"/>
        <pt x="316" y="887" on="1"/>
        <pt x="210" y="751" on="1"/>
        <pt x="104" y="887" on="1"/>
      </contour>
      <contour>
        <pt x="307" y="106" on="1"/>
        <pt x="352" y="145" on="0"/>
        <pt x="352" y="257" on="0"/>
        <pt x="287" y="324" on="0"/>
        <pt x="195" y="357" on="0"/>
        <pt x="102" y="391" on="0"/>
        <pt x="37" y="460" on="0"/>
        <pt x="37" y="514" on="1"/>
        <pt x="37" y="608" on="0"/>
        <pt x="142" y="700" on="0"/>
        <pt x="288" y="700" on="0"/>
        <pt x="375" y="686" on="1"/>
        <pt x="375" y="649" on="1"/>
        <pt x="297" y="663" on="0"/>
        <pt x="161" y="663" on="0"/>
        <pt x="74" y="587" on="0"/>
        <pt x="74" y="518" on="1"/>
        <pt x="74" y="458" on="0"/>
        <pt x="136" y="428" on="1"/>
        <pt x="164" y="414" on="0"/>
        <pt x="231" y="390" on="0"/>
        <pt x="299" y="360" on="0"/>
        <pt x="354" y="319" on="0"/>
        <pt x="389" y="246" on="0"/>
        <pt x="389" y="149" on="0"/>
        <pt x="344" y="75" on="0"/>
        <pt x="278" y="33" on="0"/>
        <pt x="234" y="20" on="1"/>
        <pt x="163" y="-2" on="0"/>
        <pt x="74" y="-2" on="1"/>
        <pt x="49" y="-2" on="1"/>
        <pt x="49" y="35" on="1"/>
        <pt x="227" y="35" on="0"/>
      </contour>
    </TTGlyph>
    <TTGlyph name="T" xMin="13" yMin="0" xMax="371" yMax="700">
      <contour>
        <pt x="210" y="0" on="1"/>
        <pt x="173" y="0" on="1"/>
        <pt x="173" y="663" on="1"/>
        <pt x="13" y="663" on="1"/>
        <pt x="13" y="700" on="1"/>
        <pt x="371" y="700" on="1"/>
        <pt x="371" y="663" on="1"/>
        <pt x="210" y="663" on="1"/>
      </contour>
    </TTGlyph>
    <TTGlyph name="Thorn" xMin="76" yMin="0" xMax="450" yMax="690">
      <contour>
        <pt x="331" y="548" on="0"/>
        <pt x="450" y="448" on="0"/>
        <pt x="450" y="263" on="0"/>
        <pt x="318" y="158" on="0"/>
        <pt x="214" y="158" on="1"/>
        <pt x="113" y="158" on="1"/>
        <pt x="113" y="0" on="1"/>
        <pt x="76" y="0" on="1"/>
        <pt x="76" y="690" on="1"/>
        <pt x="113" y="690" on="1"/>
        <pt x="113" y="548" on="1"/>
        <pt x="230" y="548" on="1"/>
      </contour>
      <contour>
        <pt x="304" y="195" on="0"/>
        <pt x="413" y="280" on="0"/>
        <pt x="413" y="429" on="0"/>
        <pt x="312" y="511" on="0"/>
        <pt x="226" y="511" on="1"/>
        <pt x="113" y="511" on="1"/>
        <pt x="113" y="195" on="1"/>
        <pt x="216" y="195" on="1"/>
      </contour>
    </TTGlyph>
    <TTGlyph name="U" xMin="71" yMin="-2" xMax="429" yMax="700">
      <contour>
        <pt x="429" y="127" on="0"/>
        <pt x="337" y="-2" on="0"/>
        <pt x="159" y="-2" on="0"/>
        <pt x="71" y="140" on="0"/>
        <pt x="71" y="242" on="1"/>
        <pt x="71" y="700" on="1"/>
        <pt x="108" y="700" on="1"/>
        <pt x="108" y="243" on="1"/>
        <pt x="108" y="141" on="0"/>
        <pt x="191" y="35" on="0"/>
        <pt x="310" y="35" on="0"/>
        <pt x="392" y="140" on="0"/>
        <pt x="392" y="243" on="1"/>
        <pt x="392" y="700" on="1"/>
        <pt x="429" y="700" on="1"/>
        <pt x="429" y="242" on="1"/>
      </contour>
    </TTGlyph>
    <TTGlyph name="Uacute" xMin="71" yMin="-2" xMax="429" yMax="900">
      <contour>
        <pt x="429" y="127" on="0"/>
        <pt x="337" y="-2" on="0"/>
        <pt x="159" y="-2" on="0"/>
        <pt x="71" y="140" on="0"/>
        <pt x="71" y="242" on="1"/>
        <pt x="71" y="700" on="1"/>
        <pt x="108" y="700" on="1"/>
        <pt x="108" y="243" on="1"/>
        <pt x="108" y="141" on="0"/>
        <pt x="191" y="35" on="0"/>
        <pt x="310" y="35" on="0"/>
        <pt x="392" y="140" on="0"/>
        <pt x="392" y="243" on="1"/>
        <pt x="392" y="700" on="1"/>
        <pt x="429" y="700" on="1"/>
        <pt x="429" y="242" on="1"/>
      </contour>
      <contour>
        <pt x="383" y="885" on="1"/>
        <pt x="269" y="764" on="1"/>
        <pt x="240" y="764" on="1"/>
        <pt x="346" y="900" on="1"/>
      </contour>
    </TTGlyph>
    <TTGlyph name="Ucircumflex" xMin="71" yMin="-2" xMax="429" yMax="892">
      <contour>
        <pt x="429" y="127" on="0"/>
        <pt x="337" y="-2" on="0"/>
        <pt x="159" y="-2" on="0"/>
        <pt x="71" y="140" on="0"/>
        <pt x="71" y="242" on="1"/>
        <pt x="71" y="700" on="1"/>
        <pt x="108" y="700" on="1"/>
        <pt x="108" y="243" on="1"/>
        <pt x="108" y="141" on="0"/>
        <pt x="191" y="35" on="0"/>
        <pt x="310" y="35" on="0"/>
        <pt x="392" y="140" on="0"/>
        <pt x="392" y="243" on="1"/>
        <pt x="392" y="700" on="1"/>
        <pt x="429" y="700" on="1"/>
        <pt x="429" y="242" on="1"/>
      </contour>
      <contour>
        <pt x="325" y="756" on="1"/>
        <pt x="248" y="837" on="1"/>
        <pt x="171" y="756" on="1"/>
        <pt x="142" y="756" on="1"/>
        <pt x="248" y="892" on="1"/>
        <pt x="354" y="756" on="1"/>
      </contour>
    </TTGlyph>
    <TTGlyph name="Udieresis" xMin="71" yMin="-2" xMax="429" yMax="830">
      <contour>
        <pt x="429" y="127" on="0"/>
        <pt x="337" y="-2" on="0"/>
        <pt x="159" y="-2" on="0"/>
        <pt x="71" y="140" on="0"/>
        <pt x="71" y="242" on="1"/>
        <pt x="71" y="700" on="1"/>
        <pt x="108" y="700" on="1"/>
        <pt x="108" y="243" on="1"/>
        <pt x="108" y="141" on="0"/>
        <pt x="191" y="35" on="0"/>
        <pt x="310" y="35" on="0"/>
        <pt x="392" y="140" on="0"/>
        <pt x="392" y="243" on="1"/>
        <pt x="392" y="700" on="1"/>
        <pt x="429" y="700" on="1"/>
        <pt x="429" y="242" on="1"/>
      </contour>
      <contour>
        <pt x="151" y="830" on="1"/>
        <pt x="189" y="830" on="1"/>
        <pt x="189" y="764" on="1"/>
        <pt x="151" y="764" on="1"/>
      </contour>
      <contour>
        <pt x="321" y="830" on="1"/>
        <pt x="359" y="830" on="1"/>
        <pt x="359" y="764" on="1"/>
        <pt x="321" y="764" on="1"/>
      </contour>
    </TTGlyph>
    <TTGlyph name="Ugrave" xMin="71" yMin="-2" xMax="429" yMax="900">
      <contour>
        <pt x="429" y="127" on="0"/>
        <pt x="337" y="-2" on="0"/>
        <pt x="159" y="-2" on="0"/>
        <pt x="71" y="140" on="0"/>
        <pt x="71" y="242" on="1"/>
        <pt x="71" y="700" on="1"/>
        <pt x="108" y="700" on="1"/>
        <pt x="108" y="243" on="1"/>
        <pt x="108" y="141" on="0"/>
        <pt x="191" y="35" on="0"/>
        <pt x="310" y="35" on="0"/>
        <pt x="392" y="140" on="0"/>
        <pt x="392" y="243" on="1"/>
        <pt x="392" y="700" on="1"/>
        <pt x="429" y="700" on="1"/>
        <pt x="429" y="242" on="1"/>
      </contour>
      <contour>
        <pt x="260" y="764" on="1"/>
        <pt x="146" y="885" on="1"/>
        <pt x="183" y="900" on="1"/>
        <pt x="289" y="764" on="1"/>
      </contour>
    </TTGlyph>
    <TTGlyph name="V" xMin="29" yMin="0" xMax="381" yMax="700">
      <contour>
        <pt x="180" y="0" on="1"/>
        <pt x="29" y="700" on="1"/>
        <pt x="66" y="700" on="1"/>
        <pt x="205" y="60" on="1"/>
        <pt x="344" y="700" on="1"/>
        <pt x="381" y="700" on="1"/>
        <pt x="232" y="0" on="1"/>
      </contour>
    </TTGlyph>
    <TTGlyph name="W" xMin="30" yMin="0" xMax="547" yMax="700">
      <contour>
        <pt x="179" y="60" on="1"/>
        <pt x="270" y="700" on="1"/>
        <pt x="307" y="700" on="1"/>
        <pt x="398" y="60" on="1"/>
        <pt x="510" y="700" on="1"/>
        <pt x="547" y="700" on="1"/>
        <pt x="426" y="0" on="1"/>
        <pt x="369" y="0" on="1"/>
        <pt x="288" y="544" on="1"/>
        <pt x="208" y="0" on="1"/>
        <pt x="151" y="0" on="1"/>
        <pt x="30" y="700" on="1"/>
        <pt x="67" y="700" on="1"/>
      </contour>
    </TTGlyph>
    <TTGlyph name="X" xMin="20" yMin="0" xMax="519" yMax="701">
      <contour>
        <pt x="505" y="700" on="1"/>
        <pt x="293" y="348" on="1"/>
        <pt x="293" y="305" on="1"/>
        <pt x="293" y="111" on="0"/>
        <pt x="340" y="60" on="1"/>
        <pt x="362" y="37" on="0"/>
        <pt x="396" y="37" on="1"/>
        <pt x="456" y="37" on="0"/>
        <pt x="519" y="104" on="1"/>
        <pt x="519" y="56" on="1"/>
        <pt x="460" y="0" on="0"/>
        <pt x="390" y="0" on="1"/>
        <pt x="301" y="0" on="0"/>
        <pt x="275" y="116" on="1"/>
        <pt x="260" y="182" on="0"/>
        <pt x="256" y="292" on="1"/>
        <pt x="65" y="0" on="1"/>
        <pt x="22" y="0" on="1"/>
        <pt x="251" y="356" on="1"/>
        <pt x="251" y="397" on="1"/>
        <pt x="251" y="539" on="0"/>
        <pt x="225" y="600" on="1"/>
        <pt x="214" y="626" on="0"/>
        <pt x="171" y="664" on="0"/>
        <pt x="141" y="664" on="1"/>
        <pt x="83" y="664" on="0"/>
        <pt x="20" y="597" on="1"/>
        <pt x="20" y="645" on="1"/>
        <pt x="80" y="701" on="0"/>
        <pt x="223" y="701" on="0"/>
        <pt x="284" y="558" on="0"/>
        <pt x="289" y="414" on="1"/>
        <pt x="468" y="700" on="1"/>
      </contour>
    </TTGlyph>
    <TTGlyph name="Y" xMin="47" yMin="-2" xMax="405" yMax="700">
      <contour>
        <pt x="78" y="100" on="1"/>
        <pt x="118" y="99" on="1"/>
        <pt x="153" y="35" on="0"/>
        <pt x="284" y="35" on="0"/>
        <pt x="368" y="140" on="0"/>
        <pt x="368" y="243" on="1"/>
        <pt x="368" y="329" on="1"/>
        <pt x="320" y="255" on="0"/>
        <pt x="135" y="255" on="0"/>
        <pt x="47" y="397" on="0"/>
        <pt x="47" y="499" on="1"/>
        <pt x="47" y="700" on="1"/>
        <pt x="84" y="700" on="1"/>
        <pt x="84" y="500" on="1"/>
        <pt x="84" y="397" on="0"/>
        <pt x="164" y="292" on="0"/>
        <pt x="275" y="292" on="0"/>
        <pt x="354" y="358" on="0"/>
        <pt x="368" y="423" on="1"/>
        <pt x="368" y="700" on="1"/>
        <pt x="405" y="700" on="1"/>
        <pt x="405" y="242" on="1"/>
        <pt x="405" y="128" on="0"/>
        <pt x="311" y="-2" on="0"/>
        <pt x="123" y="-2" on="0"/>
      </contour>
    </TTGlyph>
    <TTGlyph name="Yacute" xMin="47" yMin="-2" xMax="405" yMax="900">
      <contour>
        <pt x="78" y="100" on="1"/>
        <pt x="118" y="99" on="1"/>
        <pt x="153" y="35" on="0"/>
        <pt x="284" y="35" on="0"/>
        <pt x="368" y="140" on="0"/>
        <pt x="368" y="243" on="1"/>
        <pt x="368" y="329" on="1"/>
        <pt x="320" y="255" on="0"/>
        <pt x="135" y="255" on="0"/>
        <pt x="47" y="397" on="0"/>
        <pt x="47" y="499" on="1"/>
        <pt x="47" y="700" on="1"/>
        <pt x="84" y="700" on="1"/>
        <pt x="84" y="500" on="1"/>
        <pt x="84" y="397" on="0"/>
        <pt x="164" y="292" on="0"/>
        <pt x="275" y="292" on="0"/>
        <pt x="354" y="358" on="0"/>
        <pt x="368" y="423" on="1"/>
        <pt x="368" y="700" on="1"/>
        <pt x="405" y="700" on="1"/>
        <pt x="405" y="242" on="1"/>
        <pt x="405" y="128" on="0"/>
        <pt x="311" y="-2" on="0"/>
        <pt x="123" y="-2" on="0"/>
      </contour>
      <contour>
        <pt x="346" y="885" on="1"/>
        <pt x="232" y="764" on="1"/>
        <pt x="203" y="764" on="1"/>
        <pt x="309" y="900" on="1"/>
      </contour>
    </TTGlyph>
    <TTGlyph name="Ydieresis" xMin="47" yMin="-2" xMax="405" yMax="750">
      <contour>
        <pt x="133" y="750" on="1"/>
        <pt x="171" y="750" on="1"/>
        <pt x="171" y="684" on="1"/>
        <pt x="133" y="684" on="1"/>
      </contour>
      <contour>
        <pt x="283" y="750" on="1"/>
        <pt x="321" y="750" on="1"/>
        <pt x="321" y="684" on="1"/>
        <pt x="283" y="684" on="1"/>
      </contour>
      <contour>
        <pt x="78" y="100" on="1"/>
        <pt x="118" y="99" on="1"/>
        <pt x="153" y="35" on="0"/>
        <pt x="284" y="35" on="0"/>
        <pt x="368" y="140" on="0"/>
        <pt x="368" y="243" on="1"/>
        <pt x="368" y="329" on="1"/>
        <pt x="320" y="255" on="0"/>
        <pt x="135" y="255" on="0"/>
        <pt x="47" y="397" on="0"/>
        <pt x="47" y="499" on="1"/>
        <pt x="47" y="700" on="1"/>
        <pt x="84" y="700" on="1"/>
        <pt x="84" y="500" on="1"/>
        <pt x="84" y="397" on="0"/>
        <pt x="164" y="292" on="0"/>
        <pt x="275" y="292" on="0"/>
        <pt x="354" y="358" on="0"/>
        <pt x="368" y="423" on="1"/>
        <pt x="368" y="700" on="1"/>
        <pt x="405" y="700" on="1"/>
        <pt x="405" y="242" on="1"/>
        <pt x="405" y="128" on="0"/>
        <pt x="311" y="-2" on="0"/>
        <pt x="123" y="-2" on="0"/>
      </contour>
    </TTGlyph>
    <TTGlyph name="Z" xMin="10" yMin="0" xMax="368" yMax="700">
      <contour>
        <pt x="43" y="663" on="1"/>
        <pt x="43" y="700" on="1"/>
        <pt x="357" y="700" on="1"/>
        <pt x="67" y="37" on="1"/>
        <pt x="368" y="37" on="1"/>
        <pt x="368" y="0" on="1"/>
        <pt x="10" y="0" on="1"/>
        <pt x="301" y="663" on="1"/>
      </contour>
    </TTGlyph>
    <TTGlyph name="Zcaron" xMin="10" yMin="0" xMax="368" yMax="882">
      <contour>
        <pt x="145" y="882" on="1"/>
        <pt x="222" y="800" on="1"/>
        <pt x="299" y="882" on="1"/>
        <pt x="328" y="882" on="1"/>
        <pt x="222" y="746" on="1"/>
        <pt x="116" y="882" on="1"/>
      </contour>
      <contour>
        <pt x="43" y="663" on="1"/>
        <pt x="43" y="700" on="1"/>
        <pt x="357" y="700" on="1"/>
        <pt x="67" y="37" on="1"/>
        <pt x="368" y="37" on="1"/>
        <pt x="368" y="0" on="1"/>
        <pt x="10" y="0" on="1"/>
        <pt x="301" y="663" on="1"/>
      </contour>
    </TTGlyph>
    <TTGlyph name="a" xMin="41" yMin="-1" xMax="390" yMax="511">
      <contour>
        <pt x="353" y="500" on="1"/>
        <pt x="390" y="500" on="1"/>
        <pt x="390" y="-1" on="1"/>
        <pt x="330" y="-1" on="0"/>
        <pt x="240" y="9" on="0"/>
        <pt x="143" y="42" on="0"/>
        <pt x="81" y="98" on="0"/>
        <pt x="41" y="197" on="0"/>
        <pt x="41" y="321" on="0"/>
        <pt x="66" y="410" on="0"/>
        <pt x="105" y="463" on="0"/>
        <pt x="129" y="480" on="1"/>
        <pt x="171" y="511" on="0"/>
        <pt x="212" y="511" on="1"/>
        <pt x="287" y="511" on="0"/>
        <pt x="353" y="440" on="1"/>
      </contour>
      <contour>
        <pt x="78" y="264" on="1"/>
        <pt x="78" y="133" on="0"/>
        <pt x="159" y="82" on="1"/>
        <pt x="231" y="37" on="0"/>
        <pt x="353" y="37" on="1"/>
        <pt x="353" y="390" on="1"/>
        <pt x="319" y="429" on="0"/>
        <pt x="256" y="474" on="0"/>
        <pt x="218" y="474" on="1"/>
        <pt x="155" y="474" on="0"/>
        <pt x="78" y="363" on="0"/>
      </contour>
    </TTGlyph>
    <TTGlyph name="aacute" xMin="41" yMin="-1" xMax="390" yMax="700">
      <contour>
        <pt x="353" y="500" on="1"/>
        <pt x="390" y="500" on="1"/>
        <pt x="390" y="-1" on="1"/>
        <pt x="330" y="-1" on="0"/>
        <pt x="240" y="9" on="0"/>
        <pt x="143" y="42" on="0"/>
        <pt x="81" y="98" on="0"/>
        <pt x="41" y="197" on="0"/>
        <pt x="41" y="321" on="0"/>
        <pt x="66" y="410" on="0"/>
        <pt x="105" y="463" on="0"/>
        <pt x="129" y="480" on="1"/>
        <pt x="171" y="511" on="0"/>
        <pt x="212" y="511" on="1"/>
        <pt x="287" y="511" on="0"/>
        <pt x="353" y="440" on="1"/>
      </contour>
      <contour>
        <pt x="78" y="264" on="1"/>
        <pt x="78" y="133" on="0"/>
        <pt x="159" y="82" on="1"/>
        <pt x="231" y="37" on="0"/>
        <pt x="353" y="37" on="1"/>
        <pt x="353" y="390" on="1"/>
        <pt x="319" y="429" on="0"/>
        <pt x="256" y="474" on="0"/>
        <pt x="218" y="474" on="1"/>
        <pt x="155" y="474" on="0"/>
        <pt x="78" y="363" on="0"/>
      </contour>
      <contour>
        <pt x="335" y="685" on="1"/>
        <pt x="221" y="564" on="1"/>
        <pt x="192" y="564" on="1"/>
        <pt x="298" y="700" on="1"/>
      </contour>
    </TTGlyph>
    <TTGlyph name="acircumflex" xMin="41" yMin="-1" xMax="390" yMax="692">
      <contour>
        <pt x="353" y="500" on="1"/>
        <pt x="390" y="500" on="1"/>
        <pt x="390" y="-1" on="1"/>
        <pt x="330" y="-1" on="0"/>
        <pt x="240" y="9" on="0"/>
        <pt x="143" y="42" on="0"/>
        <pt x="81" y="98" on="0"/>
        <pt x="41" y="197" on="0"/>
        <pt x="41" y="321" on="0"/>
        <pt x="66" y="410" on="0"/>
        <pt x="105" y="463" on="0"/>
        <pt x="129" y="480" on="1"/>
        <pt x="171" y="511" on="0"/>
        <pt x="212" y="511" on="1"/>
        <pt x="287" y="511" on="0"/>
        <pt x="353" y="440" on="1"/>
      </contour>
      <contour>
        <pt x="78" y="264" on="1"/>
        <pt x="78" y="133" on="0"/>
        <pt x="159" y="82" on="1"/>
        <pt x="231" y="37" on="0"/>
        <pt x="353" y="37" on="1"/>
        <pt x="353" y="390" on="1"/>
        <pt x="319" y="429" on="0"/>
        <pt x="256" y="474" on="0"/>
        <pt x="218" y="474" on="1"/>
        <pt x="155" y="474" on="0"/>
        <pt x="78" y="363" on="0"/>
      </contour>
      <contour>
        <pt x="296" y="556" on="1"/>
        <pt x="219" y="637" on="1"/>
        <pt x="142" y="556" on="1"/>
        <pt x="113" y="556" on="1"/>
        <pt x="219" y="692" on="1"/>
        <pt x="325" y="556" on="1"/>
      </contour>
    </TTGlyph>
    <TTGlyph name="acute" xMin="392" yMin="564" xMax="535" yMax="700">
      <contour>
        <pt x="535" y="685" on="1"/>
        <pt x="421" y="564" on="1"/>
        <pt x="392" y="564" on="1"/>
        <pt x="498" y="700" on="1"/>
      </contour>
    </TTGlyph>
    <TTGlyph name="adieresis" xMin="41" yMin="-1" xMax="390" yMax="630">
      <contour>
        <pt x="353" y="500" on="1"/>
        <pt x="390" y="500" on="1"/>
        <pt x="390" y="-1" on="1"/>
        <pt x="330" y="-1" on="0"/>
        <pt x="240" y="9" on="0"/>
        <pt x="143" y="42" on="0"/>
        <pt x="81" y="98" on="0"/>
        <pt x="41" y="197" on="0"/>
        <pt x="41" y="321" on="0"/>
        <pt x="66" y="410" on="0"/>
        <pt x="105" y="463" on="0"/>
        <pt x="129" y="480" on="1"/>
        <pt x="171" y="511" on="0"/>
        <pt x="212" y="511" on="1"/>
        <pt x="287" y="511" on="0"/>
        <pt x="353" y="440" on="1"/>
      </contour>
      <contour>
        <pt x="78" y="264" on="1"/>
        <pt x="78" y="133" on="0"/>
        <pt x="159" y="82" on="1"/>
        <pt x="231" y="37" on="0"/>
        <pt x="353" y="37" on="1"/>
        <pt x="353" y="390" on="1"/>
        <pt x="319" y="429" on="0"/>
        <pt x="256" y="474" on="0"/>
        <pt x="218" y="474" on="1"/>
        <pt x="155" y="474" on="0"/>
        <pt x="78" y="363" on="0"/>
      </contour>
      <contour>
        <pt x="115" y="630" on="1"/>
        <pt x="153" y="630" on="1"/>
        <pt x="153" y="564" on="1"/>
        <pt x="115" y="564" on="1"/>
      </contour>
      <contour>
        <pt x="285" y="630" on="1"/>
        <pt x="323" y="630" on="1"/>
        <pt x="323" y="564" on="1"/>
        <pt x="285" y="564" on="1"/>
      </contour>
    </TTGlyph>
    <TTGlyph name="ae" xMin="41" yMin="-1" xMax="705" yMax="511">
      <contour>
        <pt x="705" y="36" on="1"/>
        <pt x="705" y="-1" on="1"/>
        <pt x="591" y="0" on="0"/>
        <pt x="432" y="46" on="0"/>
        <pt x="390" y="111" on="1"/>
        <pt x="390" y="-1" on="1"/>
        <pt x="330" y="-1" on="0"/>
        <pt x="240" y="9" on="0"/>
        <pt x="143" y="42" on="0"/>
        <pt x="81" y="98" on="0"/>
        <pt x="41" y="197" on="0"/>
        <pt x="41" y="321" on="0"/>
        <pt x="66" y="410" on="0"/>
        <pt x="105" y="463" on="0"/>
        <pt x="129" y="480" on="1"/>
        <pt x="171" y="511" on="0"/>
        <pt x="212" y="511" on="1"/>
        <pt x="287" y="511" on="0"/>
        <pt x="353" y="440" on="1"/>
        <pt x="353" y="500" on="1"/>
        <pt x="390" y="500" on="1"/>
        <pt x="390" y="425" on="1"/>
        <pt x="417" y="469" on="0"/>
        <pt x="491" y="510" on="0"/>
        <pt x="523" y="510" on="1"/>
        <pt x="608" y="510" on="0"/>
        <pt x="703" y="410" on="0"/>
        <pt x="703" y="328" on="1"/>
        <pt x="703" y="273" on="0"/>
        <pt x="702" y="264" on="1"/>
        <pt x="390" y="264" on="1"/>
        <pt x="390" y="238" on="1"/>
        <pt x="397" y="124" on="0"/>
        <pt x="551" y="36" on="0"/>
      </contour>
      <contour>
        <pt x="78" y="264" on="1"/>
        <pt x="78" y="133" on="0"/>
        <pt x="159" y="82" on="1"/>
        <pt x="231" y="37" on="0"/>
        <pt x="353" y="37" on="1"/>
        <pt x="353" y="390" on="1"/>
        <pt x="319" y="429" on="0"/>
        <pt x="256" y="474" on="0"/>
        <pt x="218" y="474" on="1"/>
        <pt x="155" y="474" on="0"/>
        <pt x="78" y="363" on="0"/>
      </contour>
      <contour>
        <pt x="666" y="301" on="1"/>
        <pt x="666" y="323" on="1"/>
        <pt x="666" y="389" on="0"/>
        <pt x="591" y="473" on="0"/>
        <pt x="468" y="473" on="0"/>
        <pt x="397" y="376" on="0"/>
        <pt x="390" y="301" on="1"/>
      </contour>
    </TTGlyph>
    <TTGlyph name="agrave" xMin="41" yMin="-1" xMax="390" yMax="700">
      <contour>
        <pt x="353" y="500" on="1"/>
        <pt x="390" y="500" on="1"/>
        <pt x="390" y="-1" on="1"/>
        <pt x="330" y="-1" on="0"/>
        <pt x="240" y="9" on="0"/>
        <pt x="143" y="42" on="0"/>
        <pt x="81" y="98" on="0"/>
        <pt x="41" y="197" on="0"/>
        <pt x="41" y="321" on="0"/>
        <pt x="66" y="410" on="0"/>
        <pt x="105" y="463" on="0"/>
        <pt x="129" y="480" on="1"/>
        <pt x="171" y="511" on="0"/>
        <pt x="212" y="511" on="1"/>
        <pt x="287" y="511" on="0"/>
        <pt x="353" y="440" on="1"/>
      </contour>
      <contour>
        <pt x="78" y="264" on="1"/>
        <pt x="78" y="133" on="0"/>
        <pt x="159" y="82" on="1"/>
        <pt x="231" y="37" on="0"/>
        <pt x="353" y="37" on="1"/>
        <pt x="353" y="390" on="1"/>
        <pt x="319" y="429" on="0"/>
        <pt x="256" y="474" on="0"/>
        <pt x="218" y="474" on="1"/>
        <pt x="155" y="474" on="0"/>
        <pt x="78" y="363" on="0"/>
      </contour>
      <contour>
        <pt x="230" y="564" on="1"/>
        <pt x="116" y="685" on="1"/>
        <pt x="153" y="700" on="1"/>
        <pt x="259" y="564" on="1"/>
      </contour>
    </TTGlyph>
    <TTGlyph name="ampersand" xMin="37" yMin="0" xMax="484" yMax="689">
      <contour>
        <pt x="447" y="299" on="1"/>
        <pt x="484" y="299" on="1"/>
        <pt x="435" y="179" on="0"/>
        <pt x="397" y="117" on="1"/>
        <pt x="473" y="0" on="1"/>
        <pt x="431" y="0" on="1"/>
        <pt x="375" y="85" on="1"/>
        <pt x="314" y="0" on="0"/>
        <pt x="239" y="0" on="1"/>
        <pt x="146" y="0" on="0"/>
        <pt x="37" y="128" on="0"/>
        <pt x="37" y="279" on="0"/>
        <pt x="114" y="390" on="0"/>
        <pt x="169" y="403" on="1"/>
        <pt x="118" y="486" on="0"/>
        <pt x="118" y="608" on="0"/>
        <pt x="195" y="689" on="0"/>
        <pt x="256" y="689" on="1"/>
        <pt x="300" y="689" on="0"/>
        <pt x="366" y="624" on="0"/>
        <pt x="367" y="569" on="1"/>
        <pt x="330" y="569" on="1"/>
        <pt x="328" y="608" on="0"/>
        <pt x="281" y="648" on="0"/>
        <pt x="216" y="648" on="0"/>
        <pt x="158" y="601" on="0"/>
        <pt x="158" y="558" on="1"/>
        <pt x="158" y="492" on="0"/>
        <pt x="231" y="377" on="1"/>
        <pt x="376" y="150" on="1"/>
        <pt x="406" y="200" on="0"/>
      </contour>
      <contour>
        <pt x="145" y="362" on="0"/>
        <pt x="73" y="273" on="0"/>
        <pt x="73" y="148" on="0"/>
        <pt x="169" y="37" on="0"/>
        <pt x="298" y="37" on="0"/>
        <pt x="355" y="117" on="1"/>
        <pt x="192" y="367" on="1"/>
      </contour>
    </TTGlyph>
    <TTGlyph name="aring" xMin="41" yMin="-1" xMax="390" yMax="722">
      <contour>
        <pt x="267" y="564" on="0"/>
        <pt x="201" y="564" on="0"/>
        <pt x="155" y="610" on="0"/>
        <pt x="155" y="677" on="0"/>
        <pt x="201" y="722" on="0"/>
        <pt x="267" y="722" on="0"/>
        <pt x="313" y="677" on="0"/>
        <pt x="313" y="610" on="0"/>
      </contour>
      <contour>
        <pt x="285" y="666" on="0"/>
        <pt x="256" y="694" on="0"/>
        <pt x="212" y="694" on="0"/>
        <pt x="183" y="666" on="0"/>
        <pt x="183" y="623" on="0"/>
        <pt x="212" y="592" on="0"/>
        <pt x="258" y="592" on="0"/>
        <pt x="285" y="622" on="0"/>
      </contour>
      <contour>
        <pt x="353" y="500" on="1"/>
        <pt x="390" y="500" on="1"/>
        <pt x="390" y="-1" on="1"/>
        <pt x="330" y="-1" on="0"/>
        <pt x="240" y="9" on="0"/>
        <pt x="143" y="42" on="0"/>
        <pt x="81" y="98" on="0"/>
        <pt x="41" y="197" on="0"/>
        <pt x="41" y="321" on="0"/>
        <pt x="66" y="410" on="0"/>
        <pt x="105" y="463" on="0"/>
        <pt x="129" y="480" on="1"/>
        <pt x="171" y="511" on="0"/>
        <pt x="212" y="511" on="1"/>
        <pt x="287" y="511" on="0"/>
        <pt x="353" y="440" on="1"/>
      </contour>
      <contour>
        <pt x="78" y="264" on="1"/>
        <pt x="78" y="133" on="0"/>
        <pt x="159" y="82" on="1"/>
        <pt x="231" y="37" on="0"/>
        <pt x="353" y="37" on="1"/>
        <pt x="353" y="390" on="1"/>
        <pt x="319" y="429" on="0"/>
        <pt x="256" y="474" on="0"/>
        <pt x="218" y="474" on="1"/>
        <pt x="155" y="474" on="0"/>
        <pt x="78" y="363" on="0"/>
      </contour>
    </TTGlyph>
    <TTGlyph name="asciicircum" xMin="42" yMin="536" xMax="274" yMax="692">
      <contour>
        <pt x="245" y="536" on="1"/>
        <pt x="158" y="635" on="1"/>
        <pt x="71" y="536" on="1"/>
        <pt x="42" y="536" on="1"/>
        <pt x="158" y="692" on="1"/>
        <pt x="274" y="536" on="1"/>
      </contour>
    </TTGlyph>
    <TTGlyph name="asciitilde" xMin="55" yMin="231" xMax="315" yMax="308">
      <contour>
        <pt x="315" y="300" on="1"/>
        <pt x="315" y="263" on="1"/>
        <pt x="293" y="231" on="0"/>
        <pt x="228" y="231" on="0"/>
        <pt x="147" y="274" on="0"/>
        <pt x="121" y="274" on="1"/>
        <pt x="79" y="274" on="0"/>
        <pt x="55" y="242" on="1"/>
        <pt x="55" y="278" on="1"/>
        <pt x="62" y="291" on="0"/>
        <pt x="100" y="308" on="0"/>
        <pt x="148" y="308" on="0"/>
        <pt x="231" y="265" on="0"/>
        <pt x="255" y="265" on="1"/>
        <pt x="295" y="265" on="0"/>
      </contour>
    </TTGlyph>
    <TTGlyph name="asterisk" xMin="54" yMin="250" xMax="431" yMax="650">
      <contour>
        <pt x="217" y="450" on="1"/>
        <pt x="54" y="601" on="1"/>
        <pt x="105" y="601" on="1"/>
        <pt x="225" y="490" on="1"/>
        <pt x="225" y="650" on="1"/>
        <pt x="262" y="650" on="1"/>
        <pt x="262" y="492" on="1"/>
        <pt x="380" y="601" on="1"/>
        <pt x="431" y="601" on="1"/>
        <pt x="268" y="450" on="1"/>
        <pt x="431" y="300" on="1"/>
        <pt x="380" y="300" on="1"/>
        <pt x="262" y="409" on="1"/>
        <pt x="262" y="250" on="1"/>
        <pt x="225" y="250" on="1"/>
        <pt x="225" y="411" on="1"/>
        <pt x="105" y="300" on="1"/>
        <pt x="54" y="300" on="1"/>
      </contour>
    </TTGlyph>
    <TTGlyph name="at" xMin="47" yMin="-126" xMax="710" yMax="626">
      <contour>
        <pt x="471" y="459" on="1"/>
        <pt x="505" y="459" on="1"/>
        <pt x="505" y="45" on="1"/>
        <pt x="505" y="43" on="0"/>
        <pt x="540" y="55" on="0"/>
        <pt x="589" y="88" on="0"/>
        <pt x="638" y="141" on="0"/>
        <pt x="673" y="240" on="0"/>
        <pt x="673" y="302" on="1"/>
        <pt x="673" y="430" on="0"/>
        <pt x="522" y="589" on="0"/>
        <pt x="393" y="589" on="1"/>
        <pt x="269" y="589" on="0"/>
        <pt x="180" y="507" on="1"/>
        <pt x="136" y="467" on="0"/>
        <pt x="84" y="337" on="0"/>
        <pt x="84" y="256" on="1"/>
        <pt x="84" y="93" on="0"/>
        <pt x="294" y="-87" on="0"/>
        <pt x="450" y="-89" on="1"/>
        <pt x="450" y="-126" on="1"/>
        <pt x="351" y="-126" on="0"/>
        <pt x="194" y="-62" on="0"/>
        <pt x="146" y="-8" on="1"/>
        <pt x="47" y="103" on="0"/>
        <pt x="47" y="263" on="1"/>
        <pt x="47" y="351" on="0"/>
        <pt x="105" y="493" on="0"/>
        <pt x="154" y="536" on="1"/>
        <pt x="255" y="626" on="0"/>
        <pt x="385" y="626" on="1"/>
        <pt x="465" y="626" on="0"/>
        <pt x="587" y="575" on="0"/>
        <pt x="654" y="503" on="0"/>
        <pt x="676" y="456" on="1"/>
        <pt x="710" y="381" on="0"/>
        <pt x="710" y="303" on="1"/>
        <pt x="710" y="176" on="0"/>
        <pt x="575" y="4" on="0"/>
        <pt x="326" y="4" on="0"/>
        <pt x="190" y="129" on="0"/>
        <pt x="190" y="248" on="1"/>
        <pt x="190" y="310" on="0"/>
        <pt x="224" y="402" on="0"/>
        <pt x="250" y="425" on="1"/>
        <pt x="298" y="469" on="0"/>
        <pt x="344" y="469" on="1"/>
        <pt x="412" y="469" on="0"/>
        <pt x="471" y="405" on="1"/>
      </contour>
      <contour>
        <pt x="224" y="247" on="1"/>
        <pt x="224" y="132" on="0"/>
        <pt x="352" y="36" on="0"/>
        <pt x="471" y="36" on="1"/>
        <pt x="471" y="360" on="1"/>
        <pt x="405" y="436" on="0"/>
        <pt x="294" y="436" on="0"/>
        <pt x="224" y="336" on="0"/>
      </contour>
    </TTGlyph>
    <TTGlyph name="atilde" xMin="41" yMin="-1" xMax="390" yMax="634">
      <contour>
        <pt x="353" y="500" on="1"/>
        <pt x="390" y="500" on="1"/>
        <pt x="390" y="-1" on="1"/>
        <pt x="330" y="-1" on="0"/>
        <pt x="240" y="9" on="0"/>
        <pt x="143" y="42" on="0"/>
        <pt x="81" y="98" on="0"/>
        <pt x="41" y="197" on="0"/>
        <pt x="41" y="321" on="0"/>
        <pt x="66" y="410" on="0"/>
        <pt x="105" y="463" on="0"/>
        <pt x="129" y="480" on="1"/>
        <pt x="171" y="511" on="0"/>
        <pt x="212" y="511" on="1"/>
        <pt x="287" y="511" on="0"/>
        <pt x="353" y="440" on="1"/>
      </contour>
      <contour>
        <pt x="78" y="264" on="1"/>
        <pt x="78" y="133" on="0"/>
        <pt x="159" y="82" on="1"/>
        <pt x="231" y="37" on="0"/>
        <pt x="353" y="37" on="1"/>
        <pt x="353" y="390" on="1"/>
        <pt x="319" y="429" on="0"/>
        <pt x="256" y="474" on="0"/>
        <pt x="218" y="474" on="1"/>
        <pt x="155" y="474" on="0"/>
        <pt x="78" y="363" on="0"/>
      </contour>
      <contour>
        <pt x="350" y="626" on="1"/>
        <pt x="350" y="589" on="1"/>
        <pt x="328" y="557" on="0"/>
        <pt x="263" y="557" on="0"/>
        <pt x="182" y="600" on="0"/>
        <pt x="156" y="600" on="1"/>
        <pt x="114" y="600" on="0"/>
        <pt x="90" y="568" on="1"/>
        <pt x="90" y="604" on="1"/>
        <pt x="96" y="617" on="0"/>
        <pt x="135" y="634" on="0"/>
        <pt x="183" y="634" on="0"/>
        <pt x="266" y="591" on="0"/>
        <pt x="290" y="591" on="1"/>
        <pt x="330" y="591" on="0"/>
      </contour>
    </TTGlyph>
    <TTGlyph name="b" xMin="70" yMin="-1" xMax="419" yMax="750">
      <contour>
        <pt x="70" y="750" on="1"/>
        <pt x="107" y="750" on="1"/>
        <pt x="107" y="440" on="1"/>
        <pt x="171" y="511" on="0"/>
        <pt x="243" y="511" on="1"/>
        <pt x="298" y="511" on="0"/>
        <pt x="353" y="462" on="1"/>
        <pt x="382" y="437" on="0"/>
        <pt x="419" y="335" on="0"/>
        <pt x="419" y="198" on="0"/>
        <pt x="379" y="98" on="0"/>
        <pt x="317" y="42" on="0"/>
        <pt x="220" y="9" on="0"/>
        <pt x="130" y="-1" on="0"/>
        <pt x="70" y="-1" on="1"/>
      </contour>
      <contour>
        <pt x="382" y="258" on="1"/>
        <pt x="382" y="360" on="0"/>
        <pt x="304" y="474" on="0"/>
        <pt x="180" y="474" on="0"/>
        <pt x="107" y="390" on="1"/>
        <pt x="107" y="37" on="1"/>
        <pt x="382" y="37" on="0"/>
      </contour>
    </TTGlyph>
    <TTGlyph name="backslash" xMin="23" yMin="-100" xMax="544" yMax="700">
      <contour>
        <pt x="500" y="-100" on="1"/>
        <pt x="23" y="700" on="1"/>
        <pt x="67" y="700" on="1"/>
        <pt x="544" y="-100" on="1"/>
      </contour>
    </TTGlyph>
    <TTGlyph name="bar" xMin="74" yMin="-191" xMax="111" yMax="716">
      <contour>
        <pt x="111" y="-191" on="1"/>
        <pt x="74" y="-191" on="1"/>
        <pt x="74" y="716" on="1"/>
        <pt x="111" y="716" on="1"/>
      </contour>
    </TTGlyph>
    <TTGlyph name="braceleft" xMin="12" yMin="-100" xMax="318" yMax="700">
      <contour>
        <pt x="150" y="170" on="1"/>
        <pt x="138" y="31" on="1"/>
        <pt x="138" y="-13" on="0"/>
        <pt x="190" y="-63" on="0"/>
        <pt x="241" y="-63" on="1"/>
        <pt x="318" y="-63" on="1"/>
        <pt x="318" y="-100" on="1"/>
        <pt x="244" y="-100" on="1"/>
        <pt x="101" y="-100" on="0"/>
        <pt x="101" y="32" on="1"/>
        <pt x="101" y="55" on="0"/>
        <pt x="113" y="146" on="0"/>
        <pt x="113" y="171" on="1"/>
        <pt x="113" y="276" on="0"/>
        <pt x="13" y="281" on="1"/>
        <pt x="12" y="318" on="1"/>
        <pt x="113" y="323" on="0"/>
        <pt x="113" y="428" on="1"/>
        <pt x="113" y="452" on="0"/>
        <pt x="101" y="543" on="0"/>
        <pt x="101" y="566" on="1"/>
        <pt x="101" y="700" on="0"/>
        <pt x="244" y="700" on="1"/>
        <pt x="318" y="700" on="1"/>
        <pt x="318" y="663" on="1"/>
        <pt x="242" y="663" on="1"/>
        <pt x="193" y="663" on="0"/>
        <pt x="138" y="611" on="0"/>
        <pt x="138" y="567" on="1"/>
        <pt x="150" y="429" on="1"/>
        <pt x="150" y="370" on="0"/>
        <pt x="105" y="311" on="0"/>
        <pt x="58" y="299" on="1"/>
        <pt x="105" y="287" on="0"/>
        <pt x="150" y="230" on="0"/>
      </contour>
    </TTGlyph>
    <TTGlyph name="braceright" xMin="24" yMin="-100" xMax="330" yMax="700">
      <contour>
        <pt x="192" y="429" on="1"/>
        <pt x="204" y="567" on="1"/>
        <pt x="204" y="611" on="0"/>
        <pt x="149" y="663" on="0"/>
        <pt x="100" y="663" on="1"/>
        <pt x="24" y="663" on="1"/>
        <pt x="24" y="700" on="1"/>
        <pt x="98" y="700" on="1"/>
        <pt x="241" y="700" on="0"/>
        <pt x="241" y="566" on="1"/>
        <pt x="241" y="543" on="0"/>
        <pt x="229" y="452" on="0"/>
        <pt x="229" y="428" on="1"/>
        <pt x="229" y="323" on="0"/>
        <pt x="330" y="318" on="1"/>
        <pt x="329" y="281" on="1"/>
        <pt x="229" y="276" on="0"/>
        <pt x="229" y="171" on="1"/>
        <pt x="229" y="146" on="0"/>
        <pt x="241" y="55" on="0"/>
        <pt x="241" y="32" on="1"/>
        <pt x="241" y="-100" on="0"/>
        <pt x="98" y="-100" on="1"/>
        <pt x="24" y="-100" on="1"/>
        <pt x="24" y="-63" on="1"/>
        <pt x="101" y="-63" on="1"/>
        <pt x="152" y="-63" on="0"/>
        <pt x="204" y="-13" on="0"/>
        <pt x="204" y="31" on="1"/>
        <pt x="192" y="170" on="1"/>
        <pt x="192" y="230" on="0"/>
        <pt x="237" y="287" on="0"/>
        <pt x="284" y="299" on="1"/>
        <pt x="237" y="311" on="0"/>
        <pt x="192" y="370" on="0"/>
      </contour>
    </TTGlyph>
    <TTGlyph name="bracketleft" xMin="76" yMin="-100" xMax="309" yMax="700">
      <contour>
        <pt x="309" y="-100" on="1"/>
        <pt x="76" y="-100" on="1"/>
        <pt x="76" y="700" on="1"/>
        <pt x="309" y="700" on="1"/>
        <pt x="309" y="663" on="1"/>
        <pt x="113" y="663" on="1"/>
        <pt x="113" y="-63" on="1"/>
        <pt x="309" y="-63" on="1"/>
      </contour>
    </TTGlyph>
    <TTGlyph name="bracketright" xMin="24" yMin="-100" xMax="257" yMax="700">
      <contour>
        <pt x="257" y="-100" on="1"/>
        <pt x="24" y="-100" on="1"/>
        <pt x="24" y="-63" on="1"/>
        <pt x="220" y="-63" on="1"/>
        <pt x="220" y="663" on="1"/>
        <pt x="24" y="663" on="1"/>
        <pt x="24" y="700" on="1"/>
        <pt x="257" y="700" on="1"/>
      </contour>
    </TTGlyph>
    <TTGlyph name="brokenbar" xMin="77" yMin="-191" xMax="114" yMax="716">
      <contour>
        <pt x="114" y="365" on="1"/>
        <pt x="77" y="365" on="1"/>
        <pt x="77" y="716" on="1"/>
        <pt x="114" y="716" on="1"/>
      </contour>
      <contour>
        <pt x="77" y="160" on="1"/>
        <pt x="114" y="160" on="1"/>
        <pt x="114" y="-191" on="1"/>
        <pt x="77" y="-191" on="1"/>
      </contour>
    </TTGlyph>
    <TTGlyph name="bullet" xMin="49" yMin="210" xMax="234" yMax="395">
      <contour>
        <pt x="49" y="263" on="0"/>
        <pt x="49" y="341" on="0"/>
        <pt x="102" y="395" on="0"/>
        <pt x="179" y="395" on="0"/>
        <pt x="234" y="340" on="0"/>
        <pt x="234" y="263" on="0"/>
        <pt x="180" y="210" on="0"/>
        <pt x="102" y="210" on="0"/>
      </contour>
    </TTGlyph>
    <TTGlyph name="c" xMin="41" yMin="-1" xMax="391" yMax="510">
      <contour>
        <pt x="390" y="399" on="1"/>
        <pt x="352" y="400" on="1"/>
        <pt x="336" y="433" on="0"/>
        <pt x="260" y="473" on="0"/>
        <pt x="218" y="473" on="1"/>
        <pt x="150" y="473" on="0"/>
        <pt x="78" y="352" on="0"/>
        <pt x="78" y="264" on="1"/>
        <pt x="78" y="135" on="0"/>
        <pt x="230" y="36" on="0"/>
        <pt x="391" y="36" on="1"/>
        <pt x="391" y="-1" on="1"/>
        <pt x="331" y="-1" on="0"/>
        <pt x="241" y="9" on="0"/>
        <pt x="143" y="42" on="0"/>
        <pt x="81" y="98" on="0"/>
        <pt x="41" y="197" on="0"/>
        <pt x="41" y="334" on="0"/>
        <pt x="78" y="436" on="0"/>
        <pt x="106" y="462" on="1"/>
        <pt x="161" y="510" on="0"/>
        <pt x="277" y="510" on="0"/>
        <pt x="373" y="450" on="0"/>
      </contour>
    </TTGlyph>
    <TTGlyph name="ccedilla" xMin="41" yMin="-206" xMax="391" yMax="510">
      <contour>
        <pt x="390" y="399" on="1"/>
        <pt x="352" y="400" on="1"/>
        <pt x="336" y="433" on="0"/>
        <pt x="260" y="473" on="0"/>
        <pt x="218" y="473" on="1"/>
        <pt x="150" y="473" on="0"/>
        <pt x="78" y="352" on="0"/>
        <pt x="78" y="264" on="1"/>
        <pt x="78" y="135" on="0"/>
        <pt x="230" y="36" on="0"/>
        <pt x="391" y="36" on="1"/>
        <pt x="391" y="-1" on="1"/>
        <pt x="320" y="-1" on="0"/>
        <pt x="268" y="7" on="1"/>
        <pt x="273" y="-19" on="0"/>
        <pt x="312" y="-43" on="0"/>
        <pt x="352" y="-48" on="0"/>
        <pt x="384" y="-82" on="0"/>
        <pt x="384" y="-118" on="1"/>
        <pt x="384" y="-206" on="0"/>
        <pt x="246" y="-206" on="1"/>
        <pt x="223" y="-206" on="0"/>
        <pt x="212" y="-205" on="1"/>
        <pt x="210" y="-172" on="1"/>
        <pt x="220" y="-173" on="0"/>
        <pt x="241" y="-173" on="1"/>
        <pt x="351" y="-173" on="0"/>
        <pt x="351" y="-118" on="1"/>
        <pt x="351" y="-78" on="0"/>
        <pt x="289" y="-68" on="1"/>
        <pt x="266" y="-65" on="0"/>
        <pt x="226" y="-24" on="0"/>
        <pt x="226" y="15" on="1"/>
        <pt x="41" y="60" on="0"/>
        <pt x="41" y="265" on="1"/>
        <pt x="41" y="334" on="0"/>
        <pt x="78" y="436" on="0"/>
        <pt x="106" y="462" on="1"/>
        <pt x="161" y="510" on="0"/>
        <pt x="277" y="510" on="0"/>
        <pt x="373" y="450" on="0"/>
      </contour>
    </TTGlyph>
    <TTGlyph name="cedilla" xMin="106" yMin="-221" xMax="280" yMax="0">
      <contour>
        <pt x="122" y="0" on="1"/>
        <pt x="163" y="0" on="1"/>
        <pt x="165" y="-25" on="0"/>
        <pt x="192" y="-51" on="0"/>
        <pt x="225" y="-60" on="0"/>
        <pt x="242" y="-65" on="1"/>
        <pt x="280" y="-77" on="0"/>
        <pt x="280" y="-133" on="1"/>
        <pt x="280" y="-221" on="0"/>
        <pt x="142" y="-221" on="1"/>
        <pt x="119" y="-221" on="0"/>
        <pt x="108" y="-220" on="1"/>
        <pt x="106" y="-187" on="1"/>
        <pt x="116" y="-188" on="0"/>
        <pt x="137" y="-188" on="1"/>
        <pt x="247" y="-188" on="0"/>
        <pt x="247" y="-133" on="1"/>
        <pt x="247" y="-93" on="0"/>
        <pt x="185" y="-84" on="1"/>
        <pt x="162" y="-80" on="0"/>
        <pt x="122" y="-39" on="0"/>
      </contour>
    </TTGlyph>
    <TTGlyph name="cent" xMin="47" yMin="0" xMax="397" yMax="690">
      <contour>
        <pt x="256" y="0" on="1"/>
        <pt x="219" y="0" on="1"/>
        <pt x="219" y="108" on="1"/>
        <pt x="47" y="156" on="0"/>
        <pt x="47" y="355" on="1"/>
        <pt x="47" y="411" on="0"/>
        <pt x="73" y="500" on="0"/>
        <pt x="111" y="552" on="0"/>
        <pt x="136" y="570" on="1"/>
        <pt x="178" y="600" on="0"/>
        <pt x="219" y="600" on="1"/>
        <pt x="219" y="690" on="1"/>
        <pt x="256" y="690" on="1"/>
        <pt x="256" y="597" on="1"/>
        <pt x="307" y="589" on="0"/>
        <pt x="381" y="532" on="0"/>
        <pt x="396" y="489" on="1"/>
        <pt x="358" y="489" on="1"/>
        <pt x="329" y="545" on="0"/>
        <pt x="256" y="560" on="1"/>
        <pt x="256" y="137" on="1"/>
        <pt x="311" y="126" on="0"/>
        <pt x="397" y="126" on="1"/>
        <pt x="397" y="89" on="1"/>
        <pt x="316" y="89" on="0"/>
        <pt x="256" y="100" on="1"/>
      </contour>
      <contour>
        <pt x="84" y="354" on="1"/>
        <pt x="84" y="189" on="0"/>
        <pt x="219" y="147" on="1"/>
        <pt x="219" y="563" on="1"/>
        <pt x="153" y="560" on="0"/>
        <pt x="84" y="441" on="0"/>
      </contour>
    </TTGlyph>
    <TTGlyph name="circumflex" xMin="81" yMin="556" xMax="293" yMax="692">
      <contour>
        <pt x="264" y="556" on="1"/>
        <pt x="187" y="637" on="1"/>
        <pt x="110" y="556" on="1"/>
        <pt x="81" y="556" on="1"/>
        <pt x="187" y="692" on="1"/>
        <pt x="293" y="556" on="1"/>
      </contour>
    </TTGlyph>
    <TTGlyph name="colon" xMin="58" yMin="0" xMax="135" yMax="505">
      <contour>
        <pt x="135" y="0" on="1"/>
        <pt x="58" y="0" on="1"/>
        <pt x="58" y="95" on="1"/>
        <pt x="135" y="95" on="1"/>
      </contour>
      <contour>
        <pt x="135" y="410" on="1"/>
        <pt x="58" y="410" on="1"/>
        <pt x="58" y="505" on="1"/>
        <pt x="135" y="505" on="1"/>
      </contour>
    </TTGlyph>
    <TTGlyph name="comma" xMin="-9" yMin="-111" xMax="150" yMax="98">
      <contour>
        <pt x="150" y="98" on="1"/>
        <pt x="41" y="-111" on="1"/>
        <pt x="-9" y="-111" on="1"/>
        <pt x="75" y="98" on="1"/>
      </contour>
    </TTGlyph>
    <TTGlyph name="copyright" xMin="39" yMin="267" xMax="473" yMax="701">
      <contour>
        <pt x="347" y="267" on="0"/>
        <pt x="165" y="267" on="0"/>
        <pt x="39" y="393" on="0"/>
        <pt x="39" y="578" on="0"/>
        <pt x="165" y="701" on="0"/>
        <pt x="348" y="701" on="0"/>
        <pt x="473" y="578" on="0"/>
        <pt x="473" y="393" on="0"/>
      </contour>
      <contour>
        <pt x="436" y="568" on="0"/>
        <pt x="338" y="664" on="0"/>
        <pt x="175" y="664" on="0"/>
        <pt x="76" y="567" on="0"/>
        <pt x="76" y="411" on="0"/>
        <pt x="175" y="304" on="0"/>
        <pt x="342" y="304" on="0"/>
        <pt x="436" y="408" on="0"/>
      </contour>
      <contour>
        <pt x="351" y="548" on="1"/>
        <pt x="315" y="549" on="1"/>
        <pt x="298" y="580" on="0"/>
        <pt x="210" y="580" on="0"/>
        <pt x="178" y="534" on="0"/>
        <pt x="178" y="459" on="0"/>
        <pt x="191" y="423" on="0"/>
        <pt x="209" y="403" on="0"/>
        <pt x="230" y="398" on="1"/>
        <pt x="260" y="392" on="0"/>
        <pt x="322" y="392" on="1"/>
        <pt x="352" y="392" on="1"/>
        <pt x="352" y="358" on="1"/>
        <pt x="327" y="358" on="1"/>
        <pt x="208" y="358" on="0"/>
        <pt x="178" y="386" on="1"/>
        <pt x="142" y="419" on="0"/>
        <pt x="142" y="488" on="1"/>
        <pt x="142" y="615" on="0"/>
        <pt x="245" y="615" on="1"/>
        <pt x="284" y="615" on="0"/>
        <pt x="341" y="579" on="0"/>
      </contour>
    </TTGlyph>
    <TTGlyph name="currency" xMin="34" yMin="1" xMax="534" yMax="500">
      <contour>
        <pt x="534" y="500" on="1"/>
        <pt x="432" y="387" on="1"/>
        <pt x="484" y="332" on="0"/>
        <pt x="484" y="172" on="0"/>
        <pt x="432" y="113" on="1"/>
        <pt x="534" y="1" on="1"/>
        <pt x="483" y="1" on="1"/>
        <pt x="404" y="88" on="1"/>
        <pt x="351" y="49" on="0"/>
        <pt x="217" y="49" on="0"/>
        <pt x="163" y="87" on="1"/>
        <pt x="85" y="1" on="1"/>
        <pt x="34" y="1" on="1"/>
        <pt x="135" y="113" on="1"/>
        <pt x="82" y="169" on="0"/>
        <pt x="82" y="332" on="0"/>
        <pt x="135" y="388" on="1"/>
        <pt x="34" y="500" on="1"/>
        <pt x="85" y="500" on="1"/>
        <pt x="163" y="413" on="1"/>
        <pt x="217" y="451" on="0"/>
        <pt x="351" y="451" on="0"/>
        <pt x="404" y="412" on="1"/>
        <pt x="483" y="500" on="1"/>
      </contour>
      <contour>
        <pt x="447" y="322" on="0"/>
        <pt x="352" y="414" on="0"/>
        <pt x="214" y="414" on="0"/>
        <pt x="119" y="321" on="0"/>
        <pt x="119" y="188" on="0"/>
        <pt x="214" y="86" on="0"/>
        <pt x="355" y="86" on="0"/>
        <pt x="447" y="186" on="0"/>
      </contour>
    </TTGlyph>
    <TTGlyph name="d" xMin="41" yMin="-1" xMax="390" yMax="750">
      <contour>
        <pt x="353" y="750" on="1"/>
        <pt x="390" y="750" on="1"/>
        <pt x="390" y="-1" on="1"/>
        <pt x="330" y="-1" on="0"/>
        <pt x="240" y="9" on="0"/>
        <pt x="143" y="42" on="0"/>
        <pt x="81" y="98" on="0"/>
        <pt x="41" y="197" on="0"/>
        <pt x="41" y="321" on="0"/>
        <pt x="66" y="410" on="0"/>
        <pt x="105" y="463" on="0"/>
        <pt x="129" y="480" on="1"/>
        <pt x="171" y="511" on="0"/>
        <pt x="212" y="511" on="1"/>
        <pt x="287" y="511" on="0"/>
        <pt x="353" y="440" on="1"/>
      </contour>
      <contour>
        <pt x="159" y="474" on="0"/>
        <pt x="78" y="348" on="0"/>
        <pt x="78" y="199" on="0"/>
        <pt x="120" y="107" on="0"/>
        <pt x="159" y="82" on="1"/>
        <pt x="231" y="37" on="0"/>
        <pt x="353" y="37" on="1"/>
        <pt x="353" y="390" on="1"/>
        <pt x="319" y="429" on="0"/>
        <pt x="256" y="474" on="0"/>
        <pt x="218" y="474" on="1"/>
      </contour>
    </TTGlyph>
    <TTGlyph name="dagger" xMin="33" yMin="-191" xMax="273" yMax="716">
      <contour>
        <pt x="172" y="-191" on="1"/>
        <pt x="135" y="-191" on="1"/>
        <pt x="135" y="263" on="1"/>
        <pt x="33" y="263" on="1"/>
        <pt x="33" y="300" on="1"/>
        <pt x="135" y="300" on="1"/>
        <pt x="135" y="716" on="1"/>
        <pt x="172" y="716" on="1"/>
        <pt x="172" y="300" on="1"/>
        <pt x="273" y="300" on="1"/>
        <pt x="273" y="263" on="1"/>
        <pt x="172" y="263" on="1"/>
      </contour>
    </TTGlyph>
    <TTGlyph name="daggerdbl" xMin="35" yMin="-191" xMax="490" yMax="716">
      <contour>
        <pt x="281" y="-191" on="1"/>
        <pt x="244" y="-191" on="1"/>
        <pt x="244" y="158" on="1"/>
        <pt x="35" y="158" on="1"/>
        <pt x="35" y="195" on="1"/>
        <pt x="244" y="195" on="1"/>
        <pt x="244" y="375" on="1"/>
        <pt x="35" y="375" on="1"/>
        <pt x="35" y="412" on="1"/>
        <pt x="244" y="412" on="1"/>
        <pt x="244" y="716" on="1"/>
        <pt x="281" y="716" on="1"/>
        <pt x="281" y="412" on="1"/>
        <pt x="490" y="412" on="1"/>
        <pt x="490" y="375" on="1"/>
        <pt x="281" y="375" on="1"/>
        <pt x="281" y="195" on="1"/>
        <pt x="490" y="195" on="1"/>
        <pt x="490" y="158" on="1"/>
        <pt x="281" y="158" on="1"/>
      </contour>
    </TTGlyph>
    <TTGlyph name="degree" xMin="36" yMin="431" xMax="304" yMax="699">
      <contour>
        <pt x="226" y="431" on="0"/>
        <pt x="114" y="431" on="0"/>
        <pt x="36" y="509" on="0"/>
        <pt x="36" y="623" on="0"/>
        <pt x="114" y="699" on="0"/>
        <pt x="227" y="699" on="0"/>
        <pt x="304" y="623" on="0"/>
        <pt x="304" y="508" on="0"/>
      </contour>
      <contour>
        <pt x="267" y="609" on="0"/>
        <pt x="212" y="662" on="0"/>
        <pt x="129" y="662" on="0"/>
        <pt x="73" y="608" on="0"/>
        <pt x="73" y="527" on="0"/>
        <pt x="128" y="468" on="0"/>
        <pt x="214" y="468" on="0"/>
        <pt x="267" y="526" on="0"/>
      </contour>
    </TTGlyph>
    <TTGlyph name="dieresis" xMin="140" yMin="564" xMax="348" yMax="630">
      <contour>
        <pt x="140" y="630" on="1"/>
        <pt x="178" y="630" on="1"/>
        <pt x="178" y="564" on="1"/>
        <pt x="140" y="564" on="1"/>
      </contour>
      <contour>
        <pt x="310" y="630" on="1"/>
        <pt x="348" y="630" on="1"/>
        <pt x="348" y="564" on="1"/>
        <pt x="310" y="564" on="1"/>
      </contour>
    </TTGlyph>
    <TTGlyph name="divide" xMin="51" yMin="0" xMax="384" yMax="505">
      <contour>
        <pt x="384" y="229" on="1"/>
        <pt x="51" y="229" on="1"/>
        <pt x="51" y="266" on="1"/>
        <pt x="384" y="266" on="1"/>
      </contour>
      <contour>
        <pt x="271" y="0" on="1"/>
        <pt x="194" y="0" on="1"/>
        <pt x="194" y="95" on="1"/>
        <pt x="271" y="95" on="1"/>
      </contour>
      <contour>
        <pt x="271" y="410" on="1"/>
        <pt x="194" y="410" on="1"/>
        <pt x="194" y="505" on="1"/>
        <pt x="271" y="505" on="1"/>
      </contour>
    </TTGlyph>
    <TTGlyph name="dollar" xMin="36" yMin="-90" xMax="388" yMax="790">
      <contour>
        <pt x="240" y="-90" on="1"/>
        <pt x="203" y="-90" on="1"/>
        <pt x="203" y="11" on="1"/>
        <pt x="143" y="-2" on="0"/>
        <pt x="73" y="-2" on="1"/>
        <pt x="48" y="-2" on="1"/>
        <pt x="48" y="35" on="1"/>
        <pt x="138" y="35" on="0"/>
        <pt x="203" y="53" on="1"/>
        <pt x="203" y="353" on="1"/>
        <pt x="95" y="392" on="0"/>
        <pt x="70" y="420" on="1"/>
        <pt x="36" y="459" on="0"/>
        <pt x="36" y="509" on="1"/>
        <pt x="36" y="514" on="1"/>
        <pt x="36" y="592" on="0"/>
        <pt x="136" y="694" on="0"/>
        <pt x="203" y="699" on="1"/>
        <pt x="203" y="790" on="1"/>
        <pt x="240" y="790" on="1"/>
        <pt x="240" y="699" on="1"/>
        <pt x="302" y="697" on="0"/>
        <pt x="374" y="686" on="1"/>
        <pt x="374" y="650" on="1"/>
        <pt x="309" y="660" on="0"/>
        <pt x="240" y="663" on="1"/>
        <pt x="240" y="385" on="1"/>
        <pt x="349" y="342" on="0"/>
        <pt x="376" y="270" on="1"/>
        <pt x="388" y="239" on="0"/>
        <pt x="388" y="197" on="1"/>
        <pt x="388" y="70" on="0"/>
        <pt x="240" y="21" on="1"/>
      </contour>
      <contour>
        <pt x="113" y="442" on="1"/>
        <pt x="142" y="422" on="0"/>
        <pt x="203" y="399" on="1"/>
        <pt x="203" y="662" on="1"/>
        <pt x="149" y="656" on="0"/>
        <pt x="72" y="577" on="0"/>
        <pt x="72" y="469" on="0"/>
      </contour>
      <contour>
        <pt x="351" y="195" on="1"/>
        <pt x="351" y="205" on="1"/>
        <pt x="351" y="257" on="0"/>
        <pt x="293" y="317" on="0"/>
        <pt x="240" y="339" on="1"/>
        <pt x="240" y="64" on="1"/>
        <pt x="351" y="106" on="0"/>
      </contour>
    </TTGlyph>
    <TTGlyph name="e" xMin="40" yMin="-1" xMax="393" yMax="510">
      <contour>
        <pt x="393" y="36" on="1"/>
        <pt x="393" y="-1" on="1"/>
        <pt x="333" y="-1" on="0"/>
        <pt x="242" y="9" on="0"/>
        <pt x="144" y="42" on="0"/>
        <pt x="81" y="98" on="0"/>
        <pt x="40" y="197" on="0"/>
        <pt x="40" y="334" on="0"/>
        <pt x="77" y="436" on="0"/>
        <pt x="106" y="462" on="1"/>
        <pt x="160" y="510" on="0"/>
        <pt x="211" y="510" on="1"/>
        <pt x="296" y="510" on="0"/>
        <pt x="391" y="410" on="0"/>
        <pt x="391" y="328" on="1"/>
        <pt x="391" y="273" on="0"/>
        <pt x="390" y="264" on="1"/>
        <pt x="77" y="264" on="1"/>
        <pt x="77" y="135" on="0"/>
        <pt x="231" y="36" on="0"/>
      </contour>
      <contour>
        <pt x="354" y="301" on="1"/>
        <pt x="354" y="323" on="1"/>
        <pt x="354" y="389" on="0"/>
        <pt x="279" y="473" on="0"/>
        <pt x="156" y="473" on="0"/>
        <pt x="85" y="376" on="0"/>
        <pt x="78" y="301" on="1"/>
      </contour>
    </TTGlyph>
    <TTGlyph name="eacute" xMin="40" yMin="-1" xMax="393" yMax="700">
      <contour>
        <pt x="393" y="36" on="1"/>
        <pt x="393" y="-1" on="1"/>
        <pt x="333" y="-1" on="0"/>
        <pt x="242" y="9" on="0"/>
        <pt x="144" y="42" on="0"/>
        <pt x="81" y="98" on="0"/>
        <pt x="40" y="197" on="0"/>
        <pt x="40" y="334" on="0"/>
        <pt x="77" y="436" on="0"/>
        <pt x="106" y="462" on="1"/>
        <pt x="160" y="510" on="0"/>
        <pt x="211" y="510" on="1"/>
        <pt x="296" y="510" on="0"/>
        <pt x="391" y="410" on="0"/>
        <pt x="391" y="328" on="1"/>
        <pt x="391" y="273" on="0"/>
        <pt x="390" y="264" on="1"/>
        <pt x="77" y="264" on="1"/>
        <pt x="77" y="135" on="0"/>
        <pt x="231" y="36" on="0"/>
      </contour>
      <contour>
        <pt x="354" y="301" on="1"/>
        <pt x="354" y="323" on="1"/>
        <pt x="354" y="389" on="0"/>
        <pt x="279" y="473" on="0"/>
        <pt x="156" y="473" on="0"/>
        <pt x="85" y="376" on="0"/>
        <pt x="78" y="301" on="1"/>
      </contour>
      <contour>
        <pt x="340" y="685" on="1"/>
        <pt x="226" y="564" on="1"/>
        <pt x="197" y="564" on="1"/>
        <pt x="303" y="700" on="1"/>
      </contour>
    </TTGlyph>
    <TTGlyph name="ecircumflex" xMin="40" yMin="-1" xMax="393" yMax="692">
      <contour>
        <pt x="393" y="36" on="1"/>
        <pt x="393" y="-1" on="1"/>
        <pt x="333" y="-1" on="0"/>
        <pt x="242" y="9" on="0"/>
        <pt x="144" y="42" on="0"/>
        <pt x="81" y="98" on="0"/>
        <pt x="40" y="197" on="0"/>
        <pt x="40" y="334" on="0"/>
        <pt x="77" y="436" on="0"/>
        <pt x="106" y="462" on="1"/>
        <pt x="160" y="510" on="0"/>
        <pt x="211" y="510" on="1"/>
        <pt x="296" y="510" on="0"/>
        <pt x="391" y="410" on="0"/>
        <pt x="391" y="328" on="1"/>
        <pt x="391" y="273" on="0"/>
        <pt x="390" y="264" on="1"/>
        <pt x="77" y="264" on="1"/>
        <pt x="77" y="135" on="0"/>
        <pt x="231" y="36" on="0"/>
      </contour>
      <contour>
        <pt x="354" y="301" on="1"/>
        <pt x="354" y="323" on="1"/>
        <pt x="354" y="389" on="0"/>
        <pt x="279" y="473" on="0"/>
        <pt x="156" y="473" on="0"/>
        <pt x="85" y="376" on="0"/>
        <pt x="78" y="301" on="1"/>
      </contour>
      <contour>
        <pt x="308" y="556" on="1"/>
        <pt x="231" y="637" on="1"/>
        <pt x="154" y="556" on="1"/>
        <pt x="125" y="556" on="1"/>
        <pt x="231" y="692" on="1"/>
        <pt x="337" y="556" on="1"/>
      </contour>
    </TTGlyph>
    <TTGlyph name="edieresis" xMin="40" yMin="-1" xMax="393" yMax="630">
      <contour>
        <pt x="393" y="36" on="1"/>
        <pt x="393" y="-1" on="1"/>
        <pt x="333" y="-1" on="0"/>
        <pt x="242" y="9" on="0"/>
        <pt x="144" y="42" on="0"/>
        <pt x="81" y="98" on="0"/>
        <pt x="40" y="197" on="0"/>
        <pt x="40" y="334" on="0"/>
        <pt x="77" y="436" on="0"/>
        <pt x="106" y="462" on="1"/>
        <pt x="160" y="510" on="0"/>
        <pt x="211" y="510" on="1"/>
        <pt x="296" y="510" on="0"/>
        <pt x="391" y="410" on="0"/>
        <pt x="391" y="328" on="1"/>
        <pt x="391" y="273" on="0"/>
        <pt x="390" y="264" on="1"/>
        <pt x="77" y="264" on="1"/>
        <pt x="77" y="135" on="0"/>
        <pt x="231" y="36" on="0"/>
      </contour>
      <contour>
        <pt x="354" y="301" on="1"/>
        <pt x="354" y="323" on="1"/>
        <pt x="354" y="389" on="0"/>
        <pt x="279" y="473" on="0"/>
        <pt x="156" y="473" on="0"/>
        <pt x="85" y="376" on="0"/>
        <pt x="78" y="301" on="1"/>
      </contour>
      <contour>
        <pt x="121" y="630" on="1"/>
        <pt x="159" y="630" on="1"/>
        <pt x="159" y="564" on="1"/>
        <pt x="121" y="564" on="1"/>
      </contour>
      <contour>
        <pt x="291" y="630" on="1"/>
        <pt x="329" y="630" on="1"/>
        <pt x="329" y="564" on="1"/>
        <pt x="291" y="564" on="1"/>
      </contour>
    </TTGlyph>
    <TTGlyph name="egrave" xMin="40" yMin="-1" xMax="393" yMax="700">
      <contour>
        <pt x="393" y="36" on="1"/>
        <pt x="393" y="-1" on="1"/>
        <pt x="333" y="-1" on="0"/>
        <pt x="242" y="9" on="0"/>
        <pt x="144" y="42" on="0"/>
        <pt x="81" y="98" on="0"/>
        <pt x="40" y="197" on="0"/>
        <pt x="40" y="334" on="0"/>
        <pt x="77" y="436" on="0"/>
        <pt x="106" y="462" on="1"/>
        <pt x="160" y="510" on="0"/>
        <pt x="211" y="510" on="1"/>
        <pt x="296" y="510" on="0"/>
        <pt x="391" y="410" on="0"/>
        <pt x="391" y="328" on="1"/>
        <pt x="391" y="273" on="0"/>
        <pt x="390" y="264" on="1"/>
        <pt x="77" y="264" on="1"/>
        <pt x="77" y="135" on="0"/>
        <pt x="231" y="36" on="0"/>
      </contour>
      <contour>
        <pt x="354" y="301" on="1"/>
        <pt x="354" y="323" on="1"/>
        <pt x="354" y="389" on="0"/>
        <pt x="279" y="473" on="0"/>
        <pt x="156" y="473" on="0"/>
        <pt x="85" y="376" on="0"/>
        <pt x="78" y="301" on="1"/>
      </contour>
      <contour>
        <pt x="223" y="564" on="1"/>
        <pt x="109" y="685" on="1"/>
        <pt x="146" y="700" on="1"/>
        <pt x="252" y="564" on="1"/>
      </contour>
    </TTGlyph>
    <TTGlyph name="eight" xMin="46" yMin="-1" xMax="444" yMax="704">
      <contour>
        <pt x="330" y="-1" on="0"/>
        <pt x="160" y="-1" on="0"/>
        <pt x="46" y="117" on="0"/>
        <pt x="46" y="205" on="1"/>
        <pt x="46" y="266" on="0"/>
        <pt x="105" y="365" on="0"/>
        <pt x="156" y="389" on="1"/>
        <pt x="120" y="411" on="0"/>
        <pt x="77" y="489" on="0"/>
        <pt x="77" y="535" on="1"/>
        <pt x="77" y="607" on="0"/>
        <pt x="177" y="704" on="0"/>
        <pt x="320" y="704" on="0"/>
        <pt x="418" y="607" on="0"/>
        <pt x="418" y="535" on="1"/>
        <pt x="418" y="437" on="0"/>
        <pt x="336" y="388" on="1"/>
        <pt x="387" y="363" on="0"/>
        <pt x="444" y="267" on="0"/>
        <pt x="444" y="205" on="1"/>
        <pt x="444" y="117" on="0"/>
      </contour>
      <contour>
        <pt x="407" y="273" on="0"/>
        <pt x="312" y="366" on="0"/>
        <pt x="179" y="366" on="0"/>
        <pt x="83" y="272" on="0"/>
        <pt x="83" y="142" on="0"/>
        <pt x="178" y="36" on="0"/>
        <pt x="315" y="36" on="0"/>
        <pt x="407" y="141" on="0"/>
      </contour>
      <contour>
        <pt x="381" y="589" on="0"/>
        <pt x="301" y="667" on="0"/>
        <pt x="195" y="667" on="0"/>
        <pt x="114" y="588" on="0"/>
        <pt x="114" y="487" on="0"/>
        <pt x="194" y="406" on="0"/>
        <pt x="304" y="406" on="0"/>
        <pt x="381" y="485" on="0"/>
      </contour>
    </TTGlyph>
    <TTGlyph name="ellipsis" xMin="53" yMin="0" xMax="422" yMax="66">
      <contour>
        <pt x="53" y="66" on="1"/>
        <pt x="100" y="66" on="1"/>
        <pt x="100" y="0" on="1"/>
        <pt x="53" y="0" on="1"/>
      </contour>
      <contour>
        <pt x="214" y="66" on="1"/>
        <pt x="261" y="66" on="1"/>
        <pt x="261" y="0" on="1"/>
        <pt x="214" y="0" on="1"/>
      </contour>
      <contour>
        <pt x="375" y="66" on="1"/>
        <pt x="422" y="66" on="1"/>
        <pt x="422" y="0" on="1"/>
        <pt x="375" y="0" on="1"/>
      </contour>
    </TTGlyph>
    <TTGlyph name="emdash" xMin="52" yMin="260" xMax="518" yMax="297">
      <contour>
        <pt x="518" y="260" on="1"/>
        <pt x="52" y="260" on="1"/>
        <pt x="52" y="297" on="1"/>
        <pt x="518" y="297" on="1"/>
      </contour>
    </TTGlyph>
    <TTGlyph name="endash" xMin="52" yMin="263" xMax="401" yMax="300">
      <contour>
        <pt x="401" y="263" on="1"/>
        <pt x="52" y="263" on="1"/>
        <pt x="52" y="300" on="1"/>
        <pt x="401" y="300" on="1"/>
      </contour>
    </TTGlyph>
    <TTGlyph name="equal" xMin="63" yMin="208" xMax="518" yMax="432">
      <contour>
        <pt x="518" y="395" on="1"/>
        <pt x="63" y="395" on="1"/>
        <pt x="63" y="432" on="1"/>
        <pt x="518" y="432" on="1"/>
      </contour>
      <contour>
        <pt x="518" y="208" on="1"/>
        <pt x="63" y="208" on="1"/>
        <pt x="63" y="245" on="1"/>
        <pt x="518" y="245" on="1"/>
      </contour>
    </TTGlyph>
    <TTGlyph name="eth" xMin="41" yMin="7" xMax="410" yMax="717">
      <contour>
        <pt x="307" y="550" on="0"/>
        <pt x="410" y="356" on="0"/>
        <pt x="410" y="201" on="0"/>
        <pt x="384" y="98" on="0"/>
        <pt x="345" y="42" on="0"/>
        <pt x="318" y="25" on="1"/>
        <pt x="250" y="-19" on="0"/>
        <pt x="169" y="7" on="1"/>
        <pt x="141" y="16" on="0"/>
        <pt x="79" y="63" on="0"/>
        <pt x="41" y="165" on="0"/>
        <pt x="41" y="239" on="1"/>
        <pt x="41" y="359" on="0"/>
        <pt x="137" y="510" on="0"/>
        <pt x="226" y="510" on="1"/>
        <pt x="264" y="510" on="0"/>
        <pt x="295" y="496" on="1"/>
        <pt x="244" y="562" on="0"/>
        <pt x="192" y="607" on="1"/>
        <pt x="111" y="571" on="1"/>
        <pt x="92" y="599" on="1"/>
        <pt x="163" y="631" on="1"/>
        <pt x="114" y="669" on="0"/>
        <pt x="64" y="685" on="1"/>
        <pt x="76" y="717" on="1"/>
        <pt x="138" y="696" on="0"/>
        <pt x="199" y="647" on="1"/>
        <pt x="280" y="683" on="1"/>
        <pt x="298" y="655" on="1"/>
        <pt x="227" y="623" on="1"/>
      </contour>
      <contour>
        <pt x="226" y="34" on="1"/>
        <pt x="373" y="48" on="0"/>
        <pt x="373" y="264" on="1"/>
        <pt x="373" y="353" on="0"/>
        <pt x="301" y="473" on="0"/>
        <pt x="222" y="473" on="1"/>
        <pt x="183" y="473" on="0"/>
        <pt x="125" y="433" on="0"/>
        <pt x="109" y="398" on="1"/>
        <pt x="78" y="332" on="0"/>
        <pt x="78" y="153" on="0"/>
        <pt x="150" y="40" on="0"/>
      </contour>
    </TTGlyph>
    <TTGlyph name="exclam" xMin="81" yMin="0" xMax="119" yMax="750">
      <contour>
        <pt x="81" y="66" on="1"/>
        <pt x="119" y="66" on="1"/>
        <pt x="119" y="0" on="1"/>
        <pt x="81" y="0" on="1"/>
      </contour>
      <contour>
        <pt x="118" y="200" on="1"/>
        <pt x="81" y="200" on="1"/>
        <pt x="81" y="750" on="1"/>
        <pt x="118" y="750" on="1"/>
      </contour>
    </TTGlyph>
    <TTGlyph name="exclamdown" xMin="81" yMin="0" xMax="119" yMax="750">
      <contour>
        <pt x="119" y="684" on="1"/>
        <pt x="81" y="684" on="1"/>
        <pt x="81" y="750" on="1"/>
        <pt x="119" y="750" on="1"/>
      </contour>
      <contour>
        <pt x="81" y="550" on="1"/>
        <pt x="118" y="550" on="1"/>
        <pt x="118" y="0" on="1"/>
        <pt x="81" y="0" on="1"/>
      </contour>
    </TTGlyph>
    <TTGlyph name="f" xMin="39" yMin="0" xMax="273" yMax="751">
      <contour>
        <pt x="212" y="500" on="1"/>
        <pt x="212" y="463" on="1"/>
        <pt x="116" y="463" on="1"/>
        <pt x="116" y="0" on="1"/>
        <pt x="79" y="0" on="1"/>
        <pt x="79" y="463" on="1"/>
        <pt x="39" y="463" on="1"/>
        <pt x="39" y="500" on="1"/>
        <pt x="79" y="500" on="1"/>
        <pt x="79" y="505" on="1"/>
        <pt x="79" y="574" on="0"/>
        <pt x="113" y="677" on="0"/>
        <pt x="140" y="702" on="1"/>
        <pt x="190" y="751" on="0"/>
        <pt x="240" y="751" on="1"/>
        <pt x="265" y="751" on="0"/>
        <pt x="273" y="750" on="1"/>
        <pt x="273" y="713" on="1"/>
        <pt x="267" y="714" on="0"/>
        <pt x="246" y="714" on="1"/>
        <pt x="188" y="714" on="0"/>
        <pt x="116" y="590" on="0"/>
        <pt x="116" y="504" on="1"/>
        <pt x="116" y="500" on="1"/>
      </contour>
    </TTGlyph>
    <TTGlyph name="five" xMin="46" yMin="1" xMax="434" yMax="700">
      <contour>
        <pt x="67" y="339" on="1"/>
        <pt x="67" y="700" on="1"/>
        <pt x="395" y="700" on="1"/>
        <pt x="395" y="663" on="1"/>
        <pt x="101" y="663" on="1"/>
        <pt x="101" y="422" on="1"/>
        <pt x="151" y="458" on="0"/>
        <pt x="212" y="458" on="1"/>
        <pt x="321" y="458" on="0"/>
        <pt x="434" y="334" on="0"/>
        <pt x="434" y="150" on="0"/>
        <pt x="315" y="1" on="0"/>
        <pt x="221" y="1" on="1"/>
        <pt x="154" y="1" on="0"/>
        <pt x="49" y="78" on="0"/>
        <pt x="46" y="136" on="1"/>
        <pt x="83" y="136" on="1"/>
        <pt x="87" y="98" on="0"/>
        <pt x="166" y="41" on="0"/>
        <pt x="226" y="41" on="1"/>
        <pt x="302" y="41" on="0"/>
        <pt x="395" y="161" on="0"/>
        <pt x="395" y="315" on="0"/>
        <pt x="301" y="421" on="0"/>
        <pt x="211" y="421" on="1"/>
        <pt x="166" y="421" on="0"/>
        <pt x="88" y="375" on="0"/>
      </contour>
    </TTGlyph>
    <TTGlyph name="florin" xMin="-72" yMin="-129" xMax="274" yMax="751">
      <contour>
        <pt x="213" y="500" on="1"/>
        <pt x="213" y="463" on="1"/>
        <pt x="117" y="463" on="1"/>
        <pt x="117" y="74" on="1"/>
        <pt x="117" y="15" on="0"/>
        <pt x="83" y="-71" on="0"/>
        <pt x="57" y="-91" on="1"/>
        <pt x="8" y="-129" on="0"/>
        <pt x="-39" y="-129" on="1"/>
        <pt x="-64" y="-129" on="0"/>
        <pt x="-72" y="-128" on="1"/>
        <pt x="-72" y="-91" on="1"/>
        <pt x="-66" y="-92" on="0"/>
        <pt x="-45" y="-92" on="1"/>
        <pt x="19" y="-92" on="0"/>
        <pt x="80" y="0" on="0"/>
        <pt x="80" y="75" on="1"/>
        <pt x="80" y="463" on="1"/>
        <pt x="40" y="463" on="1"/>
        <pt x="40" y="500" on="1"/>
        <pt x="80" y="500" on="1"/>
        <pt x="80" y="505" on="1"/>
        <pt x="80" y="574" on="0"/>
        <pt x="114" y="677" on="0"/>
        <pt x="140" y="702" on="1"/>
        <pt x="191" y="751" on="0"/>
        <pt x="241" y="751" on="1"/>
        <pt x="266" y="751" on="0"/>
        <pt x="274" y="750" on="1"/>
        <pt x="274" y="713" on="1"/>
        <pt x="268" y="714" on="0"/>
        <pt x="247" y="714" on="1"/>
        <pt x="189" y="714" on="0"/>
        <pt x="117" y="590" on="0"/>
        <pt x="117" y="504" on="1"/>
        <pt x="117" y="500" on="1"/>
      </contour>
    </TTGlyph>
    <TTGlyph name="four" xMin="19" yMin="0" xMax="421" yMax="700">
      <contour>
        <pt x="349" y="0" on="1"/>
        <pt x="312" y="0" on="1"/>
        <pt x="312" y="160" on="1"/>
        <pt x="19" y="160" on="1"/>
        <pt x="19" y="197" on="1"/>
        <pt x="349" y="700" on="1"/>
        <pt x="349" y="197" on="1"/>
        <pt x="421" y="197" on="1"/>
        <pt x="421" y="160" on="1"/>
        <pt x="349" y="160" on="1"/>
      </contour>
      <contour>
        <pt x="312" y="575" on="1"/>
        <pt x="61" y="197" on="1"/>
        <pt x="312" y="197" on="1"/>
      </contour>
    </TTGlyph>
    <TTGlyph name="g" xMin="41" yMin="-263" xMax="390" yMax="511">
      <contour>
        <pt x="353" y="500" on="1"/>
        <pt x="390" y="500" on="1"/>
        <pt x="390" y="-17" on="1"/>
        <pt x="390" y="-86" on="0"/>
        <pt x="356" y="-189" on="0"/>
        <pt x="330" y="-214" on="1"/>
        <pt x="279" y="-263" on="0"/>
        <pt x="229" y="-263" on="1"/>
        <pt x="162" y="-263" on="0"/>
        <pt x="103" y="-207" on="1"/>
        <pt x="103" y="-159" on="1"/>
        <pt x="166" y="-226" on="0"/>
        <pt x="290" y="-226" on="0"/>
        <pt x="353" y="-107" on="0"/>
        <pt x="353" y="-16" on="1"/>
        <pt x="353" y="0" on="1"/>
        <pt x="174" y="7" on="0"/>
        <pt x="103" y="78" on="1"/>
        <pt x="41" y="142" on="0"/>
        <pt x="41" y="265" on="1"/>
        <pt x="41" y="416" on="0"/>
        <pt x="129" y="480" on="1"/>
        <pt x="171" y="511" on="0"/>
        <pt x="212" y="511" on="1"/>
        <pt x="287" y="511" on="0"/>
        <pt x="353" y="440" on="1"/>
      </contour>
      <contour>
        <pt x="159" y="474" on="0"/>
        <pt x="78" y="348" on="0"/>
        <pt x="78" y="199" on="0"/>
        <pt x="120" y="107" on="0"/>
        <pt x="159" y="82" on="1"/>
        <pt x="231" y="37" on="0"/>
        <pt x="353" y="37" on="1"/>
        <pt x="353" y="390" on="1"/>
        <pt x="319" y="429" on="0"/>
        <pt x="256" y="474" on="0"/>
        <pt x="218" y="474" on="1"/>
      </contour>
    </TTGlyph>
    <TTGlyph name="germandbls" xMin="70" yMin="-51" xMax="432" yMax="751">
      <contour>
        <pt x="206" y="393" on="1"/>
        <pt x="192" y="392" on="1"/>
        <pt x="192" y="436" on="1"/>
        <pt x="229" y="442" on="0"/>
        <pt x="304" y="553" on="0"/>
        <pt x="304" y="616" on="1"/>
        <pt x="304" y="654" on="0"/>
        <pt x="252" y="713" on="0"/>
        <pt x="217" y="713" on="1"/>
        <pt x="159" y="713" on="0"/>
        <pt x="107" y="604" on="0"/>
        <pt x="107" y="481" on="1"/>
        <pt x="107" y="-51" on="1"/>
        <pt x="70" y="-51" on="1"/>
        <pt x="70" y="482" on="1"/>
        <pt x="70" y="686" on="0"/>
        <pt x="138" y="730" on="1"/>
        <pt x="169" y="751" on="0"/>
        <pt x="266" y="751" on="0"/>
        <pt x="344" y="679" on="0"/>
        <pt x="344" y="564" on="0"/>
        <pt x="292" y="463" on="0"/>
        <pt x="246" y="428" on="1"/>
        <pt x="333" y="416" on="0"/>
        <pt x="432" y="296" on="0"/>
        <pt x="432" y="217" on="1"/>
        <pt x="432" y="114" on="0"/>
        <pt x="295" y="1" on="0"/>
        <pt x="197" y="1" on="1"/>
        <pt x="197" y="38" on="1"/>
        <pt x="285" y="38" on="0"/>
        <pt x="391" y="142" on="0"/>
        <pt x="391" y="286" on="0"/>
        <pt x="292" y="393" on="0"/>
      </contour>
    </TTGlyph>
    <TTGlyph name="grave" xMin="312" yMin="564" xMax="455" yMax="700">
      <contour>
        <pt x="426" y="564" on="1"/>
        <pt x="312" y="685" on="1"/>
        <pt x="349" y="700" on="1"/>
        <pt x="455" y="564" on="1"/>
      </contour>
    </TTGlyph>
    <TTGlyph name="greater" xMin="52" yMin="146" xMax="469" yMax="455">
      <contour>
        <pt x="469" y="300" on="1"/>
        <pt x="127" y="146" on="1"/>
        <pt x="52" y="146" on="1"/>
        <pt x="400" y="300" on="1"/>
        <pt x="54" y="455" on="1"/>
        <pt x="129" y="455" on="1"/>
      </contour>
    </TTGlyph>
    <TTGlyph name="guillemotleft" xMin="27" yMin="0" xMax="412" yMax="500">
      <contour>
        <pt x="195" y="0" on="1"/>
        <pt x="27" y="252" on="1"/>
        <pt x="193" y="500" on="1"/>
        <pt x="230" y="500" on="1"/>
        <pt x="64" y="252" on="1"/>
        <pt x="232" y="0" on="1"/>
      </contour>
      <contour>
        <pt x="375" y="0" on="1"/>
        <pt x="207" y="252" on="1"/>
        <pt x="373" y="500" on="1"/>
        <pt x="410" y="500" on="1"/>
        <pt x="244" y="252" on="1"/>
        <pt x="412" y="0" on="1"/>
      </contour>
    </TTGlyph>
    <TTGlyph name="guillemotright" xMin="32" yMin="0" xMax="417" yMax="500">
      <contour>
        <pt x="417" y="252" on="1"/>
        <pt x="249" y="0" on="1"/>
        <pt x="212" y="0" on="1"/>
        <pt x="380" y="252" on="1"/>
        <pt x="214" y="500" on="1"/>
        <pt x="251" y="500" on="1"/>
      </contour>
      <contour>
        <pt x="237" y="252" on="1"/>
        <pt x="69" y="0" on="1"/>
        <pt x="32" y="0" on="1"/>
        <pt x="200" y="252" on="1"/>
        <pt x="34" y="500" on="1"/>
        <pt x="71" y="500" on="1"/>
      </contour>
    </TTGlyph>
    <TTGlyph name="guilsinglleft" xMin="27" yMin="0" xMax="232" yMax="500">
      <contour>
        <pt x="195" y="0" on="1"/>
        <pt x="27" y="252" on="1"/>
        <pt x="193" y="500" on="1"/>
        <pt x="230" y="500" on="1"/>
        <pt x="64" y="252" on="1"/>
        <pt x="232" y="0" on="1"/>
      </contour>
    </TTGlyph>
    <TTGlyph name="guilsinglright" xMin="32" yMin="0" xMax="237" yMax="500">
      <contour>
        <pt x="237" y="252" on="1"/>
        <pt x="69" y="0" on="1"/>
        <pt x="32" y="0" on="1"/>
        <pt x="200" y="252" on="1"/>
        <pt x="34" y="500" on="1"/>
        <pt x="71" y="500" on="1"/>
      </contour>
    </TTGlyph>
    <TTGlyph name="h" xMin="70" yMin="0" xMax="419" yMax="750">
      <contour>
        <pt x="381" y="0" on="1"/>
        <pt x="382" y="264" on="1"/>
        <pt x="382" y="348" on="0"/>
        <pt x="301" y="474" on="0"/>
        <pt x="242" y="474" on="1"/>
        <pt x="204" y="474" on="0"/>
        <pt x="141" y="429" on="0"/>
        <pt x="107" y="390" on="1"/>
        <pt x="107" y="0" on="1"/>
        <pt x="70" y="0" on="1"/>
        <pt x="70" y="750" on="1"/>
        <pt x="107" y="750" on="1"/>
        <pt x="107" y="440" on="1"/>
        <pt x="173" y="511" on="0"/>
        <pt x="248" y="511" on="1"/>
        <pt x="289" y="511" on="0"/>
        <pt x="331" y="480" on="1"/>
        <pt x="419" y="416" on="0"/>
        <pt x="419" y="265" on="1"/>
        <pt x="418" y="0" on="1"/>
      </contour>
    </TTGlyph>
    <TTGlyph name="hyphen" xMin="47" yMin="257" xMax="287" yMax="294">
      <contour>
        <pt x="287" y="257" on="1"/>
        <pt x="47" y="257" on="1"/>
        <pt x="47" y="294" on="1"/>
        <pt x="287" y="294" on="1"/>
      </contour>
    </TTGlyph>
    <TTGlyph name="i" xMin="70" yMin="0" xMax="109" yMax="665">
      <contour>
        <pt x="107" y="0" on="1"/>
        <pt x="70" y="0" on="1"/>
        <pt x="70" y="500" on="1"/>
        <pt x="107" y="500" on="1"/>
      </contour>
      <contour>
        <pt x="72" y="665" on="1"/>
        <pt x="109" y="665" on="1"/>
        <pt x="109" y="579" on="1"/>
        <pt x="72" y="579" on="1"/>
      </contour>
    </TTGlyph>
    <TTGlyph name="iacute" xMin="70" yMin="0" xMax="216" yMax="700">
      <contour>
        <pt x="107" y="0" on="1"/>
        <pt x="70" y="0" on="1"/>
        <pt x="70" y="500" on="1"/>
        <pt x="107" y="500" on="1"/>
      </contour>
      <contour>
        <pt x="216" y="685" on="1"/>
        <pt x="102" y="564" on="1"/>
        <pt x="73" y="564" on="1"/>
        <pt x="179" y="700" on="1"/>
      </contour>
    </TTGlyph>
    <TTGlyph name="icircumflex" xMin="-19" yMin="0" xMax="193" yMax="692">
      <contour>
        <pt x="107" y="0" on="1"/>
        <pt x="70" y="0" on="1"/>
        <pt x="70" y="500" on="1"/>
        <pt x="107" y="500" on="1"/>
      </contour>
      <contour>
        <pt x="164" y="556" on="1"/>
        <pt x="87" y="637" on="1"/>
        <pt x="10" y="556" on="1"/>
        <pt x="-19" y="556" on="1"/>
        <pt x="87" y="692" on="1"/>
        <pt x="193" y="556" on="1"/>
      </contour>
    </TTGlyph>
    <TTGlyph name="idieresis" xMin="-16" yMin="0" xMax="192" yMax="630">
      <contour>
        <pt x="107" y="0" on="1"/>
        <pt x="70" y="0" on="1"/>
        <pt x="70" y="500" on="1"/>
        <pt x="107" y="500" on="1"/>
      </contour>
      <contour>
        <pt x="-16" y="630" on="1"/>
        <pt x="22" y="630" on="1"/>
        <pt x="22" y="564" on="1"/>
        <pt x="-16" y="564" on="1"/>
      </contour>
      <contour>
        <pt x="154" y="630" on="1"/>
        <pt x="192" y="630" on="1"/>
        <pt x="192" y="564" on="1"/>
        <pt x="154" y="564" on="1"/>
      </contour>
    </TTGlyph>
    <TTGlyph name="igrave" xMin="-35" yMin="0" xMax="108" yMax="700">
      <contour>
        <pt x="107" y="0" on="1"/>
        <pt x="70" y="0" on="1"/>
        <pt x="70" y="500" on="1"/>
        <pt x="107" y="500" on="1"/>
      </contour>
      <contour>
        <pt x="79" y="564" on="1"/>
        <pt x="-35" y="685" on="1"/>
        <pt x="2" y="700" on="1"/>
        <pt x="108" y="564" on="1"/>
      </contour>
    </TTGlyph>
    <TTGlyph name="j" xMin="-180" yMin="-259" xMax="108" yMax="666">
      <contour>
        <pt x="71" y="666" on="1"/>
        <pt x="108" y="666" on="1"/>
        <pt x="108" y="579" on="1"/>
        <pt x="71" y="579" on="1"/>
      </contour>
      <contour>
        <pt x="70" y="-12" on="1"/>
        <pt x="70" y="500" on="1"/>
        <pt x="107" y="500" on="1"/>
        <pt x="107" y="-13" on="1"/>
        <pt x="107" y="-82" on="0"/>
        <pt x="73" y="-185" on="0"/>
        <pt x="46" y="-210" on="1"/>
        <pt x="-4" y="-259" on="0"/>
        <pt x="-54" y="-259" on="1"/>
        <pt x="-120" y="-259" on="0"/>
        <pt x="-180" y="-203" on="1"/>
        <pt x="-180" y="-155" on="1"/>
        <pt x="-117" y="-222" on="0"/>
        <pt x="-2" y="-222" on="0"/>
        <pt x="70" y="-98" on="0"/>
      </contour>
    </TTGlyph>
    <TTGlyph name="k" xMin="70" yMin="0" xMax="429" yMax="750">
      <contour>
        <pt x="429" y="0" on="1"/>
        <pt x="392" y="0" on="1"/>
        <pt x="392" y="68" on="1"/>
        <pt x="392" y="151" on="0"/>
        <pt x="319" y="270" on="0"/>
        <pt x="214" y="270" on="0"/>
        <pt x="165" y="226" on="1"/>
        <pt x="107" y="165" on="1"/>
        <pt x="107" y="0" on="1"/>
        <pt x="70" y="0" on="1"/>
        <pt x="70" y="750" on="1"/>
        <pt x="107" y="750" on="1"/>
        <pt x="107" y="219" on="1"/>
        <pt x="378" y="501" on="1"/>
        <pt x="429" y="501" on="1"/>
        <pt x="241" y="304" on="1"/>
        <pt x="253" y="307" on="0"/>
        <pt x="290" y="307" on="0"/>
        <pt x="341" y="284" on="0"/>
        <pt x="394" y="235" on="0"/>
        <pt x="429" y="141" on="0"/>
        <pt x="429" y="80" on="1"/>
      </contour>
    </TTGlyph>
    <TTGlyph name="l" xMin="74" yMin="0" xMax="111" yMax="749">
      <contour>
        <pt x="111" y="0" on="1"/>
        <pt x="74" y="0" on="1"/>
        <pt x="74" y="749" on="1"/>
        <pt x="111" y="749" on="1"/>
      </contour>
    </TTGlyph>
    <TTGlyph name="less" xMin="29" yMin="146" xMax="446" yMax="455">
      <contour>
        <pt x="371" y="146" on="1"/>
        <pt x="29" y="300" on="1"/>
        <pt x="369" y="455" on="1"/>
        <pt x="444" y="455" on="1"/>
        <pt x="98" y="300" on="1"/>
        <pt x="446" y="146" on="1"/>
      </contour>
    </TTGlyph>
    <TTGlyph name="logicalnot" xMin="58" yMin="203" xMax="577" yMax="401">
      <contour>
        <pt x="58" y="401" on="1"/>
        <pt x="577" y="401" on="1"/>
        <pt x="577" y="203" on="1"/>
        <pt x="540" y="203" on="1"/>
        <pt x="540" y="364" on="1"/>
        <pt x="58" y="364" on="1"/>
      </contour>
    </TTGlyph>
    <TTGlyph name="m" xMin="70" yMin="0" xMax="711" yMax="510">
      <contour>
        <pt x="371" y="0" on="1"/>
        <pt x="372" y="264" on="1"/>
        <pt x="372" y="348" on="0"/>
        <pt x="297" y="473" on="0"/>
        <pt x="180" y="473" on="0"/>
        <pt x="107" y="390" on="1"/>
        <pt x="107" y="0" on="1"/>
        <pt x="70" y="0" on="1"/>
        <pt x="70" y="500" on="1"/>
        <pt x="107" y="500" on="1"/>
        <pt x="107" y="440" on="1"/>
        <pt x="172" y="510" on="0"/>
        <pt x="248" y="510" on="1"/>
        <pt x="279" y="510" on="0"/>
        <pt x="352" y="466" on="0"/>
        <pt x="377" y="419" on="1"/>
        <pt x="448" y="510" on="0"/>
        <pt x="540" y="510" on="1"/>
        <pt x="591" y="510" on="0"/>
        <pt x="646" y="462" on="1"/>
        <pt x="674" y="436" on="0"/>
        <pt x="711" y="334" on="0"/>
        <pt x="711" y="265" on="1"/>
        <pt x="710" y="0" on="1"/>
        <pt x="673" y="0" on="1"/>
        <pt x="674" y="264" on="1"/>
        <pt x="674" y="348" on="0"/>
        <pt x="593" y="473" on="0"/>
        <pt x="534" y="473" on="1"/>
        <pt x="495" y="473" on="0"/>
        <pt x="416" y="419" on="0"/>
        <pt x="391" y="384" on="1"/>
        <pt x="409" y="332" on="0"/>
        <pt x="409" y="265" on="1"/>
        <pt x="408" y="0" on="1"/>
      </contour>
    </TTGlyph>
    <TTGlyph name="mu" xMin="67" yMin="-191" xMax="352" yMax="500">
      <contour>
        <pt x="104" y="-191" on="1"/>
        <pt x="67" y="-191" on="1"/>
        <pt x="67" y="500" on="1"/>
        <pt x="104" y="500" on="1"/>
        <pt x="104" y="92" on="1"/>
        <pt x="104" y="65" on="0"/>
        <pt x="141" y="32" on="0"/>
        <pt x="203" y="32" on="0"/>
        <pt x="292" y="92" on="0"/>
        <pt x="315" y="128" on="1"/>
        <pt x="315" y="500" on="1"/>
        <pt x="352" y="500" on="1"/>
        <pt x="352" y="0" on="1"/>
        <pt x="315" y="0" on="1"/>
        <pt x="315" y="78" on="1"/>
        <pt x="294" y="53" on="0"/>
        <pt x="207" y="-4" on="0"/>
        <pt x="130" y="-4" on="0"/>
        <pt x="104" y="14" on="1"/>
      </contour>
    </TTGlyph>
    <TTGlyph name="multiply" xMin="46" yMin="140" xMax="423" yMax="501">
      <contour>
        <pt x="209" y="320" on="1"/>
        <pt x="46" y="501" on="1"/>
        <pt x="97" y="501" on="1"/>
        <pt x="234" y="348" on="1"/>
        <pt x="372" y="501" on="1"/>
        <pt x="423" y="501" on="1"/>
        <pt x="260" y="320" on="1"/>
        <pt x="423" y="140" on="1"/>
        <pt x="372" y="140" on="1"/>
        <pt x="234" y="292" on="1"/>
        <pt x="97" y="140" on="1"/>
        <pt x="46" y="140" on="1"/>
      </contour>
    </TTGlyph>
    <TTGlyph name="n" xMin="70" yMin="0" xMax="419" yMax="510">
      <contour>
        <pt x="381" y="0" on="1"/>
        <pt x="382" y="264" on="1"/>
        <pt x="382" y="348" on="0"/>
        <pt x="301" y="473" on="0"/>
        <pt x="180" y="473" on="0"/>
        <pt x="107" y="390" on="1"/>
        <pt x="107" y="0" on="1"/>
        <pt x="70" y="0" on="1"/>
        <pt x="70" y="500" on="1"/>
        <pt x="107" y="500" on="1"/>
        <pt x="107" y="440" on="1"/>
        <pt x="172" y="510" on="0"/>
        <pt x="248" y="510" on="1"/>
        <pt x="299" y="510" on="0"/>
        <pt x="354" y="462" on="1"/>
        <pt x="382" y="436" on="0"/>
        <pt x="419" y="334" on="0"/>
        <pt x="419" y="265" on="1"/>
        <pt x="418" y="0" on="1"/>
      </contour>
    </TTGlyph>
    <TTGlyph name="nine" xMin="38" yMin="1" xMax="436" yMax="700">
      <contour>
        <pt x="436" y="475" on="1"/>
        <pt x="435" y="364" on="1"/>
        <pt x="435" y="247" on="1"/>
        <pt x="435" y="191" on="0"/>
        <pt x="405" y="102" on="0"/>
        <pt x="362" y="49" on="0"/>
        <pt x="334" y="32" on="1"/>
        <pt x="287" y="1" on="0"/>
        <pt x="244" y="1" on="1"/>
        <pt x="145" y="1" on="0"/>
        <pt x="68" y="57" on="1"/>
        <pt x="70" y="94" on="1"/>
        <pt x="103" y="71" on="0"/>
        <pt x="202" y="38" on="0"/>
        <pt x="238" y="38" on="1"/>
        <pt x="302" y="38" on="0"/>
        <pt x="398" y="154" on="0"/>
        <pt x="398" y="248" on="1"/>
        <pt x="398" y="377" on="1"/>
        <pt x="373" y="338" on="0"/>
        <pt x="288" y="293" on="0"/>
        <pt x="237" y="293" on="1"/>
        <pt x="152" y="293" on="0"/>
        <pt x="38" y="411" on="0"/>
        <pt x="38" y="499" on="1"/>
        <pt x="38" y="546" on="0"/>
        <pt x="71" y="620" on="0"/>
        <pt x="118" y="663" on="0"/>
        <pt x="148" y="676" on="1"/>
        <pt x="199" y="700" on="0"/>
        <pt x="241" y="700" on="1"/>
        <pt x="323" y="700" on="0"/>
        <pt x="436" y="593" on="0"/>
        <pt x="436" y="499" on="1"/>
      </contour>
      <contour>
        <pt x="399" y="567" on="0"/>
        <pt x="304" y="660" on="0"/>
        <pt x="171" y="660" on="0"/>
        <pt x="75" y="566" on="0"/>
        <pt x="75" y="436" on="0"/>
        <pt x="170" y="330" on="0"/>
        <pt x="307" y="330" on="0"/>
        <pt x="399" y="435" on="0"/>
      </contour>
    </TTGlyph>
    <TTGlyph name="ntilde" xMin="70" yMin="0" xMax="419" yMax="634">
      <contour>
        <pt x="381" y="0" on="1"/>
        <pt x="382" y="264" on="1"/>
        <pt x="382" y="348" on="0"/>
        <pt x="301" y="473" on="0"/>
        <pt x="180" y="473" on="0"/>
        <pt x="107" y="390" on="1"/>
        <pt x="107" y="0" on="1"/>
        <pt x="70" y="0" on="1"/>
        <pt x="70" y="500" on="1"/>
        <pt x="107" y="500" on="1"/>
        <pt x="107" y="440" on="1"/>
        <pt x="172" y="510" on="0"/>
        <pt x="248" y="510" on="1"/>
        <pt x="299" y="510" on="0"/>
        <pt x="354" y="462" on="1"/>
        <pt x="382" y="436" on="0"/>
        <pt x="419" y="334" on="0"/>
        <pt x="419" y="265" on="1"/>
        <pt x="418" y="0" on="1"/>
      </contour>
      <contour>
        <pt x="375" y="626" on="1"/>
        <pt x="375" y="589" on="1"/>
        <pt x="353" y="557" on="0"/>
        <pt x="288" y="557" on="0"/>
        <pt x="207" y="600" on="0"/>
        <pt x="181" y="600" on="1"/>
        <pt x="139" y="600" on="0"/>
        <pt x="115" y="568" on="1"/>
        <pt x="115" y="604" on="1"/>
        <pt x="122" y="617" on="0"/>
        <pt x="160" y="634" on="0"/>
        <pt x="208" y="634" on="0"/>
        <pt x="291" y="591" on="0"/>
        <pt x="315" y="591" on="1"/>
        <pt x="355" y="591" on="0"/>
      </contour>
    </TTGlyph>
    <TTGlyph name="numbersign" xMin="34" yMin="0" xMax="609" yMax="700">
      <contour>
        <pt x="172" y="201" on="1"/>
        <pt x="84" y="0" on="1"/>
        <pt x="42" y="0" on="1"/>
        <pt x="130" y="201" on="1"/>
        <pt x="34" y="201" on="1"/>
        <pt x="34" y="238" on="1"/>
        <pt x="146" y="238" on="1"/>
        <pt x="239" y="451" on="1"/>
        <pt x="128" y="451" on="1"/>
        <pt x="128" y="488" on="1"/>
        <pt x="256" y="488" on="1"/>
        <pt x="349" y="700" on="1"/>
        <pt x="390" y="700" on="1"/>
        <pt x="297" y="488" on="1"/>
        <pt x="472" y="488" on="1"/>
        <pt x="565" y="700" on="1"/>
        <pt x="606" y="700" on="1"/>
        <pt x="513" y="488" on="1"/>
        <pt x="609" y="488" on="1"/>
        <pt x="609" y="451" on="1"/>
        <pt x="497" y="451" on="1"/>
        <pt x="404" y="238" on="1"/>
        <pt x="515" y="238" on="1"/>
        <pt x="515" y="201" on="1"/>
        <pt x="388" y="201" on="1"/>
        <pt x="300" y="0" on="1"/>
        <pt x="258" y="0" on="1"/>
        <pt x="346" y="201" on="1"/>
      </contour>
      <contour>
        <pt x="281" y="451" on="1"/>
        <pt x="188" y="238" on="1"/>
        <pt x="362" y="238" on="1"/>
        <pt x="455" y="451" on="1"/>
      </contour>
    </TTGlyph>
    <TTGlyph name="o" xMin="41" yMin="7" xMax="410" yMax="510">
      <contour>
        <pt x="410" y="269" on="1"/>
        <pt x="410" y="201" on="0"/>
        <pt x="384" y="98" on="0"/>
        <pt x="345" y="42" on="0"/>
        <pt x="318" y="25" on="1"/>
        <pt x="250" y="-19" on="0"/>
        <pt x="169" y="7" on="1"/>
        <pt x="141" y="16" on="0"/>
        <pt x="79" y="63" on="0"/>
        <pt x="41" y="165" on="0"/>
        <pt x="41" y="239" on="1"/>
        <pt x="41" y="359" on="0"/>
        <pt x="137" y="510" on="0"/>
        <pt x="318" y="510" on="0"/>
        <pt x="409" y="368" on="0"/>
      </contour>
      <contour>
        <pt x="214" y="35" on="1"/>
        <pt x="226" y="34" on="1"/>
        <pt x="237" y="35" on="1"/>
        <pt x="373" y="48" on="0"/>
        <pt x="373" y="264" on="1"/>
        <pt x="373" y="353" on="0"/>
        <pt x="301" y="473" on="0"/>
        <pt x="222" y="473" on="1"/>
        <pt x="171" y="473" on="0"/>
        <pt x="137" y="438" on="1"/>
        <pt x="78" y="376" on="0"/>
        <pt x="78" y="245" on="1"/>
        <pt x="78" y="237" on="1"/>
        <pt x="78" y="154" on="0"/>
        <pt x="146" y="41" on="0"/>
      </contour>
    </TTGlyph>
    <TTGlyph name="oacute" xMin="41" yMin="7" xMax="410" yMax="700">
      <contour>
        <pt x="410" y="269" on="1"/>
        <pt x="410" y="201" on="0"/>
        <pt x="384" y="98" on="0"/>
        <pt x="345" y="42" on="0"/>
        <pt x="318" y="25" on="1"/>
        <pt x="250" y="-19" on="0"/>
        <pt x="169" y="7" on="1"/>
        <pt x="141" y="16" on="0"/>
        <pt x="79" y="63" on="0"/>
        <pt x="41" y="165" on="0"/>
        <pt x="41" y="239" on="1"/>
        <pt x="41" y="359" on="0"/>
        <pt x="137" y="510" on="0"/>
        <pt x="318" y="510" on="0"/>
        <pt x="409" y="368" on="0"/>
      </contour>
      <contour>
        <pt x="214" y="35" on="1"/>
        <pt x="226" y="34" on="1"/>
        <pt x="237" y="35" on="1"/>
        <pt x="373" y="48" on="0"/>
        <pt x="373" y="264" on="1"/>
        <pt x="373" y="353" on="0"/>
        <pt x="301" y="473" on="0"/>
        <pt x="222" y="473" on="1"/>
        <pt x="171" y="473" on="0"/>
        <pt x="137" y="438" on="1"/>
        <pt x="78" y="376" on="0"/>
        <pt x="78" y="245" on="1"/>
        <pt x="78" y="237" on="1"/>
        <pt x="78" y="154" on="0"/>
        <pt x="146" y="41" on="0"/>
      </contour>
      <contour>
        <pt x="346" y="685" on="1"/>
        <pt x="232" y="564" on="1"/>
        <pt x="203" y="564" on="1"/>
        <pt x="309" y="700" on="1"/>
      </contour>
    </TTGlyph>
    <TTGlyph name="ocircumflex" xMin="41" yMin="7" xMax="410" yMax="692">
      <contour>
        <pt x="410" y="269" on="1"/>
        <pt x="410" y="201" on="0"/>
        <pt x="384" y="98" on="0"/>
        <pt x="345" y="42" on="0"/>
        <pt x="318" y="25" on="1"/>
        <pt x="250" y="-19" on="0"/>
        <pt x="169" y="7" on="1"/>
        <pt x="141" y="16" on="0"/>
        <pt x="79" y="63" on="0"/>
        <pt x="41" y="165" on="0"/>
        <pt x="41" y="239" on="1"/>
        <pt x="41" y="359" on="0"/>
        <pt x="137" y="510" on="0"/>
        <pt x="318" y="510" on="0"/>
        <pt x="409" y="368" on="0"/>
      </contour>
      <contour>
        <pt x="214" y="35" on="1"/>
        <pt x="226" y="34" on="1"/>
        <pt x="237" y="35" on="1"/>
        <pt x="373" y="48" on="0"/>
        <pt x="373" y="264" on="1"/>
        <pt x="373" y="353" on="0"/>
        <pt x="301" y="473" on="0"/>
        <pt x="222" y="473" on="1"/>
        <pt x="171" y="473" on="0"/>
        <pt x="137" y="438" on="1"/>
        <pt x="78" y="376" on="0"/>
        <pt x="78" y="245" on="1"/>
        <pt x="78" y="237" on="1"/>
        <pt x="78" y="154" on="0"/>
        <pt x="146" y="41" on="0"/>
      </contour>
      <contour>
        <pt x="308" y="556" on="1"/>
        <pt x="231" y="637" on="1"/>
        <pt x="154" y="556" on="1"/>
        <pt x="125" y="556" on="1"/>
        <pt x="231" y="692" on="1"/>
        <pt x="337" y="556" on="1"/>
      </contour>
    </TTGlyph>
    <TTGlyph name="odieresis" xMin="41" yMin="7" xMax="410" yMax="630">
      <contour>
        <pt x="410" y="269" on="1"/>
        <pt x="410" y="201" on="0"/>
        <pt x="384" y="98" on="0"/>
        <pt x="345" y="42" on="0"/>
        <pt x="318" y="25" on="1"/>
        <pt x="250" y="-19" on="0"/>
        <pt x="169" y="7" on="1"/>
        <pt x="141" y="16" on="0"/>
        <pt x="79" y="63" on="0"/>
        <pt x="41" y="165" on="0"/>
        <pt x="41" y="239" on="1"/>
        <pt x="41" y="359" on="0"/>
        <pt x="137" y="510" on="0"/>
        <pt x="318" y="510" on="0"/>
        <pt x="409" y="368" on="0"/>
      </contour>
      <contour>
        <pt x="214" y="35" on="1"/>
        <pt x="226" y="34" on="1"/>
        <pt x="237" y="35" on="1"/>
        <pt x="373" y="48" on="0"/>
        <pt x="373" y="264" on="1"/>
        <pt x="373" y="353" on="0"/>
        <pt x="301" y="473" on="0"/>
        <pt x="222" y="473" on="1"/>
        <pt x="171" y="473" on="0"/>
        <pt x="137" y="438" on="1"/>
        <pt x="78" y="376" on="0"/>
        <pt x="78" y="245" on="1"/>
        <pt x="78" y="237" on="1"/>
        <pt x="78" y="154" on="0"/>
        <pt x="146" y="41" on="0"/>
      </contour>
      <contour>
        <pt x="131" y="630" on="1"/>
        <pt x="169" y="630" on="1"/>
        <pt x="169" y="564" on="1"/>
        <pt x="131" y="564" on="1"/>
      </contour>
      <contour>
        <pt x="301" y="630" on="1"/>
        <pt x="339" y="630" on="1"/>
        <pt x="339" y="564" on="1"/>
        <pt x="301" y="564" on="1"/>
      </contour>
    </TTGlyph>
    <TTGlyph name="oe" xMin="41" yMin="-2" xMax="592" yMax="510">
      <contour>
        <pt x="592" y="36" on="1"/>
        <pt x="592" y="-1" on="1"/>
        <pt x="421" y="1" on="0"/>
        <pt x="344" y="47" on="1"/>
        <pt x="297" y="-2" on="0"/>
        <pt x="226" y="-2" on="1"/>
        <pt x="165" y="-2" on="0"/>
        <pt x="110" y="40" on="1"/>
        <pt x="79" y="63" on="0"/>
        <pt x="41" y="165" on="0"/>
        <pt x="41" y="239" on="1"/>
        <pt x="41" y="359" on="0"/>
        <pt x="137" y="510" on="0"/>
        <pt x="226" y="510" on="1"/>
        <pt x="283" y="510" on="0"/>
        <pt x="325" y="479" on="1"/>
        <pt x="369" y="510" on="0"/>
        <pt x="410" y="510" on="1"/>
        <pt x="495" y="510" on="0"/>
        <pt x="590" y="410" on="0"/>
        <pt x="590" y="328" on="1"/>
        <pt x="590" y="273" on="0"/>
        <pt x="589" y="264" on="1"/>
        <pt x="276" y="264" on="1"/>
        <pt x="276" y="135" on="0"/>
        <pt x="430" y="36" on="0"/>
      </contour>
      <contour>
        <pt x="297" y="453" on="1"/>
        <pt x="264" y="473" on="0"/>
        <pt x="171" y="473" on="0"/>
        <pt x="137" y="438" on="1"/>
        <pt x="78" y="376" on="0"/>
        <pt x="78" y="245" on="1"/>
        <pt x="78" y="154" on="0"/>
        <pt x="148" y="35" on="0"/>
        <pt x="281" y="35" on="0"/>
        <pt x="314" y="68" on="1"/>
        <pt x="239" y="133" on="0"/>
        <pt x="239" y="386" on="0"/>
      </contour>
      <contour>
        <pt x="553" y="301" on="1"/>
        <pt x="553" y="323" on="1"/>
        <pt x="553" y="389" on="0"/>
        <pt x="478" y="473" on="0"/>
        <pt x="355" y="473" on="0"/>
        <pt x="284" y="376" on="0"/>
        <pt x="277" y="301" on="1"/>
      </contour>
    </TTGlyph>
    <TTGlyph name="ograve" xMin="41" yMin="7" xMax="410" yMax="700">
      <contour>
        <pt x="410" y="269" on="1"/>
        <pt x="410" y="201" on="0"/>
        <pt x="384" y="98" on="0"/>
        <pt x="345" y="42" on="0"/>
        <pt x="318" y="25" on="1"/>
        <pt x="250" y="-19" on="0"/>
        <pt x="169" y="7" on="1"/>
        <pt x="141" y="16" on="0"/>
        <pt x="79" y="63" on="0"/>
        <pt x="41" y="165" on="0"/>
        <pt x="41" y="239" on="1"/>
        <pt x="41" y="359" on="0"/>
        <pt x="137" y="510" on="0"/>
        <pt x="318" y="510" on="0"/>
        <pt x="409" y="368" on="0"/>
      </contour>
      <contour>
        <pt x="214" y="35" on="1"/>
        <pt x="226" y="34" on="1"/>
        <pt x="237" y="35" on="1"/>
        <pt x="373" y="48" on="0"/>
        <pt x="373" y="264" on="1"/>
        <pt x="373" y="353" on="0"/>
        <pt x="301" y="473" on="0"/>
        <pt x="222" y="473" on="1"/>
        <pt x="171" y="473" on="0"/>
        <pt x="137" y="438" on="1"/>
        <pt x="78" y="376" on="0"/>
        <pt x="78" y="245" on="1"/>
        <pt x="78" y="237" on="1"/>
        <pt x="78" y="154" on="0"/>
        <pt x="146" y="41" on="0"/>
      </contour>
      <contour>
        <pt x="209" y="564" on="1"/>
        <pt x="95" y="685" on="1"/>
        <pt x="132" y="700" on="1"/>
        <pt x="238" y="564" on="1"/>
      </contour>
    </TTGlyph>
    <TTGlyph name="one" xMin="19" yMin="0" xMax="207" yMax="700">
      <contour>
        <pt x="207" y="0" on="1"/>
        <pt x="169" y="0" on="1"/>
        <pt x="169" y="644" on="1"/>
        <pt x="19" y="576" on="1"/>
        <pt x="19" y="613" on="1"/>
        <pt x="207" y="700" on="1"/>
      </contour>
    </TTGlyph>
    <TTGlyph name="onehalf" xMin="29" yMin="-1" xMax="700" yMax="700">
      <contour>
        <pt x="687" y="700" on="1"/>
        <pt x="73" y="0" on="1"/>
        <pt x="29" y="0" on="1"/>
        <pt x="640" y="700" on="1"/>
      </contour>
      <contour>
        <pt x="200" y="299" on="1"/>
        <pt x="163" y="299" on="1"/>
        <pt x="163" y="643" on="1"/>
        <pt x="61" y="599" on="1"/>
        <pt x="61" y="637" on="1"/>
        <pt x="200" y="700" on="1"/>
      </contour>
      <contour>
        <pt x="452" y="-1" on="1"/>
        <pt x="622" y="206" on="1"/>
        <pt x="622" y="206" on="0"/>
        <pt x="630" y="218" on="1"/>
        <pt x="636" y="227" on="0"/>
        <pt x="641" y="234" on="0"/>
        <pt x="651" y="250" on="0"/>
        <pt x="656" y="261" on="0"/>
        <pt x="659" y="268" on="1"/>
        <pt x="664" y="280" on="0"/>
        <pt x="664" y="295" on="1"/>
        <pt x="664" y="367" on="0"/>
        <pt x="579" y="367" on="1"/>
        <pt x="546" y="367" on="0"/>
        <pt x="487" y="329" on="1"/>
        <pt x="487" y="366" on="1"/>
        <pt x="544" y="404" on="0"/>
        <pt x="631" y="404" on="0"/>
        <pt x="700" y="342" on="0"/>
        <pt x="700" y="246" on="0"/>
        <pt x="668" y="206" on="1"/>
        <pt x="531" y="36" on="1"/>
        <pt x="695" y="36" on="1"/>
        <pt x="695" y="-1" on="1"/>
      </contour>
    </TTGlyph>
    <TTGlyph name="onequarter" xMin="31" yMin="0" xMax="689" yMax="700">
      <contour>
        <pt x="589" y="0" on="1"/>
        <pt x="552" y="0" on="1"/>
        <pt x="552" y="96" on="1"/>
        <pt x="391" y="96" on="1"/>
        <pt x="391" y="133" on="1"/>
        <pt x="589" y="420" on="1"/>
        <pt x="589" y="133" on="1"/>
        <pt x="633" y="133" on="1"/>
        <pt x="633" y="96" on="1"/>
        <pt x="589" y="96" on="1"/>
      </contour>
      <contour>
        <pt x="689" y="700" on="1"/>
        <pt x="75" y="0" on="1"/>
        <pt x="31" y="0" on="1"/>
        <pt x="642" y="700" on="1"/>
      </contour>
      <contour>
        <pt x="202" y="299" on="1"/>
        <pt x="165" y="299" on="1"/>
        <pt x="165" y="643" on="1"/>
        <pt x="63" y="599" on="1"/>
        <pt x="63" y="637" on="1"/>
        <pt x="202" y="700" on="1"/>
      </contour>
      <contour>
        <pt x="552" y="300" on="1"/>
        <pt x="436" y="133" on="1"/>
        <pt x="552" y="133" on="1"/>
      </contour>
    </TTGlyph>
    <TTGlyph name="onesuperior" xMin="23" yMin="299" xMax="162" yMax="700">
      <contour>
        <pt x="162" y="299" on="1"/>
        <pt x="125" y="299" on="1"/>
        <pt x="125" y="643" on="1"/>
        <pt x="23" y="599" on="1"/>
        <pt x="23" y="637" on="1"/>
        <pt x="162" y="700" on="1"/>
      </contour>
    </TTGlyph>
    <TTGlyph name="ordfeminine" xMin="38" yMin="401" xMax="257" yMax="699">
      <contour>
        <pt x="220" y="692" on="1"/>
        <pt x="257" y="692" on="1"/>
        <pt x="257" y="401" on="1"/>
        <pt x="171" y="401" on="0"/>
        <pt x="108" y="429" on="1"/>
        <pt x="38" y="461" on="0"/>
        <pt x="38" y="629" on="0"/>
        <pt x="106" y="699" on="0"/>
        <pt x="140" y="699" on="1"/>
        <pt x="190" y="699" on="0"/>
        <pt x="220" y="666" on="1"/>
      </contour>
      <contour>
        <pt x="116" y="662" on="0"/>
        <pt x="75" y="607" on="0"/>
        <pt x="75" y="516" on="0"/>
        <pt x="105" y="469" on="0"/>
        <pt x="130" y="458" on="1"/>
        <pt x="172" y="439" on="0"/>
        <pt x="220" y="439" on="1"/>
        <pt x="220" y="626" on="1"/>
        <pt x="188" y="662" on="0"/>
        <pt x="144" y="662" on="1"/>
      </contour>
    </TTGlyph>
    <TTGlyph name="ordmasculine" xMin="36" yMin="431" xMax="304" yMax="699">
      <contour>
        <pt x="226" y="431" on="0"/>
        <pt x="114" y="431" on="0"/>
        <pt x="36" y="509" on="0"/>
        <pt x="36" y="623" on="0"/>
        <pt x="114" y="699" on="0"/>
        <pt x="227" y="699" on="0"/>
        <pt x="304" y="623" on="0"/>
        <pt x="304" y="508" on="0"/>
      </contour>
      <contour>
        <pt x="267" y="609" on="0"/>
        <pt x="212" y="662" on="0"/>
        <pt x="129" y="662" on="0"/>
        <pt x="73" y="608" on="0"/>
        <pt x="73" y="527" on="0"/>
        <pt x="128" y="468" on="0"/>
        <pt x="214" y="468" on="0"/>
        <pt x="267" y="526" on="0"/>
      </contour>
    </TTGlyph>
    <TTGlyph name="oslash" xMin="12" yMin="-2" xMax="454" yMax="510">
      <contour>
        <pt x="385" y="415" on="1"/>
        <pt x="416" y="354" on="0"/>
        <pt x="418" y="201" on="0"/>
        <pt x="392" y="98" on="0"/>
        <pt x="353" y="42" on="0"/>
        <pt x="326" y="25" on="1"/>
        <pt x="284" y="-2" on="0"/>
        <pt x="234" y="-2" on="1"/>
        <pt x="147" y="-2" on="0"/>
        <pt x="98" y="60" on="1"/>
        <pt x="49" y="0" on="1"/>
        <pt x="12" y="0" on="1"/>
        <pt x="81" y="85" on="1"/>
        <pt x="49" y="146" on="0"/>
        <pt x="49" y="359" on="0"/>
        <pt x="145" y="510" on="0"/>
        <pt x="320" y="510" on="0"/>
        <pt x="369" y="441" on="1"/>
        <pt x="417" y="500" on="1"/>
        <pt x="454" y="500" on="1"/>
      </contour>
      <contour>
        <pt x="230" y="473" on="1"/>
        <pt x="179" y="473" on="0"/>
        <pt x="145" y="438" on="1"/>
        <pt x="86" y="376" on="0"/>
        <pt x="86" y="245" on="1"/>
        <pt x="86" y="237" on="1"/>
        <pt x="86" y="169" on="0"/>
        <pt x="108" y="119" on="1"/>
        <pt x="345" y="412" on="1"/>
        <pt x="306" y="473" on="0"/>
      </contour>
      <contour>
        <pt x="222" y="35" on="1"/>
        <pt x="234" y="34" on="1"/>
        <pt x="245" y="35" on="1"/>
        <pt x="381" y="48" on="0"/>
        <pt x="381" y="264" on="1"/>
        <pt x="381" y="334" on="0"/>
        <pt x="360" y="384" on="1"/>
        <pt x="123" y="92" on="1"/>
        <pt x="159" y="39" on="0"/>
      </contour>
    </TTGlyph>
    <TTGlyph name="otilde" xMin="41" yMin="7" xMax="410" yMax="634">
      <contour>
        <pt x="410" y="269" on="1"/>
        <pt x="410" y="201" on="0"/>
        <pt x="384" y="98" on="0"/>
        <pt x="345" y="42" on="0"/>
        <pt x="318" y="25" on="1"/>
        <pt x="250" y="-19" on="0"/>
        <pt x="169" y="7" on="1"/>
        <pt x="141" y="16" on="0"/>
        <pt x="79" y="63" on="0"/>
        <pt x="41" y="165" on="0"/>
        <pt x="41" y="239" on="1"/>
        <pt x="41" y="359" on="0"/>
        <pt x="137" y="510" on="0"/>
        <pt x="318" y="510" on="0"/>
        <pt x="409" y="368" on="0"/>
      </contour>
      <contour>
        <pt x="214" y="35" on="1"/>
        <pt x="226" y="34" on="1"/>
        <pt x="237" y="35" on="1"/>
        <pt x="373" y="48" on="0"/>
        <pt x="373" y="264" on="1"/>
        <pt x="373" y="353" on="0"/>
        <pt x="301" y="473" on="0"/>
        <pt x="222" y="473" on="1"/>
        <pt x="171" y="473" on="0"/>
        <pt x="137" y="438" on="1"/>
        <pt x="78" y="376" on="0"/>
        <pt x="78" y="245" on="1"/>
        <pt x="78" y="237" on="1"/>
        <pt x="78" y="154" on="0"/>
        <pt x="146" y="41" on="0"/>
      </contour>
      <contour>
        <pt x="358" y="626" on="1"/>
        <pt x="358" y="589" on="1"/>
        <pt x="336" y="557" on="0"/>
        <pt x="271" y="557" on="0"/>
        <pt x="190" y="600" on="0"/>
        <pt x="164" y="600" on="1"/>
        <pt x="122" y="600" on="0"/>
        <pt x="98" y="568" on="1"/>
        <pt x="98" y="604" on="1"/>
        <pt x="104" y="617" on="0"/>
        <pt x="143" y="634" on="0"/>
        <pt x="191" y="634" on="0"/>
        <pt x="274" y="591" on="0"/>
        <pt x="298" y="591" on="1"/>
        <pt x="338" y="591" on="0"/>
      </contour>
    </TTGlyph>
    <TTGlyph name="p" xMin="70" yMin="-250" xMax="419" yMax="511">
      <contour>
        <pt x="107" y="-250" on="1"/>
        <pt x="70" y="-250" on="1"/>
        <pt x="70" y="500" on="1"/>
        <pt x="107" y="500" on="1"/>
        <pt x="107" y="440" on="1"/>
        <pt x="173" y="511" on="0"/>
        <pt x="248" y="511" on="1"/>
        <pt x="289" y="511" on="0"/>
        <pt x="331" y="480" on="1"/>
        <pt x="419" y="416" on="0"/>
        <pt x="419" y="265" on="1"/>
        <pt x="419" y="87" on="0"/>
        <pt x="286" y="32" on="1"/>
        <pt x="218" y="4" on="0"/>
        <pt x="107" y="0" on="1"/>
      </contour>
      <contour>
        <pt x="361" y="153" on="1"/>
        <pt x="382" y="199" on="0"/>
        <pt x="382" y="348" on="0"/>
        <pt x="301" y="474" on="0"/>
        <pt x="242" y="474" on="1"/>
        <pt x="204" y="474" on="0"/>
        <pt x="141" y="429" on="0"/>
        <pt x="107" y="390" on="1"/>
        <pt x="107" y="37" on="1"/>
        <pt x="308" y="37" on="0"/>
      </contour>
    </TTGlyph>
    <TTGlyph name="paragraph" xMin="35" yMin="0" xMax="486" yMax="700">
      <contour>
        <pt x="415" y="0" on="1"/>
        <pt x="378" y="0" on="1"/>
        <pt x="378" y="663" on="1"/>
        <pt x="273" y="663" on="1"/>
        <pt x="273" y="0" on="1"/>
        <pt x="236" y="0" on="1"/>
        <pt x="236" y="290" on="1"/>
        <pt x="208" y="293" on="0"/>
        <pt x="170" y="300" on="0"/>
        <pt x="105" y="327" on="0"/>
        <pt x="66" y="368" on="0"/>
        <pt x="35" y="447" on="0"/>
        <pt x="35" y="500" on="1"/>
        <pt x="35" y="700" on="0"/>
        <pt x="273" y="700" on="1"/>
        <pt x="486" y="700" on="1"/>
        <pt x="486" y="663" on="1"/>
        <pt x="415" y="663" on="1"/>
      </contour>
    </TTGlyph>
    <TTGlyph name="parenleft" xMin="38" yMin="-97" xMax="297" yMax="727">
      <contour>
        <pt x="297" y="-97" on="1"/>
        <pt x="251" y="-97" on="1"/>
        <pt x="38" y="91" on="0"/>
        <pt x="38" y="309" on="1"/>
        <pt x="38" y="564" on="0"/>
        <pt x="292" y="727" on="1"/>
        <pt x="292" y="690" on="1"/>
        <pt x="76" y="535" on="0"/>
        <pt x="76" y="308" on="1"/>
        <pt x="76" y="94" on="0"/>
      </contour>
    </TTGlyph>
    <TTGlyph name="parenright" xMin="12" yMin="-97" xMax="271" yMax="727">
      <contour>
        <pt x="58" y="-97" on="1"/>
        <pt x="12" y="-97" on="1"/>
        <pt x="233" y="94" on="0"/>
        <pt x="233" y="308" on="1"/>
        <pt x="233" y="535" on="0"/>
        <pt x="17" y="690" on="1"/>
        <pt x="17" y="727" on="1"/>
        <pt x="271" y="564" on="0"/>
        <pt x="271" y="309" on="1"/>
        <pt x="271" y="91" on="0"/>
      </contour>
    </TTGlyph>
    <TTGlyph name="percent" xMin="33" yMin="0" xMax="611" yMax="500">
      <contour>
        <pt x="180" y="0" on="1"/>
        <pt x="143" y="0" on="1"/>
        <pt x="462" y="500" on="1"/>
        <pt x="499" y="500" on="1"/>
      </contour>
      <contour>
        <pt x="301" y="308" on="0"/>
        <pt x="224" y="231" on="0"/>
        <pt x="111" y="231" on="0"/>
        <pt x="33" y="309" on="0"/>
        <pt x="33" y="423" on="0"/>
        <pt x="111" y="499" on="0"/>
        <pt x="224" y="499" on="0"/>
        <pt x="301" y="423" on="0"/>
      </contour>
      <contour>
        <pt x="264" y="409" on="0"/>
        <pt x="209" y="462" on="0"/>
        <pt x="126" y="462" on="0"/>
        <pt x="70" y="408" on="0"/>
        <pt x="70" y="327" on="0"/>
        <pt x="125" y="268" on="0"/>
        <pt x="211" y="268" on="0"/>
        <pt x="264" y="326" on="0"/>
      </contour>
      <contour>
        <pt x="611" y="78" on="0"/>
        <pt x="534" y="1" on="0"/>
        <pt x="421" y="1" on="0"/>
        <pt x="343" y="79" on="0"/>
        <pt x="343" y="193" on="0"/>
        <pt x="421" y="269" on="0"/>
        <pt x="534" y="269" on="0"/>
        <pt x="611" y="193" on="0"/>
      </contour>
      <contour>
        <pt x="574" y="179" on="0"/>
        <pt x="519" y="232" on="0"/>
        <pt x="436" y="232" on="0"/>
        <pt x="380" y="178" on="0"/>
        <pt x="380" y="97" on="0"/>
        <pt x="435" y="38" on="0"/>
        <pt x="521" y="38" on="0"/>
        <pt x="574" y="96" on="0"/>
      </contour>
    </TTGlyph>
    <TTGlyph name="period" xMin="52" yMin="0" xMax="129" yMax="95">
      <contour>
        <pt x="129" y="0" on="1"/>
        <pt x="52" y="0" on="1"/>
        <pt x="52" y="95" on="1"/>
        <pt x="129" y="95" on="1"/>
      </contour>
    </TTGlyph>
    <TTGlyph name="periodcentered" xMin="58" yMin="270" xMax="96" yMax="336">
      <contour>
        <pt x="58" y="336" on="1"/>
        <pt x="96" y="336" on="1"/>
        <pt x="96" y="270" on="1"/>
        <pt x="58" y="270" on="1"/>
      </contour>
    </TTGlyph>
    <TTGlyph name="perthousand" xMin="33" yMin="0" xMax="922" yMax="500">
      <contour>
        <pt x="180" y="0" on="1"/>
        <pt x="143" y="0" on="1"/>
        <pt x="462" y="500" on="1"/>
        <pt x="499" y="500" on="1"/>
      </contour>
      <contour>
        <pt x="301" y="308" on="0"/>
        <pt x="224" y="231" on="0"/>
        <pt x="111" y="231" on="0"/>
        <pt x="33" y="309" on="0"/>
        <pt x="33" y="423" on="0"/>
        <pt x="111" y="499" on="0"/>
        <pt x="224" y="499" on="0"/>
        <pt x="301" y="423" on="0"/>
      </contour>
      <contour>
        <pt x="264" y="409" on="0"/>
        <pt x="209" y="462" on="0"/>
        <pt x="126" y="462" on="0"/>
        <pt x="70" y="408" on="0"/>
        <pt x="70" y="327" on="0"/>
        <pt x="125" y="268" on="0"/>
        <pt x="211" y="268" on="0"/>
        <pt x="264" y="326" on="0"/>
      </contour>
      <contour>
        <pt x="611" y="78" on="0"/>
        <pt x="534" y="1" on="0"/>
        <pt x="421" y="1" on="0"/>
        <pt x="343" y="79" on="0"/>
        <pt x="343" y="193" on="0"/>
        <pt x="421" y="269" on="0"/>
        <pt x="534" y="269" on="0"/>
        <pt x="611" y="193" on="0"/>
      </contour>
      <contour>
        <pt x="574" y="179" on="0"/>
        <pt x="519" y="232" on="0"/>
        <pt x="436" y="232" on="0"/>
        <pt x="380" y="178" on="0"/>
        <pt x="380" y="97" on="0"/>
        <pt x="435" y="38" on="0"/>
        <pt x="521" y="38" on="0"/>
        <pt x="574" y="96" on="0"/>
      </contour>
      <contour>
        <pt x="844" y="1" on="0"/>
        <pt x="732" y="1" on="0"/>
        <pt x="654" y="79" on="0"/>
        <pt x="654" y="193" on="0"/>
        <pt x="732" y="269" on="0"/>
        <pt x="845" y="269" on="0"/>
        <pt x="922" y="193" on="0"/>
        <pt x="922" y="78" on="0"/>
      </contour>
      <contour>
        <pt x="885" y="179" on="0"/>
        <pt x="830" y="232" on="0"/>
        <pt x="747" y="232" on="0"/>
        <pt x="691" y="178" on="0"/>
        <pt x="691" y="97" on="0"/>
        <pt x="746" y="38" on="0"/>
        <pt x="832" y="38" on="0"/>
        <pt x="885" y="96" on="0"/>
      </contour>
    </TTGlyph>
    <TTGlyph name="plus" xMin="35" yMin="159" xMax="393" yMax="517">
      <contour>
        <pt x="393" y="323" on="1"/>
        <pt x="233" y="323" on="1"/>
        <pt x="233" y="159" on="1"/>
        <pt x="196" y="159" on="1"/>
        <pt x="196" y="323" on="1"/>
        <pt x="35" y="323" on="1"/>
        <pt x="35" y="360" on="1"/>
        <pt x="196" y="360" on="1"/>
        <pt x="196" y="517" on="1"/>
        <pt x="233" y="517" on="1"/>
        <pt x="233" y="360" on="1"/>
        <pt x="393" y="360" on="1"/>
      </contour>
    </TTGlyph>
    <TTGlyph name="plusminus" xMin="54" yMin="0" xMax="412" yMax="517">
      <contour>
        <pt x="412" y="323" on="1"/>
        <pt x="252" y="323" on="1"/>
        <pt x="252" y="159" on="1"/>
        <pt x="215" y="159" on="1"/>
        <pt x="215" y="323" on="1"/>
        <pt x="54" y="323" on="1"/>
        <pt x="54" y="360" on="1"/>
        <pt x="215" y="360" on="1"/>
        <pt x="215" y="517" on="1"/>
        <pt x="252" y="517" on="1"/>
        <pt x="252" y="360" on="1"/>
        <pt x="412" y="360" on="1"/>
      </contour>
      <contour>
        <pt x="412" y="0" on="1"/>
        <pt x="54" y="0" on="1"/>
        <pt x="54" y="37" on="1"/>
        <pt x="412" y="37" on="1"/>
      </contour>
    </TTGlyph>
    <TTGlyph name="q" xMin="41" yMin="-250" xMax="390" yMax="511">
      <contour>
        <pt x="390" y="-250" on="1"/>
        <pt x="353" y="-250" on="1"/>
        <pt x="353" y="0" on="1"/>
        <pt x="174" y="7" on="0"/>
        <pt x="103" y="78" on="1"/>
        <pt x="41" y="142" on="0"/>
        <pt x="41" y="265" on="1"/>
        <pt x="41" y="416" on="0"/>
        <pt x="129" y="480" on="1"/>
        <pt x="171" y="511" on="0"/>
        <pt x="212" y="511" on="1"/>
        <pt x="287" y="511" on="0"/>
        <pt x="353" y="440" on="1"/>
        <pt x="353" y="500" on="1"/>
        <pt x="390" y="500" on="1"/>
      </contour>
      <contour>
        <pt x="159" y="474" on="0"/>
        <pt x="78" y="348" on="0"/>
        <pt x="78" y="199" on="0"/>
        <pt x="120" y="107" on="0"/>
        <pt x="159" y="82" on="1"/>
        <pt x="231" y="37" on="0"/>
        <pt x="353" y="37" on="1"/>
        <pt x="353" y="390" on="1"/>
        <pt x="319" y="429" on="0"/>
        <pt x="256" y="474" on="0"/>
        <pt x="218" y="474" on="1"/>
      </contour>
    </TTGlyph>
    <TTGlyph name="question" xMin="31" yMin="0" xMax="412" yMax="700">
      <contour>
        <pt x="224" y="170" on="1"/>
        <pt x="187" y="170" on="1"/>
        <pt x="187" y="300" on="1"/>
        <pt x="262" y="305" on="0"/>
        <pt x="375" y="409" on="0"/>
        <pt x="375" y="564" on="0"/>
        <pt x="285" y="660" on="0"/>
        <pt x="151" y="660" on="0"/>
        <pt x="72" y="603" on="0"/>
        <pt x="68" y="565" on="1"/>
        <pt x="31" y="565" on="1"/>
        <pt x="34" y="623" on="0"/>
        <pt x="139" y="700" on="0"/>
        <pt x="206" y="700" on="1"/>
        <pt x="225" y="700" on="0"/>
        <pt x="295" y="687" on="0"/>
        <pt x="340" y="660" on="0"/>
        <pt x="363" y="639" on="1"/>
        <pt x="412" y="594" on="0"/>
        <pt x="412" y="394" on="0"/>
        <pt x="305" y="279" on="0"/>
        <pt x="224" y="266" on="1"/>
      </contour>
      <contour>
        <pt x="184" y="66" on="1"/>
        <pt x="222" y="66" on="1"/>
        <pt x="222" y="0" on="1"/>
        <pt x="184" y="0" on="1"/>
      </contour>
    </TTGlyph>
    <TTGlyph name="questiondown" xMin="40" yMin="0" xMax="421" yMax="700">
      <contour>
        <pt x="228" y="530" on="1"/>
        <pt x="265" y="530" on="1"/>
        <pt x="265" y="400" on="1"/>
        <pt x="190" y="395" on="0"/>
        <pt x="77" y="291" on="0"/>
        <pt x="77" y="136" on="0"/>
        <pt x="167" y="40" on="0"/>
        <pt x="301" y="40" on="0"/>
        <pt x="380" y="97" on="0"/>
        <pt x="384" y="135" on="1"/>
        <pt x="421" y="135" on="1"/>
        <pt x="418" y="77" on="0"/>
        <pt x="313" y="0" on="0"/>
        <pt x="246" y="0" on="1"/>
        <pt x="227" y="0" on="0"/>
        <pt x="157" y="13" on="0"/>
        <pt x="112" y="40" on="0"/>
        <pt x="89" y="61" on="1"/>
        <pt x="40" y="106" on="0"/>
        <pt x="40" y="306" on="0"/>
        <pt x="147" y="421" on="0"/>
        <pt x="228" y="434" on="1"/>
      </contour>
      <contour>
        <pt x="268" y="634" on="1"/>
        <pt x="230" y="634" on="1"/>
        <pt x="230" y="700" on="1"/>
        <pt x="268" y="700" on="1"/>
      </contour>
    </TTGlyph>
    <TTGlyph name="quotedbl" xMin="46" yMin="564" xMax="234" yMax="700">
      <contour>
        <pt x="51" y="564" on="1"/>
        <pt x="46" y="700" on="1"/>
        <pt x="84" y="700" on="1"/>
        <pt x="78" y="564" on="1"/>
      </contour>
      <contour>
        <pt x="201" y="564" on="1"/>
        <pt x="196" y="700" on="1"/>
        <pt x="234" y="700" on="1"/>
        <pt x="228" y="564" on="1"/>
      </contour>
    </TTGlyph>
    <TTGlyph name="quotedblbase" xMin="-23" yMin="-72" xMax="293" yMax="63">
      <contour>
        <pt x="133" y="63" on="1"/>
        <pt x="6" y="-72" on="1"/>
        <pt x="-23" y="-72" on="1"/>
        <pt x="83" y="63" on="1"/>
      </contour>
      <contour>
        <pt x="293" y="63" on="1"/>
        <pt x="166" y="-72" on="1"/>
        <pt x="137" y="-72" on="1"/>
        <pt x="243" y="63" on="1"/>
      </contour>
    </TTGlyph>
    <TTGlyph name="quotedblleft" xMin="47" yMin="564" xMax="235" yMax="700">
      <contour>
        <pt x="47" y="564" on="1"/>
        <pt x="52" y="700" on="1"/>
        <pt x="79" y="700" on="1"/>
        <pt x="85" y="564" on="1"/>
      </contour>
      <contour>
        <pt x="197" y="564" on="1"/>
        <pt x="202" y="700" on="1"/>
        <pt x="229" y="700" on="1"/>
        <pt x="235" y="564" on="1"/>
      </contour>
    </TTGlyph>
    <TTGlyph name="quotedblright" xMin="46" yMin="564" xMax="234" yMax="700">
      <contour>
        <pt x="51" y="564" on="1"/>
        <pt x="46" y="700" on="1"/>
        <pt x="84" y="700" on="1"/>
        <pt x="78" y="564" on="1"/>
      </contour>
      <contour>
        <pt x="201" y="564" on="1"/>
        <pt x="196" y="700" on="1"/>
        <pt x="234" y="700" on="1"/>
        <pt x="228" y="564" on="1"/>
      </contour>
    </TTGlyph>
    <TTGlyph name="quoteleft" xMin="47" yMin="564" xMax="85" yMax="700">
      <contour>
        <pt x="47" y="564" on="1"/>
        <pt x="52" y="700" on="1"/>
        <pt x="79" y="700" on="1"/>
        <pt x="85" y="564" on="1"/>
      </contour>
    </TTGlyph>
    <TTGlyph name="quoteright" xMin="46" yMin="564" xMax="84" yMax="700">
      <contour>
        <pt x="51" y="564" on="1"/>
        <pt x="46" y="700" on="1"/>
        <pt x="84" y="700" on="1"/>
        <pt x="78" y="564" on="1"/>
      </contour>
    </TTGlyph>
    <TTGlyph name="quotesinglbase" xMin="-23" yMin="-72" xMax="133" yMax="63">
      <contour>
        <pt x="133" y="63" on="1"/>
        <pt x="6" y="-72" on="1"/>
        <pt x="-23" y="-72" on="1"/>
        <pt x="83" y="63" on="1"/>
      </contour>
    </TTGlyph>
    <TTGlyph name="quotesingle" xMin="46" yMin="564" xMax="84" yMax="700">
      <contour>
        <pt x="51" y="564" on="1"/>
        <pt x="46" y="700" on="1"/>
        <pt x="84" y="700" on="1"/>
        <pt x="78" y="564" on="1"/>
      </contour>
    </TTGlyph>
    <TTGlyph name="r" xMin="70" yMin="0" xMax="354" yMax="509">
      <contour>
        <pt x="107" y="0" on="1"/>
        <pt x="70" y="0" on="1"/>
        <pt x="70" y="500" on="1"/>
        <pt x="107" y="500" on="1"/>
        <pt x="107" y="427" on="1"/>
        <pt x="128" y="452" on="0"/>
        <pt x="215" y="509" on="0"/>
        <pt x="294" y="509" on="0"/>
        <pt x="353" y="464" on="0"/>
        <pt x="354" y="413" on="1"/>
        <pt x="317" y="413" on="1"/>
        <pt x="317" y="441" on="0"/>
        <pt x="281" y="473" on="0"/>
        <pt x="219" y="473" on="0"/>
        <pt x="130" y="413" on="0"/>
        <pt x="107" y="377" on="1"/>
      </contour>
    </TTGlyph>
    <TTGlyph name="registered" xMin="39" yMin="263" xMax="481" yMax="705">
      <contour>
        <pt x="351" y="263" on="0"/>
        <pt x="169" y="263" on="0"/>
        <pt x="39" y="393" on="0"/>
        <pt x="39" y="578" on="0"/>
        <pt x="169" y="705" on="0"/>
        <pt x="352" y="705" on="0"/>
        <pt x="481" y="578" on="0"/>
        <pt x="481" y="393" on="0"/>
      </contour>
      <contour>
        <pt x="444" y="568" on="0"/>
        <pt x="342" y="668" on="0"/>
        <pt x="179" y="668" on="0"/>
        <pt x="76" y="567" on="0"/>
        <pt x="76" y="411" on="0"/>
        <pt x="179" y="300" on="0"/>
        <pt x="346" y="300" on="0"/>
        <pt x="444" y="408" on="0"/>
      </contour>
      <contour>
        <pt x="359" y="340" on="1"/>
        <pt x="318" y="340" on="1"/>
        <pt x="245" y="467" on="1"/>
        <pt x="234" y="467" on="1"/>
        <pt x="234" y="340" on="1"/>
        <pt x="196" y="340" on="1"/>
        <pt x="196" y="641" on="1"/>
        <pt x="276" y="640" on="0"/>
        <pt x="347" y="603" on="0"/>
        <pt x="347" y="560" on="1"/>
        <pt x="347" y="487" on="0"/>
        <pt x="283" y="473" on="1"/>
      </contour>
      <contour>
        <pt x="312" y="559" on="1"/>
        <pt x="312" y="604" on="0"/>
        <pt x="234" y="606" on="1"/>
        <pt x="234" y="502" on="1"/>
        <pt x="312" y="502" on="0"/>
      </contour>
    </TTGlyph>
    <TTGlyph name="s" xMin="32" yMin="-2" xMax="379" yMax="510">
      <contour>
        <pt x="295" y="67" on="0"/>
        <pt x="342" y="117" on="0"/>
        <pt x="342" y="202" on="0"/>
        <pt x="278" y="250" on="0"/>
        <pt x="187" y="264" on="0"/>
        <pt x="96" y="281" on="0"/>
        <pt x="32" y="339" on="0"/>
        <pt x="32" y="394" on="1"/>
        <pt x="32" y="510" on="0"/>
        <pt x="212" y="510" on="1"/>
        <pt x="278" y="510" on="0"/>
        <pt x="365" y="496" on="1"/>
        <pt x="365" y="457" on="1"/>
        <pt x="275" y="473" on="0"/>
        <pt x="153" y="473" on="0"/>
        <pt x="68" y="438" on="0"/>
        <pt x="68" y="355" on="0"/>
        <pt x="132" y="310" on="0"/>
        <pt x="223" y="293" on="0"/>
        <pt x="315" y="271" on="0"/>
        <pt x="379" y="206" on="0"/>
        <pt x="379" y="147" on="1"/>
        <pt x="379" y="74" on="0"/>
        <pt x="322" y="42" on="1"/>
        <pt x="294" y="26" on="0"/>
        <pt x="242" y="7" on="0"/>
        <pt x="199" y="4" on="1"/>
        <pt x="131" y="-2" on="0"/>
        <pt x="69" y="-2" on="1"/>
        <pt x="44" y="-2" on="1"/>
        <pt x="44" y="35" on="1"/>
        <pt x="174" y="35" on="0"/>
      </contour>
    </TTGlyph>
    <TTGlyph name="scaron" xMin="32" yMin="-2" xMax="379" yMax="699">
      <contour>
        <pt x="116" y="699" on="1"/>
        <pt x="193" y="617" on="1"/>
        <pt x="270" y="699" on="1"/>
        <pt x="299" y="699" on="1"/>
        <pt x="193" y="563" on="1"/>
        <pt x="87" y="699" on="1"/>
      </contour>
      <contour>
        <pt x="295" y="67" on="0"/>
        <pt x="342" y="117" on="0"/>
        <pt x="342" y="202" on="0"/>
        <pt x="278" y="250" on="0"/>
        <pt x="187" y="264" on="0"/>
        <pt x="96" y="281" on="0"/>
        <pt x="32" y="339" on="0"/>
        <pt x="32" y="394" on="1"/>
        <pt x="32" y="510" on="0"/>
        <pt x="212" y="510" on="1"/>
        <pt x="278" y="510" on="0"/>
        <pt x="365" y="496" on="1"/>
        <pt x="365" y="457" on="1"/>
        <pt x="275" y="473" on="0"/>
        <pt x="153" y="473" on="0"/>
        <pt x="68" y="438" on="0"/>
        <pt x="68" y="355" on="0"/>
        <pt x="132" y="310" on="0"/>
        <pt x="223" y="293" on="0"/>
        <pt x="315" y="271" on="0"/>
        <pt x="379" y="206" on="0"/>
        <pt x="379" y="147" on="1"/>
        <pt x="379" y="74" on="0"/>
        <pt x="322" y="42" on="1"/>
        <pt x="294" y="26" on="0"/>
        <pt x="242" y="7" on="0"/>
        <pt x="199" y="4" on="1"/>
        <pt x="131" y="-2" on="0"/>
        <pt x="69" y="-2" on="1"/>
        <pt x="44" y="-2" on="1"/>
        <pt x="44" y="35" on="1"/>
        <pt x="174" y="35" on="0"/>
      </contour>
    </TTGlyph>
    <TTGlyph name="section" xMin="45" yMin="-202" xMax="397" yMax="700">
      <contour>
        <pt x="397" y="-3" on="1"/>
        <pt x="397" y="-51" on="0"/>
        <pt x="352" y="-125" on="0"/>
        <pt x="286" y="-167" on="0"/>
        <pt x="242" y="-180" on="1"/>
        <pt x="171" y="-202" on="0"/>
        <pt x="82" y="-202" on="1"/>
        <pt x="57" y="-202" on="1"/>
        <pt x="57" y="-165" on="1"/>
        <pt x="234" y="-165" on="0"/>
        <pt x="315" y="-98" on="1"/>
        <pt x="360" y="-60" on="0"/>
        <pt x="360" y="50" on="0"/>
        <pt x="295" y="116" on="0"/>
        <pt x="203" y="145" on="0"/>
        <pt x="110" y="174" on="0"/>
        <pt x="45" y="236" on="0"/>
        <pt x="45" y="289" on="1"/>
        <pt x="45" y="362" on="0"/>
        <pt x="98" y="408" on="1"/>
        <pt x="45" y="443" on="0"/>
        <pt x="45" y="509" on="1"/>
        <pt x="45" y="595" on="0"/>
        <pt x="154" y="700" on="0"/>
        <pt x="296" y="700" on="0"/>
        <pt x="383" y="686" on="1"/>
        <pt x="383" y="650" on="1"/>
        <pt x="310" y="663" on="0"/>
        <pt x="169" y="663" on="0"/>
        <pt x="81" y="587" on="0"/>
        <pt x="81" y="518" on="1"/>
        <pt x="81" y="481" on="0"/>
        <pt x="128" y="434" on="0"/>
        <pt x="198" y="414" on="0"/>
        <pt x="280" y="385" on="0"/>
        <pt x="350" y="351" on="0"/>
        <pt x="397" y="274" on="0"/>
        <pt x="397" y="182" on="0"/>
        <pt x="375" y="140" on="0"/>
        <pt x="352" y="120" on="1"/>
        <pt x="397" y="75" on="0"/>
      </contour>
      <contour>
        <pt x="131" y="390" on="1"/>
        <pt x="113" y="375" on="0"/>
        <pt x="104" y="366" on="1"/>
        <pt x="81" y="343" on="0"/>
        <pt x="81" y="261" on="0"/>
        <pt x="132" y="213" on="0"/>
        <pt x="164" y="203" on="1"/>
        <pt x="286" y="166" on="0"/>
        <pt x="320" y="145" on="1"/>
        <pt x="342" y="162" on="0"/>
        <pt x="360" y="191" on="0"/>
        <pt x="360" y="253" on="0"/>
        <pt x="332" y="306" on="0"/>
        <pt x="278" y="339" on="0"/>
        <pt x="227" y="358" on="0"/>
        <pt x="152" y="381" on="0"/>
      </contour>
    </TTGlyph>
    <TTGlyph name="semicolon" xMin="1" yMin="-111" xMax="160" yMax="511">
      <contour>
        <pt x="160" y="416" on="1"/>
        <pt x="83" y="416" on="1"/>
        <pt x="83" y="511" on="1"/>
        <pt x="160" y="511" on="1"/>
      </contour>
      <contour>
        <pt x="160" y="98" on="1"/>
        <pt x="51" y="-111" on="1"/>
        <pt x="1" y="-111" on="1"/>
        <pt x="85" y="98" on="1"/>
      </contour>
    </TTGlyph>
    <TTGlyph name="seven" xMin="17" yMin="3" xMax="367" yMax="700">
      <contour>
        <pt x="17" y="663" on="1"/>
        <pt x="17" y="700" on="1"/>
        <pt x="367" y="700" on="1"/>
        <pt x="123" y="3" on="1"/>
        <pt x="86" y="3" on="1"/>
        <pt x="317" y="663" on="1"/>
      </contour>
    </TTGlyph>
    <TTGlyph name="six" xMin="60" yMin="1" xMax="458" yMax="700">
      <contour>
        <pt x="60" y="226" on="1"/>
        <pt x="61" y="338" on="1"/>
        <pt x="61" y="454" on="1"/>
        <pt x="61" y="510" on="0"/>
        <pt x="91" y="599" on="0"/>
        <pt x="134" y="652" on="0"/>
        <pt x="162" y="670" on="1"/>
        <pt x="209" y="700" on="0"/>
        <pt x="252" y="700" on="1"/>
        <pt x="351" y="700" on="0"/>
        <pt x="428" y="644" on="1"/>
        <pt x="426" y="607" on="1"/>
        <pt x="393" y="630" on="0"/>
        <pt x="294" y="663" on="0"/>
        <pt x="258" y="663" on="1"/>
        <pt x="194" y="663" on="0"/>
        <pt x="98" y="547" on="0"/>
        <pt x="98" y="453" on="1"/>
        <pt x="98" y="324" on="1"/>
        <pt x="123" y="363" on="0"/>
        <pt x="208" y="408" on="0"/>
        <pt x="259" y="408" on="1"/>
        <pt x="344" y="408" on="0"/>
        <pt x="458" y="290" on="0"/>
        <pt x="458" y="202" on="1"/>
        <pt x="458" y="155" on="0"/>
        <pt x="425" y="81" on="0"/>
        <pt x="378" y="38" on="0"/>
        <pt x="348" y="24" on="1"/>
        <pt x="297" y="1" on="0"/>
        <pt x="255" y="1" on="1"/>
        <pt x="173" y="1" on="0"/>
        <pt x="60" y="108" on="0"/>
        <pt x="60" y="202" on="1"/>
      </contour>
      <contour>
        <pt x="97" y="134" on="0"/>
        <pt x="192" y="41" on="0"/>
        <pt x="325" y="41" on="0"/>
        <pt x="421" y="135" on="0"/>
        <pt x="421" y="265" on="0"/>
        <pt x="326" y="371" on="0"/>
        <pt x="189" y="371" on="0"/>
        <pt x="97" y="266" on="0"/>
      </contour>
    </TTGlyph>
    <TTGlyph name="slash" xMin="22" yMin="-122" xMax="536" yMax="700">
      <contour>
        <pt x="536" y="700" on="1"/>
        <pt x="59" y="-122" on="1"/>
        <pt x="22" y="-122" on="1"/>
        <pt x="499" y="700" on="1"/>
      </contour>
    </TTGlyph>
    <TTGlyph name="sterling" xMin="34" yMin="6" xMax="295" yMax="751">
      <contour>
        <pt x="295" y="750" on="1"/>
        <pt x="295" y="713" on="1"/>
        <pt x="289" y="714" on="0"/>
        <pt x="268" y="714" on="1"/>
        <pt x="210" y="714" on="0"/>
        <pt x="138" y="590" on="0"/>
        <pt x="138" y="504" on="1"/>
        <pt x="138" y="500" on="1"/>
        <pt x="234" y="500" on="1"/>
        <pt x="234" y="463" on="1"/>
        <pt x="138" y="463" on="1"/>
        <pt x="138" y="187" on="1"/>
        <pt x="138" y="127" on="0"/>
        <pt x="125" y="80" on="1"/>
        <pt x="139" y="76" on="0"/>
        <pt x="210" y="40" on="0"/>
        <pt x="234" y="40" on="1"/>
        <pt x="274" y="40" on="0"/>
        <pt x="294" y="75" on="1"/>
        <pt x="294" y="38" on="1"/>
        <pt x="272" y="6" on="0"/>
        <pt x="207" y="6" on="0"/>
        <pt x="126" y="49" on="0"/>
        <pt x="100" y="49" on="1"/>
        <pt x="58" y="49" on="0"/>
        <pt x="34" y="17" on="1"/>
        <pt x="34" y="53" on="1"/>
        <pt x="45" y="75" on="0"/>
        <pt x="84" y="81" on="1"/>
        <pt x="101" y="130" on="0"/>
        <pt x="101" y="188" on="1"/>
        <pt x="101" y="463" on="1"/>
        <pt x="61" y="463" on="1"/>
        <pt x="61" y="500" on="1"/>
        <pt x="101" y="500" on="1"/>
        <pt x="101" y="505" on="1"/>
        <pt x="101" y="574" on="0"/>
        <pt x="135" y="677" on="0"/>
        <pt x="162" y="702" on="1"/>
        <pt x="212" y="751" on="0"/>
        <pt x="262" y="751" on="1"/>
        <pt x="287" y="751" on="0"/>
      </contour>
    </TTGlyph>
    <TTGlyph name="t" xMin="9" yMin="0" xMax="277" yMax="665">
      <contour>
        <pt x="124" y="463" on="1"/>
        <pt x="9" y="463" on="1"/>
        <pt x="9" y="500" on="1"/>
        <pt x="124" y="500" on="1"/>
        <pt x="124" y="665" on="1"/>
        <pt x="161" y="665" on="1"/>
        <pt x="161" y="500" on="1"/>
        <pt x="277" y="500" on="1"/>
        <pt x="277" y="463" on="1"/>
        <pt x="161" y="463" on="1"/>
        <pt x="161" y="0" on="1"/>
        <pt x="124" y="0" on="1"/>
      </contour>
    </TTGlyph>
    <TTGlyph name="thorn" xMin="70" yMin="-191" xMax="419" yMax="750">
      <contour>
        <pt x="70" y="750" on="1"/>
        <pt x="107" y="750" on="1"/>
        <pt x="107" y="440" on="1"/>
        <pt x="171" y="511" on="0"/>
        <pt x="243" y="511" on="1"/>
        <pt x="298" y="511" on="0"/>
        <pt x="353" y="462" on="1"/>
        <pt x="382" y="437" on="0"/>
        <pt x="419" y="335" on="0"/>
        <pt x="419" y="203" on="0"/>
        <pt x="384" y="107" on="0"/>
        <pt x="329" y="50" on="0"/>
        <pt x="286" y="32" on="1"/>
        <pt x="218" y="4" on="0"/>
        <pt x="107" y="0" on="1"/>
        <pt x="107" y="-191" on="1"/>
        <pt x="70" y="-191" on="1"/>
      </contour>
      <contour>
        <pt x="382" y="258" on="1"/>
        <pt x="382" y="360" on="0"/>
        <pt x="304" y="474" on="0"/>
        <pt x="180" y="474" on="0"/>
        <pt x="107" y="390" on="1"/>
        <pt x="107" y="37" on="1"/>
        <pt x="382" y="37" on="0"/>
      </contour>
    </TTGlyph>
    <TTGlyph name="three" xMin="27" yMin="-1" xMax="398" yMax="704">
      <contour>
        <pt x="27" y="99" on="1"/>
        <pt x="75" y="100" on="1"/>
        <pt x="125" y="36" on="0"/>
        <pt x="269" y="36" on="0"/>
        <pt x="361" y="141" on="0"/>
        <pt x="361" y="273" on="0"/>
        <pt x="266" y="366" on="0"/>
        <pt x="198" y="366" on="1"/>
        <pt x="180" y="366" on="0"/>
        <pt x="171" y="364" on="1"/>
        <pt x="171" y="410" on="1"/>
        <pt x="184" y="406" on="0"/>
        <pt x="203" y="406" on="1"/>
        <pt x="258" y="406" on="0"/>
        <pt x="335" y="485" on="0"/>
        <pt x="335" y="589" on="0"/>
        <pt x="255" y="667" on="0"/>
        <pt x="137" y="667" on="0"/>
        <pt x="95" y="612" on="1"/>
        <pt x="49" y="612" on="1"/>
        <pt x="70" y="654" on="0"/>
        <pt x="152" y="704" on="0"/>
        <pt x="202" y="704" on="1"/>
        <pt x="274" y="704" on="0"/>
        <pt x="372" y="607" on="0"/>
        <pt x="372" y="535" on="1"/>
        <pt x="372" y="437" on="0"/>
        <pt x="290" y="388" on="1"/>
        <pt x="341" y="363" on="0"/>
        <pt x="398" y="267" on="0"/>
        <pt x="398" y="205" on="1"/>
        <pt x="398" y="117" on="0"/>
        <pt x="284" y="-1" on="0"/>
        <pt x="199" y="-1" on="1"/>
        <pt x="143" y="-1" on="0"/>
        <pt x="53" y="53" on="0"/>
      </contour>
    </TTGlyph>
    <TTGlyph name="threequarters" xMin="42" yMin="0" xMax="724" yMax="705">
      <contour>
        <pt x="624" y="0" on="1"/>
        <pt x="587" y="0" on="1"/>
        <pt x="587" y="96" on="1"/>
        <pt x="426" y="96" on="1"/>
        <pt x="426" y="133" on="1"/>
        <pt x="624" y="420" on="1"/>
        <pt x="624" y="133" on="1"/>
        <pt x="668" y="133" on="1"/>
        <pt x="668" y="96" on="1"/>
        <pt x="624" y="96" on="1"/>
      </contour>
      <contour>
        <pt x="724" y="700" on="1"/>
        <pt x="110" y="0" on="1"/>
        <pt x="66" y="0" on="1"/>
        <pt x="677" y="700" on="1"/>
      </contour>
      <contour>
        <pt x="42" y="342" on="1"/>
        <pt x="86" y="343" on="1"/>
        <pt x="104" y="319" on="0"/>
        <pt x="183" y="319" on="0"/>
        <pt x="228" y="369" on="0"/>
        <pt x="228" y="447" on="0"/>
        <pt x="185" y="492" on="0"/>
        <pt x="145" y="492" on="1"/>
        <pt x="134" y="492" on="0"/>
        <pt x="129" y="491" on="1"/>
        <pt x="129" y="539" on="1"/>
        <pt x="138" y="536" on="0"/>
        <pt x="148" y="536" on="1"/>
        <pt x="179" y="536" on="0"/>
        <pt x="212" y="576" on="0"/>
        <pt x="212" y="633" on="0"/>
        <pt x="178" y="668" on="0"/>
        <pt x="117" y="668" on="0"/>
        <pt x="99" y="650" on="1"/>
        <pt x="55" y="650" on="1"/>
        <pt x="68" y="675" on="0"/>
        <pt x="117" y="705" on="0"/>
        <pt x="191" y="705" on="0"/>
        <pt x="249" y="647" on="0"/>
        <pt x="249" y="604" on="1"/>
        <pt x="249" y="545" on="0"/>
        <pt x="200" y="515" on="1"/>
        <pt x="231" y="501" on="0"/>
        <pt x="265" y="443" on="0"/>
        <pt x="265" y="353" on="0"/>
        <pt x="197" y="282" on="0"/>
        <pt x="145" y="282" on="1"/>
        <pt x="76" y="282" on="0"/>
      </contour>
      <contour>
        <pt x="587" y="300" on="1"/>
        <pt x="471" y="133" on="1"/>
        <pt x="587" y="133" on="1"/>
      </contour>
    </TTGlyph>
    <TTGlyph name="threesuperior" xMin="32" yMin="282" xMax="255" yMax="705">
      <contour>
        <pt x="32" y="342" on="1"/>
        <pt x="76" y="343" on="1"/>
        <pt x="94" y="319" on="0"/>
        <pt x="173" y="319" on="0"/>
        <pt x="218" y="369" on="0"/>
        <pt x="218" y="447" on="0"/>
        <pt x="175" y="492" on="0"/>
        <pt x="135" y="492" on="1"/>
        <pt x="124" y="492" on="0"/>
        <pt x="119" y="491" on="1"/>
        <pt x="119" y="539" on="1"/>
        <pt x="128" y="536" on="0"/>
        <pt x="138" y="536" on="1"/>
        <pt x="169" y="536" on="0"/>
        <pt x="202" y="576" on="0"/>
        <pt x="202" y="633" on="0"/>
        <pt x="168" y="668" on="0"/>
        <pt x="107" y="668" on="0"/>
        <pt x="89" y="650" on="1"/>
        <pt x="45" y="650" on="1"/>
        <pt x="58" y="675" on="0"/>
        <pt x="107" y="705" on="0"/>
        <pt x="181" y="705" on="0"/>
        <pt x="239" y="647" on="0"/>
        <pt x="239" y="604" on="1"/>
        <pt x="239" y="545" on="0"/>
        <pt x="190" y="515" on="1"/>
        <pt x="221" y="501" on="0"/>
        <pt x="255" y="443" on="0"/>
        <pt x="255" y="353" on="0"/>
        <pt x="187" y="282" on="0"/>
        <pt x="135" y="282" on="1"/>
        <pt x="66" y="282" on="0"/>
      </contour>
    </TTGlyph>
    <TTGlyph name="tilde" xMin="40" yMin="557" xMax="300" yMax="634">
      <contour>
        <pt x="300" y="626" on="1"/>
        <pt x="300" y="589" on="1"/>
        <pt x="278" y="557" on="0"/>
        <pt x="213" y="557" on="0"/>
        <pt x="132" y="600" on="0"/>
        <pt x="106" y="600" on="1"/>
        <pt x="64" y="600" on="0"/>
        <pt x="40" y="568" on="1"/>
        <pt x="40" y="604" on="1"/>
        <pt x="46" y="617" on="0"/>
        <pt x="85" y="634" on="0"/>
        <pt x="133" y="634" on="0"/>
        <pt x="216" y="591" on="0"/>
        <pt x="240" y="591" on="1"/>
        <pt x="280" y="591" on="0"/>
      </contour>
    </TTGlyph>
    <TTGlyph name="trademark" xMin="55" yMin="302" xMax="498" yMax="653">
      <contour>
        <pt x="479" y="302" on="1"/>
        <pt x="480" y="621" on="1"/>
        <pt x="418" y="437" on="1"/>
        <pt x="399" y="437" on="1"/>
        <pt x="337" y="621" on="1"/>
        <pt x="337" y="302" on="1"/>
        <pt x="319" y="302" on="1"/>
        <pt x="319" y="653" on="1"/>
        <pt x="347" y="653" on="1"/>
        <pt x="408" y="466" on="1"/>
        <pt x="470" y="653" on="1"/>
        <pt x="498" y="653" on="1"/>
        <pt x="498" y="302" on="1"/>
      </contour>
      <contour>
        <pt x="154" y="302" on="1"/>
        <pt x="135" y="302" on="1"/>
        <pt x="135" y="634" on="1"/>
        <pt x="55" y="634" on="1"/>
        <pt x="55" y="652" on="1"/>
        <pt x="234" y="652" on="1"/>
        <pt x="234" y="634" on="1"/>
        <pt x="154" y="634" on="1"/>
      </contour>
    </TTGlyph>
    <TTGlyph name="two" xMin="17" yMin="0" xMax="397" yMax="700">
      <contour>
        <pt x="17" y="0" on="1"/>
        <pt x="284" y="370" on="1"/>
        <pt x="306" y="401" on="0"/>
        <pt x="329" y="435" on="0"/>
        <pt x="353" y="493" on="0"/>
        <pt x="353" y="518" on="1"/>
        <pt x="353" y="587" on="0"/>
        <pt x="265" y="663" on="0"/>
        <pt x="149" y="663" on="0"/>
        <pt x="51" y="600" on="1"/>
        <pt x="51" y="636" on="1"/>
        <pt x="139" y="700" on="0"/>
        <pt x="289" y="700" on="0"/>
        <pt x="389" y="599" on="0"/>
        <pt x="389" y="445" on="0"/>
        <pt x="335" y="370" on="1"/>
        <pt x="95" y="37" on="1"/>
        <pt x="397" y="37" on="1"/>
        <pt x="397" y="0" on="1"/>
      </contour>
    </TTGlyph>
    <TTGlyph name="twosuperior" xMin="28" yMin="299" xMax="276" yMax="704">
      <contour>
        <pt x="28" y="299" on="1"/>
        <pt x="198" y="506" on="1"/>
        <pt x="198" y="506" on="0"/>
        <pt x="206" y="518" on="1"/>
        <pt x="212" y="527" on="0"/>
        <pt x="217" y="534" on="0"/>
        <pt x="227" y="550" on="0"/>
        <pt x="232" y="561" on="0"/>
        <pt x="235" y="568" on="1"/>
        <pt x="240" y="580" on="0"/>
        <pt x="240" y="595" on="1"/>
        <pt x="240" y="667" on="0"/>
        <pt x="155" y="667" on="1"/>
        <pt x="122" y="667" on="0"/>
        <pt x="63" y="629" on="1"/>
        <pt x="63" y="666" on="1"/>
        <pt x="120" y="704" on="0"/>
        <pt x="207" y="704" on="0"/>
        <pt x="276" y="642" on="0"/>
        <pt x="276" y="546" on="0"/>
        <pt x="244" y="506" on="1"/>
        <pt x="107" y="336" on="1"/>
        <pt x="271" y="336" on="1"/>
        <pt x="271" y="299" on="1"/>
      </contour>
    </TTGlyph>
    <TTGlyph name="u" xMin="62" yMin="-10" xMax="411" yMax="500">
      <contour>
        <pt x="100" y="500" on="1"/>
        <pt x="99" y="236" on="1"/>
        <pt x="99" y="152" on="0"/>
        <pt x="180" y="27" on="0"/>
        <pt x="301" y="27" on="0"/>
        <pt x="374" y="110" on="1"/>
        <pt x="374" y="500" on="1"/>
        <pt x="411" y="500" on="1"/>
        <pt x="411" y="0" on="1"/>
        <pt x="374" y="0" on="1"/>
        <pt x="374" y="60" on="1"/>
        <pt x="309" y="-10" on="0"/>
        <pt x="233" y="-10" on="1"/>
        <pt x="182" y="-10" on="0"/>
        <pt x="128" y="38" on="1"/>
        <pt x="99" y="64" on="0"/>
        <pt x="62" y="166" on="0"/>
        <pt x="62" y="235" on="1"/>
        <pt x="63" y="500" on="1"/>
      </contour>
    </TTGlyph>
    <TTGlyph name="uacute" xMin="62" yMin="-10" xMax="411" yMax="700">
      <contour>
        <pt x="100" y="500" on="1"/>
        <pt x="99" y="236" on="1"/>
        <pt x="99" y="152" on="0"/>
        <pt x="180" y="27" on="0"/>
        <pt x="301" y="27" on="0"/>
        <pt x="374" y="110" on="1"/>
        <pt x="374" y="500" on="1"/>
        <pt x="411" y="500" on="1"/>
        <pt x="411" y="0" on="1"/>
        <pt x="374" y="0" on="1"/>
        <pt x="374" y="60" on="1"/>
        <pt x="309" y="-10" on="0"/>
        <pt x="233" y="-10" on="1"/>
        <pt x="182" y="-10" on="0"/>
        <pt x="128" y="38" on="1"/>
        <pt x="99" y="64" on="0"/>
        <pt x="62" y="166" on="0"/>
        <pt x="62" y="235" on="1"/>
        <pt x="63" y="500" on="1"/>
      </contour>
      <contour>
        <pt x="364" y="685" on="1"/>
        <pt x="250" y="564" on="1"/>
        <pt x="221" y="564" on="1"/>
        <pt x="327" y="700" on="1"/>
      </contour>
    </TTGlyph>
    <TTGlyph name="ucircumflex" xMin="62" yMin="-10" xMax="411" yMax="692">
      <contour>
        <pt x="100" y="500" on="1"/>
        <pt x="99" y="236" on="1"/>
        <pt x="99" y="152" on="0"/>
        <pt x="180" y="27" on="0"/>
        <pt x="301" y="27" on="0"/>
        <pt x="374" y="110" on="1"/>
        <pt x="374" y="500" on="1"/>
        <pt x="411" y="500" on="1"/>
        <pt x="411" y="0" on="1"/>
        <pt x="374" y="0" on="1"/>
        <pt x="374" y="60" on="1"/>
        <pt x="309" y="-10" on="0"/>
        <pt x="233" y="-10" on="1"/>
        <pt x="182" y="-10" on="0"/>
        <pt x="128" y="38" on="1"/>
        <pt x="99" y="64" on="0"/>
        <pt x="62" y="166" on="0"/>
        <pt x="62" y="235" on="1"/>
        <pt x="63" y="500" on="1"/>
      </contour>
      <contour>
        <pt x="317" y="556" on="1"/>
        <pt x="240" y="637" on="1"/>
        <pt x="163" y="556" on="1"/>
        <pt x="134" y="556" on="1"/>
        <pt x="240" y="692" on="1"/>
        <pt x="346" y="556" on="1"/>
      </contour>
    </TTGlyph>
    <TTGlyph name="udieresis" xMin="62" yMin="-10" xMax="411" yMax="630">
      <contour>
        <pt x="100" y="500" on="1"/>
        <pt x="99" y="236" on="1"/>
        <pt x="99" y="152" on="0"/>
        <pt x="180" y="27" on="0"/>
        <pt x="301" y="27" on="0"/>
        <pt x="374" y="110" on="1"/>
        <pt x="374" y="500" on="1"/>
        <pt x="411" y="500" on="1"/>
        <pt x="411" y="0" on="1"/>
        <pt x="374" y="0" on="1"/>
        <pt x="374" y="60" on="1"/>
        <pt x="309" y="-10" on="0"/>
        <pt x="233" y="-10" on="1"/>
        <pt x="182" y="-10" on="0"/>
        <pt x="128" y="38" on="1"/>
        <pt x="99" y="64" on="0"/>
        <pt x="62" y="166" on="0"/>
        <pt x="62" y="235" on="1"/>
        <pt x="63" y="500" on="1"/>
      </contour>
      <contour>
        <pt x="135" y="630" on="1"/>
        <pt x="173" y="630" on="1"/>
        <pt x="173" y="564" on="1"/>
        <pt x="135" y="564" on="1"/>
      </contour>
      <contour>
        <pt x="305" y="630" on="1"/>
        <pt x="343" y="630" on="1"/>
        <pt x="343" y="564" on="1"/>
        <pt x="305" y="564" on="1"/>
      </contour>
    </TTGlyph>
    <TTGlyph name="ugrave" xMin="62" yMin="-10" xMax="411" yMax="700">
      <contour>
        <pt x="100" y="500" on="1"/>
        <pt x="99" y="236" on="1"/>
        <pt x="99" y="152" on="0"/>
        <pt x="180" y="27" on="0"/>
        <pt x="301" y="27" on="0"/>
        <pt x="374" y="110" on="1"/>
        <pt x="374" y="500" on="1"/>
        <pt x="411" y="500" on="1"/>
        <pt x="411" y="0" on="1"/>
        <pt x="374" y="0" on="1"/>
        <pt x="374" y="60" on="1"/>
        <pt x="309" y="-10" on="0"/>
        <pt x="233" y="-10" on="1"/>
        <pt x="182" y="-10" on="0"/>
        <pt x="128" y="38" on="1"/>
        <pt x="99" y="64" on="0"/>
        <pt x="62" y="166" on="0"/>
        <pt x="62" y="235" on="1"/>
        <pt x="63" y="500" on="1"/>
      </contour>
      <contour>
        <pt x="239" y="564" on="1"/>
        <pt x="125" y="685" on="1"/>
        <pt x="162" y="700" on="1"/>
        <pt x="268" y="564" on="1"/>
      </contour>
    </TTGlyph>
    <TTGlyph name="underscore" xMin="121" yMin="-100" xMax="587" yMax="-63">
      <contour>
        <pt x="587" y="-100" on="1"/>
        <pt x="121" y="-100" on="1"/>
        <pt x="121" y="-63" on="1"/>
        <pt x="587" y="-63" on="1"/>
      </contour>
    </TTGlyph>
    <TTGlyph name="uni00AD" xMin="52" yMin="259" xMax="385" yMax="296">
      <contour>
        <pt x="385" y="259" on="1"/>
        <pt x="52" y="259" on="1"/>
        <pt x="52" y="296" on="1"/>
        <pt x="385" y="296" on="1"/>
      </contour>
    </TTGlyph>
    <TTGlyph name="v" xMin="11" yMin="0" xMax="409" yMax="500">
      <contour>
        <pt x="195" y="0" on="1"/>
        <pt x="11" y="500" on="1"/>
        <pt x="48" y="500" on="1"/>
        <pt x="213" y="60" on="1"/>
        <pt x="372" y="500" on="1"/>
        <pt x="409" y="500" on="1"/>
        <pt x="232" y="0" on="1"/>
      </contour>
    </TTGlyph>
    <TTGlyph name="w" xMin="14" yMin="0" xMax="653" yMax="500">
      <contour>
        <pt x="168" y="0" on="1"/>
        <pt x="14" y="500" on="1"/>
        <pt x="51" y="500" on="1"/>
        <pt x="186" y="60" on="1"/>
        <pt x="315" y="500" on="1"/>
        <pt x="352" y="500" on="1"/>
        <pt x="487" y="60" on="1"/>
        <pt x="616" y="500" on="1"/>
        <pt x="653" y="500" on="1"/>
        <pt x="506" y="0" on="1"/>
        <pt x="469" y="0" on="1"/>
        <pt x="334" y="438" on="1"/>
        <pt x="205" y="0" on="1"/>
      </contour>
    </TTGlyph>
    <TTGlyph name="x" xMin="21" yMin="0" xMax="558" yMax="511">
      <contour>
        <pt x="272" y="206" on="1"/>
        <pt x="73" y="0" on="1"/>
        <pt x="21" y="0" on="1"/>
        <pt x="271" y="257" on="1"/>
        <pt x="271" y="264" on="1"/>
        <pt x="271" y="350" on="0"/>
        <pt x="199" y="474" on="0"/>
        <pt x="84" y="474" on="0"/>
        <pt x="21" y="407" on="1"/>
        <pt x="21" y="455" on="1"/>
        <pt x="80" y="511" on="0"/>
        <pt x="147" y="511" on="1"/>
        <pt x="192" y="511" on="0"/>
        <pt x="242" y="468" on="1"/>
        <pt x="267" y="445" on="0"/>
        <pt x="303" y="355" on="0"/>
        <pt x="307" y="295" on="1"/>
        <pt x="507" y="501" on="1"/>
        <pt x="558" y="501" on="1"/>
        <pt x="308" y="242" on="1"/>
        <pt x="309" y="158" on="0"/>
        <pt x="380" y="37" on="0"/>
        <pt x="495" y="37" on="0"/>
        <pt x="558" y="104" on="1"/>
        <pt x="558" y="56" on="1"/>
        <pt x="498" y="0" on="0"/>
        <pt x="432" y="0" on="1"/>
        <pt x="387" y="0" on="0"/>
        <pt x="339" y="42" on="1"/>
        <pt x="314" y="63" on="0"/>
        <pt x="277" y="148" on="0"/>
      </contour>
    </TTGlyph>
    <TTGlyph name="y" xMin="58" yMin="-259" xMax="407" yMax="500">
      <contour>
        <pt x="370" y="500" on="1"/>
        <pt x="407" y="500" on="1"/>
        <pt x="407" y="-13" on="1"/>
        <pt x="407" y="-82" on="0"/>
        <pt x="373" y="-185" on="0"/>
        <pt x="346" y="-210" on="1"/>
        <pt x="296" y="-259" on="0"/>
        <pt x="246" y="-259" on="1"/>
        <pt x="180" y="-259" on="0"/>
        <pt x="120" y="-203" on="1"/>
        <pt x="120" y="-155" on="1"/>
        <pt x="183" y="-222" on="0"/>
        <pt x="298" y="-222" on="0"/>
        <pt x="370" y="-98" on="0"/>
        <pt x="370" y="-12" on="1"/>
        <pt x="370" y="4" on="1"/>
        <pt x="191" y="11" on="0"/>
        <pt x="120" y="82" on="1"/>
        <pt x="58" y="146" on="0"/>
        <pt x="58" y="269" on="1"/>
        <pt x="58" y="490" on="0"/>
        <pt x="59" y="500" on="1"/>
        <pt x="96" y="500" on="1"/>
        <pt x="95" y="491" on="0"/>
        <pt x="95" y="268" on="1"/>
        <pt x="95" y="137" on="0"/>
        <pt x="176" y="86" on="1"/>
        <pt x="248" y="41" on="0"/>
        <pt x="370" y="41" on="1"/>
      </contour>
    </TTGlyph>
    <TTGlyph name="yacute" xMin="58" yMin="-259" xMax="407" yMax="700">
      <contour>
        <pt x="370" y="500" on="1"/>
        <pt x="407" y="500" on="1"/>
        <pt x="407" y="-13" on="1"/>
        <pt x="407" y="-82" on="0"/>
        <pt x="373" y="-185" on="0"/>
        <pt x="346" y="-210" on="1"/>
        <pt x="296" y="-259" on="0"/>
        <pt x="246" y="-259" on="1"/>
        <pt x="180" y="-259" on="0"/>
        <pt x="120" y="-203" on="1"/>
        <pt x="120" y="-155" on="1"/>
        <pt x="183" y="-222" on="0"/>
        <pt x="298" y="-222" on="0"/>
        <pt x="370" y="-98" on="0"/>
        <pt x="370" y="-12" on="1"/>
        <pt x="370" y="4" on="1"/>
        <pt x="191" y="11" on="0"/>
        <pt x="120" y="82" on="1"/>
        <pt x="58" y="146" on="0"/>
        <pt x="58" y="269" on="1"/>
        <pt x="58" y="490" on="0"/>
        <pt x="59" y="500" on="1"/>
        <pt x="96" y="500" on="1"/>
        <pt x="95" y="491" on="0"/>
        <pt x="95" y="268" on="1"/>
        <pt x="95" y="137" on="0"/>
        <pt x="176" y="86" on="1"/>
        <pt x="248" y="41" on="0"/>
        <pt x="370" y="41" on="1"/>
      </contour>
      <contour>
        <pt x="354" y="685" on="1"/>
        <pt x="240" y="564" on="1"/>
        <pt x="211" y="564" on="1"/>
        <pt x="317" y="700" on="1"/>
      </contour>
    </TTGlyph>
    <TTGlyph name="ydieresis" xMin="58" yMin="-259" xMax="407" yMax="630">
      <contour>
        <pt x="370" y="500" on="1"/>
        <pt x="407" y="500" on="1"/>
        <pt x="407" y="-13" on="1"/>
        <pt x="407" y="-82" on="0"/>
        <pt x="373" y="-185" on="0"/>
        <pt x="346" y="-210" on="1"/>
        <pt x="296" y="-259" on="0"/>
        <pt x="246" y="-259" on="1"/>
        <pt x="180" y="-259" on="0"/>
        <pt x="120" y="-203" on="1"/>
        <pt x="120" y="-155" on="1"/>
        <pt x="183" y="-222" on="0"/>
        <pt x="298" y="-222" on="0"/>
        <pt x="370" y="-98" on="0"/>
        <pt x="370" y="-12" on="1"/>
        <pt x="370" y="4" on="1"/>
        <pt x="191" y="11" on="0"/>
        <pt x="120" y="82" on="1"/>
        <pt x="58" y="146" on="0"/>
        <pt x="58" y="269" on="1"/>
        <pt x="58" y="490" on="0"/>
        <pt x="59" y="500" on="1"/>
        <pt x="96" y="500" on="1"/>
        <pt x="95" y="491" on="0"/>
        <pt x="95" y="268" on="1"/>
        <pt x="95" y="137" on="0"/>
        <pt x="176" y="86" on="1"/>
        <pt x="248" y="41" on="0"/>
        <pt x="370" y="41" on="1"/>
      </contour>
      <contour>
        <pt x="130" y="630" on="1"/>
        <pt x="168" y="630" on="1"/>
        <pt x="168" y="564" on="1"/>
        <pt x="130" y="564" on="1"/>
      </contour>
      <contour>
        <pt x="300" y="630" on="1"/>
        <pt x="338" y="630" on="1"/>
        <pt x="338" y="564" on="1"/>
        <pt x="300" y="564" on="1"/>
      </contour>
    </TTGlyph>
</ttFont>
